<svg width="15" height="15" viewBox="0 0 15 15" fill="none" xmlns="http://www.w3.org/2000/svg">
<path fill-rule="evenodd" clip-rule="evenodd" d="M4.02039 0.000374597C3.93569 0.00967476 3.85755 0.0503735 3.80137 0.114439C3.74519 0.178505 3.71505 0.261289 3.71689 0.346479V1.34219H1.9065C0.861807 1.34219 0.000260093 2.20177 0.000260093 3.24843V5.25051V5.29311C-8.66976e-05 5.30198 -8.66976e-05 5.31086 0.000260093 5.31973V13.0938C0.000260093 14.1404 0.861354 15 1.9065 15H13.0936C14.1388 15 14.9946 14.1404 14.9946 13.0938V5.34103C14.9948 5.33393 14.9948 5.32683 14.9946 5.31973C14.9952 5.30732 14.9952 5.29487 14.9946 5.28246V3.24843C14.9946 2.20177 14.1383 1.34219 13.0936 1.34219H11.2247V0.346479C11.2254 0.300829 11.2169 0.255501 11.1998 0.213185C11.1827 0.170869 11.1572 0.132433 11.1249 0.10015C11.0926 0.0678669 11.0542 0.0424001 11.0119 0.0252612C10.9696 0.00812241 10.9242 -0.000344315 10.8786 0.000374597C10.8338 0.00106851 10.7897 0.0105696 10.7486 0.0283396C10.7075 0.0461095 10.6703 0.0717956 10.6392 0.103935C10.608 0.136075 10.5835 0.174045 10.567 0.21566C10.5505 0.257275 10.5424 0.301726 10.5431 0.346479V1.34219H4.39845V0.346479C4.39917 0.300829 4.3907 0.255501 4.37357 0.213185C4.35643 0.170869 4.33096 0.132433 4.29868 0.10015C4.26639 0.0678669 4.22795 0.0424001 4.18564 0.0252612C4.14332 0.00812241 4.09799 -0.000344315 4.05234 0.000374597C4.0417 -0.000124866 4.03104 -0.000124866 4.02039 0.000374597ZM0.681819 5.66051H14.313V13.0938C14.313 13.7694 13.7655 14.3184 13.0936 14.3184H1.9065C1.23465 14.3184 0.681819 13.7694 0.681819 13.0938V5.66051Z" fill="#AAAAAA"/>
<rect x="2.04468" y="6.8156" width="10.9049" height="0.681559" fill="#AAAAAA"/>
<rect x="2.04468" y="8.51949" width="10.9049" height="0.681559" fill="#AAAAAA"/>
<rect x="2.04468" y="10.2234" width="10.9049" height="0.681559" fill="#AAAAAA"/>
<rect x="2.04468" y="11.9273" width="10.9049" height="0.681559" fill="#AAAAAA"/>
</svg>
