<svg width="22" height="14" viewBox="0 0 22 14" fill="none" xmlns="http://www.w3.org/2000/svg">
<path d="M1.74999 0C0.789129 0 0 0.761929 0 1.68966V12.3103C0 13.238 0.789129 14 1.74999 14H20.25C21.2109 14 22 13.238 22 12.3103V1.68966C22 0.761929 21.2109 0 20.25 0H1.74999ZM1.74999 0.9655H20.25C20.6741 0.9655 21 1.28013 21 1.68966V2.41378H0.999983V1.68966C0.999983 1.28013 1.32582 0.9655 1.74999 0.9655ZM0.999983 5.79309H21V12.3103C21 12.7199 20.6741 13.0344 20.25 13.0344H1.74999C1.32584 13.0344 0.999983 12.7199 0.999983 12.3103V5.79309ZM16.5723 7.14449C15.715 7.14449 15.0117 7.82572 15.0117 8.649C15.0117 9.47222 15.715 10.1476 16.5723 10.1476C16.9396 10.1476 17.2794 10.0211 17.5477 9.81396C17.8151 10.0217 18.1544 10.1476 18.523 10.1476C19.3802 10.1476 20.0835 9.47222 20.0835 8.649C20.0835 7.82572 19.3802 7.15036 18.523 7.15036C18.1569 7.15036 17.8203 7.27468 17.5538 7.47817C17.2849 7.26928 16.9413 7.14449 16.5723 7.14449ZM14.3177 12.0093H1.87512V11.3979H14.3177V12.0093Z" fill="#AAAAAA"/>
</svg>
