<svg width="170" height="170" viewBox="0 0 170 170" fill="none" xmlns="http://www.w3.org/2000/svg">
<path d="M82.069 11.724H152.414C158.862 11.724 164.138 17 164.138 23.448V64.4823C164.138 70.9307 158.862 76.2063 152.414 76.2063H114.31V87.3234C114.31 88.6292 112.731 89.2827 111.809 88.3596L99.655 76.2067H82.0687C75.6203 76.2067 70.3447 70.9307 70.3447 64.4827V23.4483C70.345 17 75.6206 11.724 82.069 11.724Z" fill="#D0D0D0"/>
<path d="M149.383 35.1723H105.517V29.3103H128.866C130.427 29.3103 131.789 28.1323 131.891 26.5751C132.001 24.8681 130.651 23.4483 128.966 23.4483H105.517V11.724H99.6553C99.6553 11.724 99.6553 50.3026 99.6553 52.7583C99.6553 59.2067 94.3794 64.4823 87.9313 64.4823H70.345C70.345 66.6246 70.9692 68.6115 71.9836 70.3443H87.9313C97.6283 70.3443 105.518 62.4549 105.518 52.758H117.151C118.62 52.758 119.932 51.7161 120.142 50.2618C120.402 48.4499 119.005 46.896 117.242 46.896H105.518V41.034H149.483C151.168 41.034 152.519 39.6146 152.408 37.9073C152.306 36.3504 150.944 35.1723 149.383 35.1723Z" fill="#F6F6F6"/>
<path d="M149.482 29.3103H140.689C139.069 29.3103 137.758 27.9978 137.758 26.3792C137.758 24.7605 139.069 23.448 140.689 23.448H149.482C151.102 23.448 152.414 24.7605 152.414 26.3792C152.414 27.9978 151.103 29.3103 149.482 29.3103Z" fill="white"/>
<path d="M149.482 52.7586H128.965C127.345 52.7586 126.034 51.4461 126.034 49.8275C126.034 48.2088 127.345 46.8963 128.965 46.8963H149.482C151.102 46.8963 152.414 48.2088 152.414 49.8275C152.414 51.4461 151.103 52.7586 149.482 52.7586Z" fill="white"/>
<path d="M149.482 64.4826H108.448C106.828 64.4826 105.517 63.1701 105.517 61.5515C105.517 59.9328 106.828 58.6203 108.448 58.6203H149.482C151.102 58.6203 152.414 59.9328 152.414 61.5515C152.414 63.1701 151.103 64.4826 149.482 64.4826Z" fill="white"/>
<path d="M87.931 0H17.5863C11.1379 0 5.8623 5.27597 5.8623 11.724V52.7583C5.8623 59.2067 11.1383 64.4823 17.5863 64.4823H55.6898V75.5994C55.6898 76.9053 57.2686 77.5587 58.1913 76.6357L70.345 64.4827H87.9313C94.3797 64.4827 99.6553 59.2067 99.6553 52.7587V11.724C99.655 5.27597 94.3794 0 87.931 0Z" fill="#9C9C9C"/>
<path d="M29.3104 17.5863H20.5175C18.8976 17.5863 17.5864 16.2738 17.5864 14.6552C17.5864 13.0365 18.8972 11.724 20.5175 11.724H29.3107C30.9307 11.724 32.2419 13.0365 32.2419 14.6552C32.2419 16.2738 30.9307 17.5863 29.3104 17.5863Z" fill="white"/>
<path d="M85.0002 17.5863H41.0347C39.4147 17.5863 38.1035 16.2738 38.1035 14.6552C38.1035 13.0365 39.4144 11.724 41.0347 11.724H85.0002C86.6202 11.724 87.9313 13.0365 87.9313 14.6552C87.9313 16.2738 86.6202 17.5863 85.0002 17.5863Z" fill="white"/>
<path d="M85.0002 29.3103H20.5175C18.8976 29.3103 17.5864 27.9978 17.5864 26.3792C17.5864 24.7605 18.8972 23.448 20.5175 23.448H85.0002C86.6202 23.448 87.9314 24.7605 87.9314 26.3792C87.931 27.9978 86.6202 29.3103 85.0002 29.3103Z" fill="white"/>
<path d="M85.0002 41.0344H76.207C74.587 41.0344 73.2758 39.7218 73.2758 38.1032C73.2758 36.4845 74.5867 35.172 76.207 35.172H85.0002C86.6201 35.172 87.9313 36.4845 87.9313 38.1032C87.931 39.7222 86.6201 41.0344 85.0002 41.0344Z" fill="white"/>
<path d="M64.4827 41.0344H20.5175C18.8976 41.0344 17.5864 39.7218 17.5864 38.1032C17.5864 36.4845 18.8972 35.172 20.5175 35.172H64.483C66.103 35.172 67.4142 36.4845 67.4142 38.1032C67.4139 39.7222 66.103 41.0344 64.4827 41.0344Z" fill="white"/>
<path d="M85.0002 52.7587H20.5175C18.8976 52.7587 17.5864 51.4462 17.5864 49.8275C17.5864 48.2089 18.8972 46.8964 20.5175 46.8964H85.0002C86.6202 46.8964 87.9314 48.2089 87.9314 49.8275C87.931 51.4462 86.6202 52.7587 85.0002 52.7587Z" fill="white"/>
<path d="M56.1407 147.003V137.533H31.7906V147.003L43.9655 157.824L56.1407 147.003Z" fill="#C89766"/>
<path d="M74.9659 151.432L58.2265 147.493C57.9739 147.434 57.7411 147.333 57.524 147.21L43.9658 155.119L30.9359 146.827C30.5986 147.145 30.1802 147.381 29.7044 147.493L12.9651 151.431C10.5207 152.007 8.79315 154.188 8.79315 156.699V167.294C8.79315 168.788 10.0044 170 11.4989 170H76.4324C77.9266 170 79.1382 168.788 79.1382 167.294V156.699C79.1378 154.188 77.4106 152.007 74.9659 151.432Z" fill="#EFF2FA"/>
<path d="M31.7906 137.533V147.524C47.1281 153.05 56.1407 139.22 56.1407 139.22V137.533H31.7906Z" fill="#C89766"/>
<path d="M26.3795 106.419L27.5586 132.353C27.6688 134.776 28.8568 137.023 30.7969 138.478L36.3902 142.673C37.7954 143.727 39.504 144.296 41.2601 144.296H46.6712C48.4273 144.296 50.1363 143.726 51.5411 142.673L57.1345 138.478C59.0749 137.023 60.2626 134.776 60.3728 132.353L61.5515 106.418L26.3795 106.419Z" fill="#C89766"/>
<path d="M39.9071 111.83C45.3182 111.83 53.435 110.478 55.3601 106.419H26.3795L27.5582 132.354C27.6685 134.777 28.8565 137.023 30.7965 138.479L36.3899 142.674C37.7951 143.728 39.5037 144.297 41.2598 144.297H43.9655C41.2598 144.297 35.8487 138.886 35.8487 132.122C35.8487 128.814 35.8487 119.947 35.8487 115.888C35.849 114.535 37.2014 111.83 39.9071 111.83Z" fill="#C89766"/>
<path d="M69.2068 161.22L77.9728 153.346C78.7072 154.276 79.1382 155.446 79.1382 156.699V167.294C79.1382 168.788 77.9269 170 76.4325 170H66.9629V166.252C66.9629 164.332 67.7787 162.503 69.2068 161.22Z" fill="#E4EAF6"/>
<path d="M18.7242 161.22L9.95824 153.346C9.22379 154.276 8.79282 155.446 8.79282 156.699V167.294C8.79282 168.788 10.0041 170 11.4985 170H20.968V166.252C20.9684 164.332 20.1526 162.503 18.7242 161.22Z" fill="#E4EAF6"/>
<path d="M47.3476 170H40.5834L41.4291 157.824H46.5022L47.3476 170Z" fill="#5B5D6E"/>
<path d="M47.3476 155.119H40.5834V155.9C40.5834 157.71 42.0503 159.177 43.8602 159.177H44.0701C45.88 159.177 47.3469 157.71 47.3469 155.9V155.119H47.3476Z" fill="#515262"/>
<path d="M31.6007 143.99L43.9655 155.119C43.9655 155.119 40.5024 156.867 36.2292 160.39C35.3476 161.117 34.0142 160.822 33.5414 159.782L27.7322 147.002L29.57 144.245C30.0275 143.559 30.9874 143.439 31.6007 143.99Z" fill="#E4EAF6"/>
<path d="M56.3306 143.99L43.9658 155.119C43.9658 155.119 47.4289 156.867 51.7021 160.39C52.5837 161.117 53.9171 160.822 54.3899 159.782L60.1991 147.002L58.3613 144.245C57.9038 143.559 56.9439 143.439 56.3306 143.99Z" fill="#E4EAF6"/>
<path d="M52.167 97.4566L53.4353 106.419C59.2246 107.577 60.0587 116.662 60.1789 119.257C60.2008 119.728 60.3512 120.183 60.6065 120.579L62.8155 124.005C62.8155 124.005 62.0592 118.34 65.5213 114.536C65.5209 114.535 66.7093 92.0455 52.167 97.4566Z" fill="#785550"/>
<path d="M64.1726 123.426L62.6449 129.537C62.4639 130.261 61.8132 130.769 61.0668 130.769C60.2463 130.769 59.5547 130.158 59.4528 129.344L58.6715 123.094C58.4626 121.423 59.7659 119.946 61.4503 119.946H61.4559C63.2774 119.947 64.6145 121.659 64.1726 123.426Z" fill="#C89766"/>
<path d="M27.6757 95.0331L29.6769 96.3998C20.6304 103.079 22.3211 114.536 22.3211 114.536C25.0268 117.241 25.0268 124.005 25.0268 124.005L27.7325 121.299C27.7325 121.299 26.6883 113.484 31.7909 110.477C36.5257 107.687 40.6688 109.124 44.8958 109.124C56.2254 109.124 59.396 104.855 58.8464 99.655C58.5622 96.9642 54.4484 91.3602 43.9658 91.5382C39.7351 91.6099 31.7906 92.8908 27.6757 95.0331Z" fill="#694B4B"/>
<path d="M26.8868 107.941C26.8868 107.941 25.4495 102.275 29.6769 96.3995C20.6304 103.079 22.3211 114.535 22.3211 114.535C25.0268 117.241 25.0268 124.005 25.0268 124.005L27.7325 121.299C27.7325 121.299 26.6883 113.483 31.7909 110.477C36.5257 107.687 40.6688 109.124 44.8958 109.124C46.7383 109.124 48.3443 109.001 49.774 108.789C41.0486 109.082 35.9051 102.473 26.8868 107.941Z" fill="#5A4146"/>
<path d="M23.7588 123.426L25.2865 129.537C25.4674 130.261 26.1182 130.769 26.8646 130.769C27.6851 130.769 28.3767 130.158 28.4786 129.344L29.2599 123.094C29.4687 121.423 28.1655 119.946 26.4811 119.946H26.4755C24.654 119.947 23.3169 121.659 23.7588 123.426Z" fill="#C89766"/>
<path d="M60.1992 167.294H53.435C51.9409 167.294 50.7293 168.505 50.7293 170H62.9046C62.9046 168.505 61.6933 167.294 60.1992 167.294Z" fill="#E4EAF6"/>
<path d="M120.173 92.4134C92.8826 92.4134 95.9084 125.6 96.0329 149.649C96.0376 150.558 96.5134 151.377 97.2913 151.846C100.315 153.669 108.621 157.931 120.173 157.931C131.725 157.931 140.03 153.669 143.054 151.846C143.832 151.377 144.308 150.558 144.312 149.649C144.437 125.601 147.462 92.4134 120.173 92.4134Z" fill="#694B4B"/>
<path d="M118.414 92.4821C93.0333 93.9052 95.911 126.135 96.0329 149.65C96.0375 150.558 96.5133 151.377 97.2913 151.846C100.315 153.669 108.62 157.931 120.173 157.931L127.069 109.655" fill="#5A4146"/>
<path d="M120.173 92.4134C104.655 92.4134 103.578 111.163 103.578 111.163C112.522 109.654 118.017 113.426 127.069 109.654L120.173 157.931C131.725 157.931 140.03 153.669 143.054 151.846C143.832 151.377 144.308 150.558 144.312 149.649C144.437 125.601 147.462 92.4134 120.173 92.4134Z" fill="#694B4B"/>
<path d="M144.312 149.65C144.419 128.984 146.65 101.592 129.965 94.2868C129.674 95.7985 129.147 100.019 130.517 102.758C133.965 109.655 137.414 109.655 140.862 114.827C144.31 133.793 134.273 153.922 130.939 156.663C136.846 155.258 141.079 153.035 143.053 151.846C143.831 151.377 144.307 150.558 144.312 149.65Z" fill="#785550"/>
<path d="M146.3 154.88L130.915 148.47C129.63 147.935 128.793 146.679 128.793 145.287V141.121H111.552V145.287C111.552 146.679 110.715 147.935 109.43 148.47L94.045 154.88C92.1176 155.684 90.8619 157.566 90.8619 159.655V166.552C90.8619 168.456 92.4058 170 94.3103 170H146.034C147.939 170 149.483 168.456 149.483 166.552V159.655C149.483 157.566 148.227 155.684 146.3 154.88Z" fill="#E6AF78"/>
<path d="M146.3 154.88L131.425 148.682L120.173 153.539L108.92 148.682L94.0454 154.88C92.118 155.684 90.8622 157.566 90.8622 159.655V166.552C90.8622 168.456 92.4062 170 94.3107 170H146.034C147.939 170 149.483 168.456 149.483 166.552V159.655C149.483 157.566 148.227 155.684 146.3 154.88Z" fill="#A71EBD"/>
<path d="M128.793 141.12H111.552V145.287C111.552 146.679 110.715 147.935 109.43 148.47L107.027 149.471C125.415 154.16 128.793 141.12 128.793 141.12Z" fill="#E6AE75"/>
<path d="M99.2659 161.55L92.3454 156.045C91.418 156.994 90.8622 158.276 90.8622 159.655V166.552C90.8622 168.456 92.4061 170 94.3107 170H101.207V165.59C101.207 164.018 100.493 162.532 99.2659 161.55Z" fill="#C582E4"/>
<path d="M149.483 166.551V159.655C149.483 158.286 148.936 157.013 148.022 156.067L141.079 161.55C139.852 162.531 139.138 164.017 139.138 165.589V170H146.035C147.939 170 149.483 168.456 149.483 166.551Z" fill="#C582E4"/>
<path d="M120.431 166.551H119.914C119.104 166.551 118.448 165.895 118.448 165.086V153.543H121.897V165.086C121.896 165.895 121.24 166.551 120.431 166.551Z" fill="#C582E4"/>
<path d="M120.173 153.539L110.305 146.138C109.671 145.662 108.769 145.817 108.329 146.476L106.379 149.4L112.429 157.871C112.889 158.514 113.796 158.64 114.413 158.146L120.173 153.539Z" fill="#C582E4"/>
<path d="M120.173 153.539L130.04 146.138C130.674 145.662 131.576 145.817 132.016 146.476L133.966 149.4L127.916 157.871C127.456 158.514 126.55 158.64 125.932 158.146L120.173 153.539Z" fill="#C582E4"/>
<path d="M128.793 107.931C120.173 116.551 103.254 109.655 103.254 123.448L104.325 133.608C104.531 135.881 105.849 137.904 107.844 139.013L117.66 144.466C119.223 145.334 121.122 145.334 122.684 144.466L132.501 139.013C134.496 137.904 135.813 135.881 136.02 133.608L137.255 121.541C137.343 120.684 137.362 119.821 137.333 118.96C136.688 114.572 130.517 111.379 128.793 107.931Z" fill="#E6AE75"/>
<path d="M103.254 123.448L104.325 133.608C104.531 135.881 105.849 137.904 107.844 139.013L117.66 144.466C118.744 145.069 119.988 145.224 121.171 144.991C121.171 144.991 116.222 143.491 113.276 135.517C112.373 133.074 111.121 120.143 112.198 118.563C114.328 115.439 126.207 115.114 129.717 109.319C129.543 109.104 129.383 108.889 129.237 108.673C129.226 108.656 129.211 108.638 129.199 108.621C129.047 108.391 128.909 108.161 128.793 107.931C120.173 116.552 103.254 109.655 103.254 123.448Z" fill="#E6AE75"/>
<path d="M132.758 166.551H128.276C126.657 166.551 125.345 167.864 125.345 169.482V170H135.689V169.482C135.69 167.864 134.377 166.551 132.758 166.551Z" fill="#C582E4"/>
</svg>
