<svg width="21" height="21" viewBox="0 0 21 21" fill="none" xmlns="http://www.w3.org/2000/svg">
<path d="M10.5 0C16.2987 0 21 4.7013 21 10.5C21 16.2987 16.2987 21 10.5 21C4.7013 21 0 16.2987 0 10.5C0 4.70156 4.70156 0 10.5 0ZM4.55801 10.9512C3.60954 10.0027 5.05172 8.56027 6.00044 9.50899L8.93965 12.4482L14.9998 6.38828C15.9483 5.43957 17.3907 6.882 16.442 7.83072L9.661 14.6117C9.26264 15.0098 8.61666 15.0098 8.21856 14.6117L4.55801 10.9512ZM10.5 2.04022C5.82767 2.04022 2.04022 5.82767 2.04022 10.5C2.04022 15.1723 5.82767 18.9598 10.5 18.9598C15.1723 18.9598 18.9598 15.1723 18.9598 10.5C18.9598 5.82767 15.1723 2.04022 10.5 2.04022Z" fill="#AAAAAA"/>
</svg>
