<svg width="89" height="89" viewBox="0 0 89 89" fill="none" xmlns="http://www.w3.org/2000/svg">
<path d="M89 75.4442V88.8312H0V75.4442C0 71.9028 2.16937 68.7117 5.46794 67.4342L24.2339 60.0547L38.8819 76.1507L43.4784 66.7871V66.7684L44.5 64.6716L45.5402 66.7686L50.1385 76.1507L64.7659 60.0547L83.5505 67.4342C86.8306 68.7322 89 71.9028 89 75.4442Z" fill="#F2F2F2"/>
<path d="M57.6275 57.2734H57.6461V49.6528C56.6726 51.1287 55.5415 52.6268 54.2271 54.125L52.41 56.1275C50.7413 57.9428 48.368 59.0014 45.9019 59.0014H43.1207C40.6546 59.0014 38.2794 57.9445 36.6125 56.1275L34.7955 54.125C33.4661 52.6139 32.3221 51.0954 31.3448 49.6046V57.2605L31.3746 57.2753L42.8147 63.7278L44.5021 64.6734L46.1894 63.7278L57.6275 57.2734Z" fill="#C89766"/>
<g opacity="0.1">
<g opacity="0.1">
<path opacity="0.1" d="M39.8108 58.3228C39.7997 58.3191 39.7886 58.3153 39.7775 58.3117C39.7589 58.3042 39.7385 58.2986 39.7199 58.2931C39.7013 58.2839 39.681 58.2819 39.6551 58.2727L46.6471 63.4662L57.6275 57.2732H57.6386L57.6461 49.6915C57.6275 49.7193 55.0392 53.1106 54.2271 54.1212L52.4101 56.1256C50.7413 57.9409 48.368 58.9995 45.9019 58.9995H43.1207C42.5589 58.9995 42.0082 58.9383 41.4686 58.8234C40.8974 58.7141 40.3468 58.5434 39.8108 58.3228Z" fill="#40596B"/>
</g>
</g>
<path d="M31.4874 34.124C31.7766 37.4523 30.1616 40.3132 27.881 40.5098C25.5967 40.71 23.5108 38.1716 23.2159 34.8435C22.9267 31.5152 24.5417 28.658 26.826 28.4577C29.1085 28.2575 31.1981 30.794 31.4874 34.124Z" fill="#C89766"/>
<path d="M65.8007 34.8471C65.5115 38.1754 63.4219 40.7119 61.1394 40.5117C58.8551 40.3114 57.2382 37.4542 57.533 34.1259C57.8222 30.7976 59.9118 28.2594 62.1943 28.4596C64.4786 28.6561 66.0936 31.5171 65.8007 34.8471Z" fill="#C89766"/>
<path d="M63.4217 34.1351C63.0713 37.862 61.3061 46.0742 54.2269 54.1212L52.4099 56.1237C50.7411 57.9407 48.3679 58.9995 45.9018 58.9995H43.1205C40.6544 58.9995 38.2792 57.9426 36.6124 56.1237L34.7954 54.1212C27.7124 46.0742 25.9696 37.8601 25.5969 34.1351C25.0963 28.999 25.3002 22.4725 25.5969 20.7851C27.2842 10.9025 35.741 4.76514 44.5113 4.76514C53.2797 4.76514 61.7347 10.9025 63.4219 20.7851C63.7184 22.4725 63.9223 29.0009 63.4217 34.1351Z" fill="#C89766"/>
<path d="M30.0542 9.45071C30.0542 9.45071 30.184 -3.03345 48.3345 0.95486C48.3345 0.95486 57.3401 3.78426 63.1344 12.1541C63.1344 12.1541 68.5708 20.0492 65.6152 26.6908C64.6548 28.8471 63.6239 31.3152 63.7426 33.2971C63.7426 33.2971 62.7358 29.09 62.135 25.5839C61.6325 22.6469 60.3681 19.8953 58.4268 17.637L58.3692 17.5683C55.2264 13.9285 50.3072 12.2264 45.6552 13.4262C43.4358 13.9991 40.9104 15.1172 38.1328 17.0993C38.1328 17.0993 30.5715 12.0244 26.8335 20.9077C26.8335 20.9077 25.1684 27.4011 25.4039 32.5297C25.4039 32.5276 14.9965 10.7376 30.0542 9.45071Z" fill="#40596B"/>
<path d="M69.2884 65.2462C69.2514 64.9311 69.179 62.0403 68.5856 60.8722C67.5824 58.905 65.7857 57.5903 63.6164 57.2565L57.6459 56.0514V57.2751H57.6273L56.7726 57.7572L63.3196 59.0922C64.8957 59.3333 66.2141 60.2789 66.9167 61.7046C67.3803 62.6132 67.5694 63.5978 67.4192 64.5618L67.3803 65.0439C59.5371 71.8487 57.3121 77.9859 57.2195 78.264C56.6299 80.0254 56.6652 81.416 57.3141 82.4173C58.0391 83.5484 59.222 83.6781 59.3703 83.6967L59.5557 81.8424C59.5371 81.8424 59.0921 81.7665 58.853 81.3788C58.5562 80.8949 58.5915 80.0068 58.9828 78.8738C59.0014 78.8349 60.0953 75.8163 63.4328 71.7335C64.3598 71.2699 65.3964 71.1791 66.3995 71.4739C67.3638 71.7707 68.1776 72.4215 68.6802 73.2892C69.0492 78.6496 68.2352 81.8018 68.2166 81.8202C67.8625 82.9697 67.3803 83.73 66.8445 83.9339C66.4181 84.1212 66.0268 83.9153 66.0268 83.8969L65.5632 84.711L65.0812 85.5139C65.1572 85.5695 65.7301 85.8846 66.4904 85.8846C66.8056 85.8846 67.1432 85.829 67.4936 85.6807C68.6061 85.2561 69.4608 84.1418 70.0134 82.3618C70.0894 82.0839 71.8118 75.6111 69.2884 65.2462ZM66.8259 70.0486C66.2678 69.8817 65.6745 69.8094 65.1163 69.828C65.9173 68.9547 66.8037 68.0666 67.8067 67.1599C68.0848 68.4559 68.2887 69.6983 68.4371 70.8682C67.9551 70.5122 67.4156 70.2358 66.8259 70.0486Z" fill="#ACB3BA"/>
<path d="M61.002 83.0963C60.8537 83.8417 60.1287 84.3275 59.3833 84.181C58.6416 84.0344 59.1701 81.333 59.9154 81.4795C60.661 81.626 61.1486 82.3509 61.002 83.0963Z" fill="#F8B64C"/>
<path d="M64.0076 84.0235C63.6925 84.7152 63.9929 85.5309 64.6844 85.848C65.376 86.1651 66.5236 83.6639 65.8321 83.3449C65.146 83.0278 64.3266 83.3318 64.0076 84.0235Z" fill="#F8B64C"/>
<path d="M31.3725 57.2734L31.3428 57.2587V56.0497L27.3341 56.8748C23.0566 57.7556 19.4576 60.4849 17.4515 64.3601C15.449 68.239 15.3044 72.7558 17.0602 76.7533L18.7587 76.0079C17.2309 72.5258 17.3494 68.5931 19.0999 65.213C20.8446 61.8385 23.9819 59.4595 27.7051 58.6938L32.2349 57.7612L31.3725 57.2734Z" fill="#ACB3BA"/>
<path d="M64.7661 60.0547L51.0841 78.0029L44.5 64.6715L46.1873 63.7259L57.6275 57.2734H57.6461L57.6645 57.2548L64.7661 60.0547Z" fill="#CDD6E0"/>
<path d="M24.2339 60.0547L37.9382 78.0029L44.5 64.6715L42.8126 63.7259L31.3725 57.2734L31.3355 57.2548L24.2339 60.0547Z" fill="#CDD6E0"/>
<path d="M37.9382 88.8312L41.6817 80.3021L40.0667 77.9287L38.8838 76.1487L43.4784 66.7686L44.5 64.6715L45.5402 66.7686V66.787L50.1385 76.1487L48.9333 77.912L47.3183 80.3021L51.0841 88.8312H37.9382Z" fill="#1DA1F2"/>
<path d="M50.1385 76.1487L48.9333 77.912L44.5186 68.8804L40.0667 77.9287L38.8838 76.1487L43.4784 66.7686L44.5 64.6715L45.5402 66.7686V66.787L50.1385 76.1487Z" fill="#1DA1F2"/>
<path d="M23.4849 79.6569C23.4849 81.9745 21.6011 83.8566 19.2833 83.8566C16.9655 83.8566 15.0855 81.9745 15.0855 79.6569C15.0855 77.3392 16.9656 75.4591 19.2833 75.4591C21.6009 75.4591 23.4849 77.3391 23.4849 79.6569Z" fill="#FF7058"/>
<path d="M22.1054 79.6569C22.1054 81.2144 20.8446 82.4771 19.2871 82.4771C17.7259 82.4771 16.4633 81.2125 16.4633 79.6569C16.4633 78.1013 17.7279 76.8367 19.2871 76.8367C20.8446 76.8367 22.1054 78.0994 22.1054 79.6569Z" fill="#F2F2F2"/>
<path d="M21.2618 79.6569C21.2618 80.7508 20.3774 81.6335 19.289 81.6335C18.1951 81.6335 17.3088 80.7491 17.3088 79.6569C17.3088 78.5667 18.1969 77.6823 19.289 77.6823C20.3774 77.6823 21.2618 78.5667 21.2618 79.6569Z" fill="#ACB3BA"/>
</svg>
