<svg width="150" height="150" viewBox="0 0 150 150" fill="none" xmlns="http://www.w3.org/2000/svg">
<path d="M35.1562 84.375C27.697 84.375 20.5433 87.3382 15.2689 92.6126C9.99441 97.8871 7.03125 105.041 7.03125 112.5C7.03125 119.959 9.99441 127.113 15.2689 132.387C20.5433 137.662 27.697 140.625 35.1562 140.625H75V84.375H35.1562Z" fill="#FF0000"/>
<path d="M114.844 84.375H75V140.625H114.844C122.303 140.625 129.457 137.662 134.731 132.387C140.006 127.113 142.969 119.959 142.969 112.5C142.969 105.041 140.006 97.8871 134.731 92.6126C129.457 87.3382 122.303 84.375 114.844 84.375Z" fill="#47AB6C"/>
<path d="M35.1562 84.375C27.697 84.375 20.5433 87.3382 15.2689 92.6126C9.99441 97.8871 7.03125 105.041 7.03125 112.5C7.03125 119.959 9.99441 127.113 15.2689 132.387C20.5433 137.662 27.697 140.625 35.1562 140.625H75V84.375H35.1562Z" fill="#FF0000"/>
<path d="M75 135.937V140.625H35.1563C28.7555 140.622 22.5468 138.438 17.5551 134.431C12.5633 130.424 9.08687 124.836 7.6995 118.587C6.31212 112.338 7.09676 105.803 9.9239 100.061C12.751 94.3181 17.4517 89.711 23.25 87C19.0553 90.8226 16.1144 95.8243 14.8136 101.348C13.5127 106.873 13.9126 112.661 15.9607 117.954C18.0089 123.246 21.6096 127.796 26.2901 131.006C30.9707 134.215 36.5123 135.934 42.1875 135.937H75Z" fill="#E50000"/>
<path d="M114.844 84.375H75V140.625H114.844C122.303 140.625 129.457 137.662 134.731 132.387C140.006 127.113 142.969 119.959 142.969 112.5C142.969 105.041 140.006 97.8871 134.731 92.6126C129.457 87.3382 122.303 84.375 114.844 84.375Z" fill="white"/>
<path d="M133.758 133.336C128.581 138.036 121.836 140.636 114.844 140.625H75V135.938H121.875C125.978 135.941 130.032 135.053 133.758 133.336Z" fill="white"/>
<path d="M143.016 35.1094C143.015 29.5484 141.367 24.1123 138.278 19.4881C135.189 14.8639 130.798 11.2593 125.661 9.12969C120.524 7.00011 114.871 6.44121 109.416 7.52362C103.962 8.60604 98.9503 11.2812 95.0156 15.211L66.8438 43.4063L107.086 83.6485L134.789 55.9242C139.95 50.2039 142.871 42.8123 143.016 35.1094Z" fill="white"/>
<path d="M73.875 43.4062L70.3594 46.9218L66.8438 43.4062L95.0156 15.2109C98.0456 12.1803 101.728 9.88252 105.782 8.49326C109.836 7.10401 114.154 6.66003 118.406 7.19527C112.212 7.96876 106.454 10.79 102.047 15.2109L73.875 43.4062Z" fill="white"/>
<path d="M38.6484 71.5781C35.0369 75.1833 32.4764 79.7047 31.2422 84.6562H31.3922C32.6391 84.4782 33.8967 84.3842 35.1562 84.375H106.338L107.086 83.6484L66.8437 43.4062L38.6484 71.5781Z" fill="#CC0000"/>
<path d="M70.3594 46.9219L45.6797 71.5781C42.1344 75.1113 39.6012 79.5303 38.3438 84.375H35.1563C33.8936 84.3853 32.633 84.4793 31.3828 84.6562H31.2422C32.4764 79.7047 35.0369 75.1833 38.6484 71.5781L66.8438 43.4062L70.3594 46.9219Z" fill="#B70000"/>
<path d="M114.844 82.0313H111.054L136.446 56.6414C139.318 53.8218 141.603 50.461 143.169 46.7533C144.735 43.0456 145.55 39.0644 145.569 35.0397C145.587 31.015 144.808 27.0264 143.277 23.3045C141.745 19.5826 139.491 16.201 136.645 13.355C133.799 10.5091 130.417 8.2552 126.696 6.72353C122.974 5.19186 118.985 4.41277 114.96 4.43127C110.936 4.44976 106.954 5.26547 103.247 6.83127C99.539 8.39708 96.1783 10.682 93.3586 13.5539L36.9914 69.9211C33.4592 73.4587 30.8514 77.8108 29.3977 82.5938C21.9692 84.0412 15.3453 88.2014 10.8158 94.2644C6.28618 100.327 4.17517 107.859 4.89376 115.393C5.61235 122.927 9.10911 129.924 14.7032 135.021C20.2972 140.119 27.5881 142.952 35.1562 142.969H114.844C122.925 142.969 130.674 139.759 136.388 134.045C142.102 128.331 145.313 120.581 145.313 112.5C145.313 104.419 142.102 96.6694 136.388 90.9554C130.674 85.2414 122.925 82.0313 114.844 82.0313ZM96.6727 16.875C101.54 12.2056 108.043 9.62962 114.788 9.6996C121.533 9.76958 127.981 12.48 132.751 17.2494C137.52 22.0188 140.23 28.4674 140.3 35.212C140.37 41.9566 137.794 48.46 133.125 53.3274L106.617 79.8657L70.1461 43.3946L96.6727 16.875ZM40.3125 73.2375L66.832 46.7086L102.155 82.0313H35.1562C34.9477 82.0313 34.7461 82.0594 34.5375 82.0617C35.8339 78.7538 37.8 75.7496 40.3125 73.2375ZM9.375 112.5C9.38306 105.665 12.1019 99.112 16.9351 94.2788C21.7682 89.4457 28.3211 86.7268 35.1562 86.7188H72.6563V138.281H35.1562C28.3211 138.273 21.7682 135.554 16.9351 130.721C12.1019 125.888 9.38306 119.335 9.375 112.5ZM114.844 138.281H77.3438V86.7188H114.844C121.681 86.7188 128.239 89.435 133.074 94.2699C137.909 99.1049 140.625 105.662 140.625 112.5C140.625 119.338 137.909 125.895 133.074 130.73C128.239 135.565 121.681 138.281 114.844 138.281Z" fill="#373737"/>
</svg>
