<svg width="30" height="30" viewBox="0 0 30 30" fill="none" xmlns="http://www.w3.org/2000/svg">
<rect width="30" height="30" rx="3" fill="#1DA1F2"/>
<path d="M21.4641 10.2834H18.7351L17.8998 8.61262C17.7141 8.24134 17.3243 8 16.8973 8H12.7389C12.3119 8 11.922 8.24134 11.7364 8.61262L10.901 10.2834H8.17203C6.96535 10.2834 6 11.2488 6 12.4369V20.828C6 22.0161 6.96535 23 8.17203 23H21.4827C22.6708 23 23.6547 22.0347 23.6547 20.828V12.4369C23.6361 11.2488 22.6708 10.2834 21.4641 10.2834ZM14.8181 20.401C12.6275 20.401 10.8453 18.6188 10.8453 16.4282C10.8453 14.2376 12.6275 12.4554 14.8181 12.4554C17.0087 12.4554 18.7908 14.2376 18.7908 16.4282C18.7908 18.6188 17.0087 20.401 14.8181 20.401Z" fill="white"/>
<path d="M15.2822 14.0705C15.0223 13.8292 14.5953 13.8292 14.3354 14.0705L13.0359 15.2958C12.7574 15.5557 12.7388 16.0012 12.9987 16.2797C13.2586 16.5582 13.7042 16.5767 13.9827 16.3168L14.1312 16.1683V18.2104C14.1312 18.6002 14.4468 18.8973 14.818 18.8973C15.2079 18.8973 15.5049 18.5817 15.5049 18.2104V16.1683L15.6534 16.3168C15.7834 16.4468 15.9505 16.5025 16.1176 16.5025C16.3032 16.5025 16.4888 16.4282 16.6188 16.2797C16.8787 16.0012 16.8601 15.5557 16.5817 15.2958L15.2822 14.0705Z" fill="white"/>
</svg>
