<svg width="267" height="196" viewBox="0 0 267 196" fill="none" xmlns="http://www.w3.org/2000/svg">
    <path opacity="0.1" d="M18.2475 76.8213H41.2986V108.243H19.9329C19.8784 108.568 19.8239 108.89 19.7626 109.215H41.2986V134.551C41.2623 134.551 41.2259 134.524 41.1919 134.511C40.5861 134.27 39.9804 134.015 39.3747 133.745C39.2452 133.686 39.118 133.625 38.9862 133.568C38.3805 133.282 37.7748 132.979 37.169 132.659C36.9578 132.548 36.7465 132.432 36.5398 132.314C33.177 130.438 30.1207 128.058 27.4766 125.259C27.3971 125.184 27.3244 125.102 27.2494 125.032C26.8814 124.632 26.5203 124.227 26.1704 123.814C26.0387 123.662 25.9115 123.507 25.782 123.36C25.3686 122.855 24.9688 122.333 24.5827 121.808C24.5236 121.729 24.4691 121.652 24.4123 121.581C22.8304 119.392 21.5186 117.02 20.5053 114.517C20.4735 114.442 20.444 114.36 20.4145 114.29C20.101 113.495 19.8171 112.688 19.5717 111.866C19.4673 111.523 19.365 111.185 19.2787 110.828C19.2469 110.726 19.2219 110.621 19.1947 110.519C17.9181 105.488 17.7704 100.259 17.7704 95.0546C17.7704 94.4489 17.7704 93.8432 17.7704 93.2374C17.7886 91.1128 17.8136 88.9905 17.8454 86.8704C17.8575 86.3253 17.8689 85.7778 17.8795 85.2281C17.9113 83.8364 17.9567 82.4418 18.0158 81.044C18.0294 80.6579 18.0476 80.2694 18.068 79.8856C18.0771 79.663 18.0885 79.4403 18.1021 79.2177C18.143 78.4136 18.1914 77.6148 18.2475 76.8213Z" fill="#6C63FF"/>
    <path opacity="0.1" d="M41.2986 41.8357H28.6532C30.7097 38.6204 32.9556 35.5303 35.3791 32.5817C37.2599 30.2738 39.2407 28.025 41.2986 25.858V41.8357Z" fill="#1DA1F2"/>
    <path opacity="0.1" d="M41.2987 42.8034V75.8491H18.3202C18.3202 75.7537 18.3338 75.656 18.3429 75.5606C18.3633 75.2994 18.3838 75.0405 18.4065 74.7792C18.4292 74.4749 18.4588 74.1705 18.4883 73.8706C18.5178 73.5708 18.5473 73.2074 18.5837 72.878C18.62 72.5486 18.6496 72.2147 18.6859 71.8853C18.7222 71.556 18.7586 71.2266 18.7995 70.8995C18.8404 70.5724 18.8767 70.2408 18.9221 69.9137C18.9562 69.6434 18.9903 69.3708 19.0289 69.0982C19.0811 68.7143 19.1357 68.3305 19.1924 67.9488C19.1924 67.8898 19.2106 67.833 19.2197 67.7762C19.6348 64.9829 20.199 62.2138 20.9097 59.4807C21.656 56.6141 22.6088 53.8053 23.7604 51.0762C24.9842 48.2167 26.4176 45.4515 28.049 42.8034H41.2987Z" fill="#1DA1F2"/>
    <path opacity="0.1" d="M46.8047 76.8213V108.243H96.0417V76.8213H46.8047ZM46.8047 109.215V136.201C47.0864 136.257 47.3635 136.314 47.6429 136.362C48.0177 136.435 48.3948 136.5 48.7787 136.557L49.0058 136.589C49.1557 136.614 49.3079 136.634 49.4601 136.653C49.8395 136.707 50.2188 136.748 50.5959 136.784C50.7731 136.803 50.957 136.816 51.1365 136.832L51.5749 136.864C51.8134 136.882 52.0496 136.896 52.2859 136.905C52.4312 136.905 52.5766 136.916 52.7243 136.921C52.8719 136.925 52.9514 136.921 53.0695 136.921H53.4989C53.6942 136.921 53.8896 136.921 54.0826 136.921H54.3325C54.5278 136.921 54.7232 136.921 54.9163 136.902H54.9276C55.0639 136.902 55.1979 136.902 55.3342 136.887C55.3728 136.889 55.4115 136.889 55.4501 136.887C55.5636 136.887 55.6772 136.887 55.7863 136.873C55.812 136.871 55.8378 136.871 55.8635 136.873C56.1156 136.857 56.37 136.837 56.6267 136.814C56.8834 136.791 57.1264 136.764 57.3831 136.737L57.8987 136.673C60.0058 136.378 62.0894 135.935 64.134 135.346C68.7292 134.065 73.22 132.273 77.813 130.962C83.7461 129.27 90.3062 128.437 96.0395 130.497V109.215H46.8047ZM96.0417 41.8357V0.00382898C90.6517 -0.0554734 85.2762 0.57429 80.0458 1.87781C67.5776 5.01021 56.3814 11.8043 46.8047 20.4814V41.8335H49.283V42.8034H46.8047V75.8491H96.0417V42.8034H59.4206V41.8312L96.0417 41.8357ZM159.298 27.7047C156.214 27.5957 153.147 26.6212 150.371 25.1107C145.07 22.2282 140.831 17.7715 136.097 14.0144C126.262 6.18457 114.064 1.45759 101.55 0.285495V41.8357H171.833L172.007 41.6517L159.298 27.7047ZM165.702 26.569L172.491 34.0218V24.6087C170.206 24.8972 168.216 25.5673 165.702 26.5599V26.569ZM172.491 142.901V109.215H158.013C157.976 109.072 157.936 108.927 157.89 108.781C157.933 108.927 157.972 109.072 158.01 109.215H101.55V133.575C102.086 133.972 102.615 134.392 103.14 134.815C103.707 135.278 104.269 135.747 104.828 136.221L105.391 136.687C105.662 136.914 105.936 137.141 106.209 137.357C106.756 137.797 107.306 138.234 107.86 138.665C108.137 138.883 108.416 139.097 108.696 139.308C113.133 142.699 117.813 145.759 122.698 148.464C123.793 149.075 124.899 149.664 126.012 150.238C126.752 150.62 127.498 150.994 128.249 151.361C129.376 151.91 130.512 152.44 131.657 152.951C142.211 157.688 153.372 160.939 164.82 162.609C167.361 162.983 169.914 163.278 172.478 163.495V142.897H172.705L172.491 142.901ZM101.55 42.8034V75.8491H172.491V42.8034H101.55ZM101.55 76.8168V108.243H172.491V76.8213L101.55 76.8168ZM177.997 24.5633V35.0803L186.661 25.5695C183.79 25.0956 180.902 24.7601 177.997 24.5633ZM177.997 76.8213V108.243H246.994V76.8213H177.997ZM246.751 145.393L246.994 109.215H177.997V163.861C182.442 164.045 186.893 163.992 191.331 163.699H191.408C193.528 163.563 195.639 163.369 197.739 163.118H197.787C208.995 161.813 219.955 158.886 230.321 154.427L246.751 145.393ZM260.305 81.9822C260.043 81.3764 259.774 80.7707 259.499 80.165C258.985 79.0292 258.445 77.9253 257.886 76.8236H252.502V108.243H266.111C266.1 99.3432 263.846 90.2572 260.305 81.9822ZM252.502 109.215V140.335C256.335 136.662 259.576 132.457 261.906 127.651C264.712 121.861 265.995 115.596 266.102 109.213L252.502 109.215ZM252.502 67.6649V75.8423H257.382C255.903 73.0313 254.274 70.3016 252.502 67.6649ZM205.71 30.7304C205.351 30.5918 204.99 30.4533 204.628 30.3215C200.82 28.9141 196.929 27.7443 192.976 26.8189L179.715 41.3701L179.456 41.6495L179.626 41.8335H226.823C220.249 37.31 213.162 33.5829 205.71 30.7304ZM228.209 42.8034H178.965L177.997 43.687V75.8491H186.481H246.994V60.2667C241.522 53.6497 235.207 47.7785 228.209 42.8034Z" fill="#1DA1F2"/>
    <path opacity="0.1" d="M41.2987 59.4739V75.8491H18.3202C18.3202 75.7537 18.3338 75.6561 18.3429 75.5607C18.3633 75.2994 18.3838 75.0405 18.4065 74.7793C18.4292 74.4749 18.4588 74.1705 18.4883 73.8707C18.5178 73.5708 18.5473 73.2074 18.5837 72.878C18.62 72.5486 18.6496 72.2147 18.6859 71.8854C18.7222 71.556 18.7586 71.2266 18.7995 70.8995C18.8404 70.5724 18.8767 70.2408 18.9221 69.9137C18.9562 69.6434 18.9903 69.3708 19.0289 69.0982C19.0811 68.7144 19.1357 68.3305 19.1924 67.9489C19.1924 67.8898 19.2106 67.833 19.2197 67.7762C19.6348 64.9829 20.199 62.2138 20.9097 59.4807L41.2987 59.4739Z" fill="#6C63FF"/>
    <path opacity="0.1" d="M18.2475 76.8213H41.2986V108.243H19.9329C19.8784 108.568 19.8239 108.89 19.7626 109.215H41.2986V134.551C41.2623 134.551 41.2259 134.524 41.1919 134.511C40.5861 134.27 39.9804 134.015 39.3747 133.745C39.2452 133.686 39.118 133.625 38.9862 133.568C38.3805 133.282 37.7748 132.979 37.169 132.659C36.9578 132.548 36.7465 132.432 36.5398 132.314C33.177 130.438 30.1207 128.058 27.4766 125.259C27.3971 125.184 27.3244 125.102 27.2494 125.032C26.8814 124.632 26.5203 124.227 26.1704 123.814C26.0387 123.662 25.9115 123.507 25.782 123.36C25.3686 122.855 24.9688 122.333 24.5827 121.808C24.5236 121.729 24.4691 121.652 24.4123 121.581C22.8304 119.392 21.5186 117.02 20.5053 114.517C20.4735 114.442 20.444 114.36 20.4145 114.29C20.101 113.495 19.8171 112.688 19.5717 111.866C19.4673 111.523 19.365 111.185 19.2787 110.828C19.2469 110.726 19.2219 110.621 19.1947 110.519C17.9181 105.488 17.7704 100.259 17.7704 95.0546C17.7704 94.4489 17.7704 93.8432 17.7704 93.2374C17.7886 91.1128 17.8136 88.9905 17.8454 86.8704C17.8575 86.3253 17.8689 85.7778 17.8795 85.2281C17.9113 83.8364 17.9567 82.4418 18.0158 81.044C18.0294 80.6579 18.0476 80.2694 18.068 79.8856C18.0771 79.663 18.0885 79.4403 18.1021 79.2177C18.143 78.4136 18.1914 77.6148 18.2475 76.8213Z" fill="#1DA1F2"/>
    <path opacity="0.1" d="M64.1363 47.5372V75.8491H46.8025V47.5372H49.2739V37.9515H59.4184V47.5372H64.1363Z" fill="#6C63FF"/>
    <path opacity="0.1" d="M64.134 76.819H46.8025V108.241H64.134V76.819Z" fill="#6C63FF"/>
    <path opacity="0.1" d="M46.8047 109.215H64.1363V135.337C62.0919 135.926 60.0082 136.369 57.901 136.662C57.7284 136.687 57.558 136.707 57.3854 136.725C57.131 136.755 56.8788 136.782 56.6267 136.805L55.8658 136.866H55.7885L55.4523 136.884H55.3365C55.2002 136.884 55.0662 136.9 54.9299 136.902H54.9185C54.7232 136.902 54.5301 136.916 54.3348 136.921H54.0849C53.8918 136.921 53.6987 136.921 53.5011 136.921H53.0741H52.7265C52.5789 136.921 52.4335 136.921 52.2859 136.902C52.0527 136.893 51.8164 136.88 51.5772 136.862L51.1388 136.83C50.957 136.816 50.7753 136.798 50.5959 136.78C50.2143 136.746 49.8357 136.703 49.4601 136.65L49.0058 136.587L48.7787 136.555C48.3993 136.498 48.0223 136.435 47.6429 136.362C47.3613 136.312 47.0841 136.255 46.8047 136.196V109.215Z" fill="#6C63FF"/>
    <path opacity="0.1" d="M172.489 44.1936H158.197V75.8469H172.489V44.1936Z" fill="#6C63FF"/>
    <path opacity="0.1" d="M172.491 76.819V108.243H101.55V94.6889H139.336V102.685H158.197V76.819H172.491Z" fill="#6C63FF"/>
    <path opacity="0.1" d="M172.716 142.908C172.641 142.908 172.566 142.908 172.489 142.895V163.508C169.928 163.298 167.377 163.003 164.834 162.625C153.382 160.955 142.217 157.706 131.657 152.971C128.608 151.596 125.622 150.098 122.698 148.476C117.814 145.769 113.135 142.709 108.699 139.319C107.581 138.465 106.48 137.592 105.396 136.7C104.644 136.078 103.899 135.442 103.14 134.826C102.618 134.401 102.088 133.981 101.55 133.581V109.215H158.01C157.97 109.07 157.933 108.927 157.892 108.781C157.935 108.927 157.976 109.07 158.013 109.215H172.491V142.892C172.566 142.895 172.641 142.901 172.716 142.908Z" fill="#6C63FF"/>
    <path opacity="0.1" d="M209.767 41.8357H200.453V38.9418H204.626V30.3215C204.988 30.4548 205.348 30.591 205.707 30.7304V38.9418H209.764L209.767 41.8357Z" fill="#6C63FF"/>
    <path opacity="0.1" d="M232.207 75.8491H186.481C186.486 75.8502 186.49 75.8502 186.495 75.8491H186.475H177.997V44.1958H180.401V67.5922H191.381V53.7361H200.456V42.8034H209.769V53.7429H218.839V67.599H232.209L232.207 75.8491Z" fill="#6C63FF"/>
    <path opacity="0.1" d="M177.997 76.8213V108.243H232.209V76.8213H177.997ZM246.917 145.227L246.994 120.355H232.209V109.224H177.997V163.861C182.442 164.045 186.893 163.992 191.331 163.699H191.408C193.528 163.563 195.639 163.369 197.739 163.118H197.787C208.995 161.813 219.955 158.886 230.321 154.427" fill="#6C63FF"/>
    <path opacity="0.1" d="M253.457 109.215H266.102C265.993 115.596 264.712 121.863 261.907 127.651C259.576 132.459 256.335 136.664 252.503 140.337V120.348H253.457V109.215Z" fill="#6C63FF"/>
    <path opacity="0.1" d="M266.111 108.243H253.457V81.9821H260.305C263.846 90.2572 266.1 99.3432 266.111 108.243Z" fill="#6C63FF"/>
    <path opacity="0.1" d="M172.491 52.9933H164.834V62.9175H172.491V52.9933Z" fill="#6C63FF"/>
    <path opacity="0.1" d="M172.491 73.564H164.834V75.8491H172.491V73.564Z" fill="#6C63FF"/>
    <path opacity="0.1" d="M172.491 76.819H164.834V83.4859H172.491V76.819Z" fill="#6C63FF"/>
    <path opacity="0.1" d="M172.491 94.1347H164.834V104.059H172.491V94.1347Z" fill="#6C63FF"/>
    <path opacity="0.1" d="M172.491 114.705H164.834V124.63H172.491V114.705Z" fill="#6C63FF"/>
    <path opacity="0.1" d="M172.491 142.892C172.566 142.892 172.641 142.892 172.718 142.908C172.643 142.908 172.568 142.908 172.491 142.895V145.2H164.834V135.276H172.491V142.892Z" fill="#6C63FF"/>
    <path opacity="0.1" d="M172.491 155.844V163.508C169.929 163.298 167.377 163.003 164.834 162.625V155.844H172.491Z" fill="#6C63FF"/>
    <path opacity="0.1" d="M134.366 107.514H101.55V108.243H134.366V107.514Z" fill="#6C63FF"/>
    <path opacity="0.1" d="M134.366 109.213H101.55V112.007H134.366V109.213Z" fill="#6C63FF"/>
    <path opacity="0.1" d="M134.366 121.165H101.55V125.659H134.366V121.165Z" fill="#6C63FF"/>
    <path opacity="0.1" d="M134.366 134.817V139.31H108.698C107.581 138.459 106.48 137.585 105.396 136.689C104.642 136.069 103.897 135.433 103.14 134.817H134.366Z" fill="#6C63FF"/>
    <path opacity="0.1" d="M134.366 148.467V152.971H131.657C128.608 151.596 125.622 150.098 122.698 148.476L134.366 148.467Z" fill="#6C63FF"/>
    <path opacity="0.1" d="M197.791 79.8652H191.331V86.3253H197.791V79.8652Z" fill="#6C63FF"/>
    <path opacity="0.1" d="M57.9169 49.7655H51.4568V56.2257H57.9169V49.7655Z" fill="#6C63FF"/>
    <path opacity="0.1" d="M57.9169 64.771H51.4568V71.2312H57.9169V64.771Z" fill="#6C63FF"/>
    <path opacity="0.1" d="M57.9169 79.7765H51.4568V86.2367H57.9169V79.7765Z" fill="#6C63FF"/>
    <path opacity="0.1" d="M57.9169 94.7798H51.4568V101.24H57.9169V94.7798Z" fill="#6C63FF"/>
    <path opacity="0.1" d="M57.9169 109.785H51.4568V116.245H57.9169V109.785Z" fill="#6C63FF"/>
    <path opacity="0.1" d="M57.9169 124.791H51.4568V131.251H57.9169V124.791Z" fill="#6C63FF"/>
    <path opacity="0.1" d="M222.453 79.8652H215.993V86.3253H222.453V79.8652Z" fill="#6C63FF"/>
    <path opacity="0.1" d="M197.791 95.7997H191.331V102.26H197.791V95.7997Z" fill="#6C63FF"/>
    <path opacity="0.1" d="M222.453 95.7997H215.993V102.26H222.453V95.7997Z" fill="#6C63FF"/>
    <path opacity="0.1" d="M197.791 111.732H191.331V118.192H197.791V111.732Z" fill="#6C63FF"/>
    <path opacity="0.1" d="M222.453 111.732H215.993V118.192H222.453V111.732Z" fill="#6C63FF"/>
    <path opacity="0.1" d="M197.791 127.667H191.331V134.127H197.791V127.667Z" fill="#6C63FF"/>
    <path opacity="0.1" d="M222.453 127.667H215.993V134.127H222.453V127.667Z" fill="#6C63FF"/>
    <path opacity="0.1" d="M197.791 143.601H191.331V150.061H197.791V143.601Z" fill="#6C63FF"/>
    <path opacity="0.1" d="M222.453 143.601H215.993V150.061H222.453V143.601Z" fill="#6C63FF"/>
    <path opacity="0.1" d="M191.331 163.699V159.533H197.789V163.106L191.331 163.699Z" fill="#6C63FF"/>
    <path opacity="0.1" d="M19.1924 67.7694V71.4652H41.2987V67.7694H19.1924ZM21.3935 71.2335H19.5763V68.0034H21.3935V71.2335ZM23.5946 71.2335H21.7774V68.0034H23.5946V71.2335ZM25.7911 71.2335H23.9739V68.0034H25.7911V71.2335ZM27.9922 71.2335H26.175V68.0034H27.9922V71.2335ZM30.191 71.2335H28.3738V68.0034H30.191V71.2335ZM32.3921 71.2335H30.5749V68.0034H32.3921V71.2335ZM34.5932 71.2335H32.776V68.0034H34.5932V71.2335ZM36.792 71.2335H34.9748V68.0034H36.792V71.2335ZM38.9908 71.2335H37.1736V68.0034H38.9908V71.2335ZM41.1919 71.2335H39.3747V68.0034H41.1919V71.2335Z" fill="#6C63FF"/>
    <path opacity="0.1" d="M19.1924 78.5272V82.2229H41.2987V78.5272H19.1924ZM21.3935 81.9912H19.5763V78.7612H21.3935V81.9912ZM23.5946 81.9912H21.7774V78.7612H23.5946V81.9912ZM25.7911 81.9912H23.9739V78.7612H25.7911V81.9912ZM27.9922 81.9912H26.175V78.7612H27.9922V81.9912ZM30.191 81.9912H28.3738V78.7612H30.191V81.9912ZM32.3921 81.9912H30.5749V78.7612H32.3921V81.9912ZM34.5932 81.9912H32.776V78.7612H34.5932V81.9912ZM36.792 81.9912H34.9748V78.7612H36.792V81.9912ZM38.9908 81.9912H37.1736V78.7612H38.9908V81.9912ZM41.1919 81.9912H39.3747V78.7612H41.1919V81.9912Z" fill="#6C63FF"/>
    <path opacity="0.1" d="M19.1924 89.2873V92.9808H41.2987V89.2873H19.1924ZM21.3935 92.7468H19.5763V89.5167H21.3935V92.7468ZM23.5946 92.7468H21.7774V89.5167H23.5946V92.7468ZM25.7911 92.7468H23.9739V89.5167H25.7911V92.7468ZM27.9922 92.7468H26.175V89.5167H27.9922V92.7468ZM30.191 92.7468H28.3738V89.5167H30.191V92.7468ZM32.3921 92.7468H30.5749V89.5167H32.3921V92.7468ZM34.5932 92.7468H32.776V89.5167H34.5932V92.7468ZM36.792 92.7468H34.9748V89.5167H36.792V92.7468ZM38.9908 92.7468H37.1736V89.5167H38.9908V92.7468ZM41.1919 92.7468H39.3747V89.5167H41.1919V92.7468Z" fill="#6C63FF"/>
    <path opacity="0.1" d="M19.1924 100.045V103.739H41.2987V100.045H19.1924ZM21.3935 103.507H19.5763V100.272H21.3935V103.507ZM23.5946 103.507H21.7774V100.272H23.5946V103.507ZM25.7911 103.507H23.9739V100.272H25.7911V103.507ZM27.9922 103.507H26.175V100.272H27.9922V103.507ZM30.191 103.507H28.3738V100.272H30.191V103.507ZM32.3921 103.507H30.5749V100.272H32.3921V103.507ZM34.5932 103.507H32.776V100.272H34.5932V103.507ZM36.792 103.507H34.9748V100.272H36.792V103.507ZM38.9908 103.507H37.1736V100.272H38.9908V103.507ZM41.1919 103.507H39.3747V100.272H41.1919V103.507Z" fill="#6C63FF"/>
    <path opacity="0.1" d="M19.2992 110.798C19.3855 111.148 19.4877 111.493 19.5922 111.836V111.032H21.4094V114.26H20.4349C20.4622 114.337 20.4917 114.417 20.5235 114.487H41.3077V110.798H19.2992ZM23.615 114.26H21.7978V111.032H23.615V114.26ZM25.8116 114.26H23.9944V111.032H25.8116V114.26ZM28.0127 114.26H26.1955V111.032H28.0127V114.26ZM30.2115 114.26H28.3943V111.032H30.2115V114.26ZM32.4125 114.26H30.5954V111.032H32.4125V114.26ZM34.6136 114.26H32.7964V111.032H34.6136V114.26ZM36.8124 114.26H34.9952V111.032H36.8124V114.26ZM39.0112 114.26H37.1941V111.032H39.0112V114.26ZM41.2123 114.26H39.3951V111.032H41.2123V114.26Z" fill="#6C63FF"/>
    <path opacity="0.1" d="M24.4191 121.556C24.4782 121.629 24.5327 121.711 24.5895 121.783H25.7911V123.335L26.1795 123.789V121.774H27.9967V125.032H27.2494C27.3221 125.107 27.3925 125.186 27.4766 125.259H41.2941V121.556H24.4191ZM30.2024 125.032H28.3852V121.788H30.2024V125.032ZM32.4034 125.032H30.5862V121.788H32.4034V125.032ZM34.6045 125.032H32.7873V121.788H34.6045V125.032ZM36.8033 125.032H34.9861V121.788H36.8033V125.032ZM39.0021 125.032H37.1849V121.788H39.0021V125.032ZM41.2032 125.032H39.386V121.788H41.2032V125.032Z" fill="#6C63FF"/>
    <path opacity="0.1" d="M36.5466 132.314C36.7556 132.432 36.9669 132.541 37.1781 132.657V132.543H38.9953V133.568C39.1271 133.625 39.252 133.686 39.3815 133.745V132.543H41.1987V134.511C41.2332 134.526 41.2689 134.539 41.3054 134.549V132.314H36.5466Z" fill="#6C63FF"/>
    <path opacity="0.1" d="M172.489 142.892H172.716H172.489ZM157.89 108.781C157.933 108.927 157.972 109.072 158.01 109.215C157.976 109.072 157.936 108.927 157.89 108.781ZM49.283 41.8357V42.8034H59.4297V41.8312L49.283 41.8357ZM172.491 142.892H172.718H172.491ZM157.89 108.781C157.933 108.927 157.972 109.072 158.01 109.215C157.976 109.072 157.936 108.927 157.89 108.781ZM172.489 142.892H172.716H172.489ZM157.89 108.781C157.933 108.927 157.972 109.072 158.01 109.215C157.976 109.072 157.936 108.927 157.89 108.781Z" fill="#6C63FF"/>
    <path opacity="0.1" d="M200.651 196C212.875 196 222.784 194.408 222.784 192.445C222.784 190.482 212.875 188.89 200.651 188.89C188.427 188.89 178.518 190.482 178.518 192.445C178.518 194.408 188.427 196 200.651 196Z" fill="#6C63FF"/>
    <path opacity="0.1" d="M100.828 192.445C113.052 192.445 122.961 190.853 122.961 188.89C122.961 186.927 113.052 185.335 100.828 185.335C88.6038 185.335 78.6943 186.927 78.6943 188.89C78.6943 190.853 88.6038 192.445 100.828 192.445Z" fill="#6C63FF"/>
    <path d="M126.309 94.8911C126.304 94.8686 126.292 94.848 126.275 94.8321C125.937 94.4981 121.621 88.3946 121.621 88.3946C121.621 88.3946 121.394 87.7132 121.026 86.8273C121.144 86.6746 121.232 86.5013 121.287 86.3162C121.307 86.2378 121.321 86.1581 121.33 86.0777C121.33 86.0527 121.348 86.0323 121.355 86.0073C121.434 85.6992 121.426 85.3753 121.333 85.0714C121.307 85.1494 121.276 85.2253 121.239 85.2986C121.154 85.034 121.04 84.7796 120.899 84.5399C120.326 83.5541 119.509 82.7227 118.907 81.7619C117.995 80.269 117.633 78.5049 117.882 76.7736C117.882 76.8622 117.882 76.9531 117.882 77.0417C117.905 76.6983 117.95 76.3569 118.018 76.0195C118.113 75.6356 118.24 75.2602 118.398 74.8974C118.938 73.6594 119.813 72.5805 120.344 71.338C120.523 70.9189 120.658 70.4828 120.749 70.0364C120.936 69.2909 121.004 68.5204 120.951 67.7535C120.951 67.9353 120.921 68.117 120.894 68.2964C120.837 66.4527 120.092 64.697 118.807 63.3741C116.951 61.5092 114.286 60.7846 111.738 60.403C110.667 60.278 109.644 59.8876 108.762 59.2672C107.783 58.6335 106.518 58.4813 105.373 58.6198C104.057 58.7621 102.835 59.3666 101.923 60.3257C100.712 61.6568 100.187 63.5422 98.7743 64.6643C97.918 65.3457 96.8322 65.6638 95.835 66.1271C94.8378 66.5905 93.8952 67.2629 93.5749 68.2578C93.5749 68.2578 93.5749 68.2442 93.5749 68.2374V68.2942L93.5612 68.3305C93.2296 69.5071 93.8702 70.7042 94.2041 71.8786C94.5516 73.0938 94.5743 74.3772 94.5925 75.6334C94.6175 77.1689 94.6402 78.7067 94.6152 80.2445C94.6039 80.8487 94.5834 81.4597 94.538 82.0617C94.0004 82.2242 93.4781 82.434 92.9775 82.6886C92.4687 83.0203 90.5651 85.076 90.5651 85.076L86.8422 99.3001L86.8921 99.3569L86.8422 99.55L87.0307 99.5068C87.5577 100.075 89.1318 101.692 90.8309 102.701L90.9899 105.49C90.9899 105.49 91.1807 108.288 93.7543 109.445C93.8134 110.415 93.9974 114.353 93.1456 115.914C92.5557 117.054 92.2783 118.33 92.3415 119.612C92.3415 119.612 92.639 121.979 92.3006 123.224C92.1028 124.055 92.0881 124.92 92.2574 125.758C92.2574 125.758 92.2574 126.033 92.2574 126.506C92.2574 129.025 92.2869 137.098 92.2574 138.011C92.2143 139.09 92.2574 155.047 92.2574 155.047C92.2574 155.047 92.0462 163.022 91.3693 165.183C90.6923 167.343 90.8627 174.496 90.8627 174.496C90.8627 174.496 90.4379 183.016 91.9394 184.697C91.9394 184.772 91.9258 184.849 91.9235 184.924C91.9235 184.958 91.9235 184.997 91.9235 185.031C91.9053 185.678 92.0303 186.367 92.5868 186.578C93.7225 187.014 95.224 188.322 95.5079 188.697C95.7919 189.072 97.4432 190.006 99.5966 189.756C100.946 189.604 102.303 189.542 103.66 189.569C103.66 189.569 104.51 189.415 104.235 188.359C104.058 187.7 103.395 186.687 102.922 186.021C103.008 186.044 103.092 186.062 103.172 186.078L103.254 186.094H103.317C103.352 186.096 103.387 186.096 103.422 186.094H103.467C103.51 186.097 103.552 186.097 103.594 186.094C104.165 186.04 106.291 187.03 106.67 187.684C107.049 188.338 108.387 188.836 109.396 188.961C109.996 189.033 111.508 188.911 112.778 188.747C113.418 188.681 114.051 188.566 114.673 188.402C114.972 188.288 115.036 187.925 114.95 187.516C114.848 186.997 114.57 186.528 114.164 186.189C113.796 185.928 113.31 185.24 112.951 184.677L112.855 184.524C113.489 183.92 114.634 181.944 114.981 181.535C115.404 181.038 114.3 162.845 114.3 162.845V153.725L115.992 145.093L117.176 140.526L118.191 133.629C118.191 133.629 119.967 125.575 119.42 124.784C119.42 124.768 118.966 116.475 118.489 114.483C118.282 113.595 118.334 111.596 118.457 109.651C118.585 109.524 118.674 109.363 118.715 109.187C118.755 109.011 118.744 108.827 118.684 108.656C118.65 108.54 118.606 108.427 118.552 108.318C118.552 108.284 118.552 108.248 118.552 108.213C119.534 107.762 120.559 107.413 121.612 107.173C123.304 106.841 122.882 105.969 122.882 105.969C122.882 105.969 123.263 105.222 123.515 104.765C123.768 104.309 123.559 100.279 123.515 99.9475C123.5 99.8135 123.395 99.0729 123.275 98.2325C123.818 97.8463 124.524 97.3671 125.294 96.9128C126.759 96.045 126.43 95.1296 126.309 94.8911ZM104.23 152.48C104.23 152.48 102.961 155.72 103.47 156.549C103.978 157.378 103.385 160.456 103.385 160.456L102.961 165.024C102.961 165.024 101.777 173.496 102.2 175.488C102.531 177.051 102.654 181.719 102.693 183.666C102.664 183.677 102.635 183.691 102.609 183.707L102.552 183.736C102.747 182.971 102.665 181.422 101.695 178.305L101.614 165.432C101.614 165.432 101.464 150.563 102.638 148.901C103.813 147.238 104.228 144.414 104.228 144.414C104.228 144.414 103.974 148.487 103.808 149.566C103.642 150.645 104.23 152.48 104.23 152.48ZM101.866 184.477C101.854 184.504 101.841 184.531 101.832 184.556L101.768 184.474C101.801 184.478 101.833 184.478 101.866 184.477Z" fill="url(#paint0_linear)"/>
    <path d="M114.816 189.578C114.159 189.831 110.6 190.26 109.605 190.14C108.61 190.019 107.292 189.515 106.918 188.856C106.543 188.197 104.442 187.202 103.878 187.266C103.647 187.273 103.417 187.241 103.197 187.171C102.808 187.053 102.429 186.907 102.061 186.735C102.01 186.448 102.018 186.154 102.086 185.871C102.099 185.814 102.116 185.758 102.136 185.703C102.269 185.331 102.543 185.025 102.899 184.854L102.981 184.815C103.139 184.747 103.303 184.697 103.472 184.665C105.257 184.322 112.624 185.01 112.624 185.01C112.624 185.01 112.83 185.381 113.114 185.84C113.469 186.407 113.95 187.1 114.314 187.361C114.716 187.706 114.989 188.177 115.088 188.697C115.175 189.099 115.111 189.467 114.816 189.578Z" fill="white"/>
    <path opacity="0.1" d="M114.816 189.578C114.159 189.831 110.602 190.26 109.607 190.14C108.612 190.019 107.295 189.513 106.918 188.856C106.541 188.2 104.444 187.202 103.881 187.266C103.317 187.33 102.063 186.735 102.063 186.735C102.063 186.735 101.868 185.826 102.436 185.206L103.572 186.012C103.572 186.012 106.611 186.955 107.174 187.829C107.738 188.704 108.764 189.192 110.248 189.281C111.356 189.354 113.903 188.922 115.095 188.706C115.175 189.099 115.113 189.467 114.816 189.578Z" fill="black"/>
    <path d="M103.942 190.737C102.602 190.711 101.262 190.774 99.9305 190.925C97.7976 191.175 96.1689 190.244 95.885 189.86C95.601 189.476 94.1314 188.179 93.0024 187.725C92.4505 187.511 92.321 186.816 92.346 186.167C92.346 186.133 92.346 186.094 92.346 186.06C92.3669 185.648 92.4278 185.24 92.5277 184.84L101.366 184.652L102.132 185.69L102.25 185.849L102.715 186.482C102.715 186.482 102.927 186.76 103.204 187.164C103.672 187.845 104.326 188.852 104.501 189.517C104.78 190.582 103.942 190.737 103.942 190.737Z" fill="white"/>
    <path opacity="0.1" d="M103.942 190.737C102.602 190.711 101.262 190.774 99.9305 190.925C97.7999 191.175 96.1689 190.244 95.8873 189.86C95.6056 189.476 94.1314 188.168 93.0024 187.729C92.4505 187.516 92.321 186.821 92.346 186.171C92.9775 186.319 94.304 186.696 94.8242 187.352C95.5056 188.229 96.7254 189.703 98.4586 189.797C99.8578 189.871 103.265 189.622 104.514 189.522C104.782 190.582 103.942 190.737 103.942 190.737Z" fill="black"/>
    <path opacity="0.1" d="M102.89 184.845C102.788 185.603 102.472 185.808 102.245 185.853C102.19 185.864 102.133 185.864 102.077 185.853C102.047 185.851 102.018 185.846 101.989 185.84C101.989 185.84 94.0519 187.593 92.4482 186.173C92.4075 186.137 92.3696 186.097 92.3347 186.055C92.3556 185.644 92.4164 185.235 92.5164 184.836L101.355 184.647L102.12 185.685C102.253 185.312 102.527 185.007 102.883 184.836L102.89 184.845Z" fill="black"/>
    <path opacity="0.1" d="M113.112 185.83C112.935 186.026 112.787 186.137 112.694 186.099C112.276 185.93 108.851 185.347 107.763 185.849C106.675 186.351 102.992 185.93 102.992 185.93C102.992 185.93 102.992 185.494 102.972 184.795C103.13 184.727 103.294 184.676 103.463 184.645C105.248 184.302 112.615 184.99 112.615 184.99C112.615 184.99 112.83 185.372 113.112 185.83Z" fill="black"/>
    <path d="M118.296 134.449L117.292 141.386L116.124 145.984L114.452 154.675V163.874C114.452 163.874 115.538 182.178 115.12 182.678C114.702 183.177 113.114 186.024 112.696 185.858C112.278 185.692 108.853 185.106 107.765 185.606C106.677 186.105 102.995 185.69 102.995 185.69C102.995 185.69 102.911 178.587 102.493 176.581C102.075 174.575 103.245 166.05 103.245 166.05L103.663 161.455C103.663 161.455 104.249 158.361 103.747 157.525C103.245 156.689 104.499 153.437 104.499 153.437C104.499 153.437 103.915 151.594 104.083 150.509C104.251 149.423 104.499 145.327 104.499 145.327C104.499 145.327 104.083 148.171 102.922 149.841C101.761 151.51 101.909 166.473 101.909 166.473L101.991 179.42C104.083 186.276 101.991 185.606 101.991 185.606C101.991 185.606 94.0542 187.361 92.4505 185.94C90.8468 184.518 91.3057 175.568 91.3057 175.568C91.3057 175.568 91.1398 168.381 91.8077 166.209C92.4755 164.038 92.6867 156.013 92.6867 156.013C92.6867 156.013 92.6436 139.964 92.6867 138.881C92.7185 137.972 92.6867 129.838 92.6867 127.296C92.6867 126.824 92.6867 126.544 92.6867 126.544L93.6453 124.164L105.003 122.742H110.436C110.436 122.742 118.614 124.664 119.459 125.493C119.477 125.506 119.492 125.523 119.504 125.543C120.051 126.344 118.296 134.449 118.296 134.449Z" fill="#6C63FF"/>
    <path opacity="0.1" d="M104.505 170.889C104.505 170.889 107.004 176.906 108.183 177.324C109.362 177.742 104.505 170.889 104.505 170.889Z" fill="black"/>
    <path opacity="0.1" d="M105.43 179.747C105.43 179.747 113.866 180.165 113.782 181.085C113.698 182.005 105.43 179.747 105.43 179.747Z" fill="black"/>
    <path opacity="0.1" d="M94.1428 177.342C94.4767 177.658 100.578 178.251 100.076 178.827C99.5739 179.404 94.6448 180.527 94.6448 180.527L94.1428 177.342Z" fill="black"/>
    <path opacity="0.1" d="M93.1411 166.961C93.1411 167.211 94.3949 174.984 94.7311 175.318C95.0673 175.652 97.8226 175.986 97.8226 175.986L93.1411 166.961Z" fill="black"/>
    <path d="M102.238 60.7141C101.041 62.0521 100.523 63.9488 99.1287 65.08C98.2815 65.7614 97.2093 66.0862 96.2235 66.5496C95.2376 67.013 94.2609 67.7194 93.9679 68.7689C93.6408 69.9501 94.2723 71.1562 94.6039 72.3374C94.9469 73.5595 94.9673 74.836 94.9878 76.1149C95.0105 77.6618 95.0355 79.2087 95.0082 80.7556C94.9673 83.1656 94.7674 85.687 93.4886 87.7291C98.1065 89.1987 103.018 89.3986 107.86 89.5872C108.791 89.6535 109.726 89.63 110.652 89.5167C111.455 89.3568 112.248 89.1559 113.03 88.9148C114.576 88.5057 116.169 88.3018 117.769 88.3083C118.466 88.3083 119.177 88.3515 119.849 88.1697C120.522 87.988 121.169 87.5224 121.351 86.85C121.512 86.2458 121.276 85.6029 120.967 85.0601C120.404 84.0697 119.604 83.2429 119 82.2661C118.383 81.2344 118.017 80.0723 117.931 78.8733C117.846 77.6743 118.043 76.4719 118.507 75.363C119.043 74.116 119.906 73.0302 120.433 71.7809C120.973 70.4395 121.116 68.9714 120.847 67.5509C120.577 66.1304 119.905 64.8171 118.911 63.767C117.078 61.8908 114.448 61.1639 111.931 60.7777C110.871 60.6526 109.86 60.2619 108.992 59.642C108.026 59.006 106.775 58.8515 105.643 58.9923C104.338 59.1386 103.13 59.7498 102.238 60.7141Z" fill="#3F3D56"/>
    <g opacity="0.1">
    <path opacity="0.1" d="M118.577 74.0524C118.114 75.1469 117.916 76.3353 117.998 77.521C118.049 76.6731 118.245 75.8403 118.577 75.0587C119.111 73.8116 119.974 72.7258 120.501 71.4765C120.932 70.4333 121.113 69.3039 121.03 68.1783C120.984 68.9672 120.805 69.7428 120.501 70.4725C119.974 71.7218 119.111 72.8053 118.577 74.0524Z" fill="black"/>
    <path opacity="0.1" d="M95.0559 75.806C95.0695 76.6964 95.0831 77.5891 95.0854 78.4795C95.0854 77.2529 95.0741 76.0286 95.0559 74.8042C95.0377 73.5345 95.015 72.2488 94.672 71.0245C94.4448 70.2476 94.1087 69.4594 93.9905 68.6757C93.7884 69.7888 94.3631 70.9177 94.672 72.0285C95.015 73.2414 95.0377 74.5362 95.0559 75.806Z" fill="black"/>
    <path opacity="0.1" d="M119.927 86.8704C119.245 87.0544 118.545 87.0135 117.848 87.009C116.25 86.9988 114.658 87.1989 113.112 87.6041C112.33 87.8442 111.536 88.0444 110.734 88.2038C109.807 88.3189 108.871 88.3432 107.94 88.2765C103.261 88.0925 98.5154 87.8949 94.0337 86.557C93.9006 86.854 93.7489 87.1423 93.5794 87.4201C98.1974 88.8875 103.108 89.0897 107.949 89.2782C108.88 89.345 109.816 89.3206 110.743 89.2055C111.542 89.0476 112.333 88.8482 113.112 88.6081C114.655 88.2014 116.244 87.999 117.839 88.0062C118.536 88.0062 119.245 88.0493 119.917 87.8653C120.59 87.6814 121.237 87.2202 121.419 86.5479C121.495 86.2365 121.488 85.9103 121.396 85.6029C121.194 86.239 120.569 86.6819 119.927 86.8704Z" fill="black"/>
    </g>
    <path d="M113.198 84.1787C113.03 84.5558 112.322 87.8131 112.153 88.147C111.985 88.4809 111.068 93.8258 110.984 94.1256C110.9 94.4254 104.935 92.8717 104.935 92.8717L101.343 89.862L97.6522 86.189C97.6522 86.189 97.5432 82.8749 100.262 81.8118C100.447 81.7392 100.637 81.68 100.83 81.6346C104.128 80.8419 103.797 70.8132 103.797 70.8132L110.566 73.7366C110.566 73.7366 109.312 79.588 109.355 80.7169C109.366 81.0963 109.664 81.3325 110.052 81.4756C110.653 81.6465 111.278 81.7141 111.901 81.6755C111.901 81.6755 113.366 83.8039 113.198 84.1787Z" fill="#E6AE75"/>
    <path d="M125.317 95.1682L126.278 95.4204C126.278 95.4204 126.989 96.5016 125.317 97.5079C124.255 98.1527 123.236 98.8651 122.266 99.6408L117.326 101.145L116.374 98.1575L120.971 94.6685L125.317 95.1682Z" fill="#6C63FF"/>
    <path opacity="0.1" d="M125.317 95.1682L126.278 95.4204C126.278 95.4204 126.989 96.5016 125.317 97.5079C124.255 98.1527 123.236 98.8651 122.266 99.6408L117.326 101.145L116.374 98.1575L120.971 94.6685L125.317 95.1682Z" fill="black"/>
    <path d="M89.2613 98.053L87.3396 99.9338C87.3396 99.9338 90.8059 103.945 93.4726 104.195C96.1394 104.445 97.8589 101.145 97.8589 101.145L95.5511 97.5101L89.2613 98.053Z" fill="#6C63FF"/>
    <path opacity="0.1" d="M89.2613 98.053L87.3396 99.9338C87.3396 99.9338 90.8059 103.945 93.4726 104.195C96.1394 104.445 97.8589 101.145 97.8589 101.145L95.5511 97.5101L89.2613 98.053Z" fill="black"/>
    <path opacity="0.1" d="M107.515 77.3665C111.207 77.3665 114.2 74.3735 114.2 70.6815C114.2 66.9894 111.207 63.9964 107.515 63.9964C103.823 63.9964 100.83 66.9894 100.83 70.6815C100.83 74.3735 103.823 77.3665 107.515 77.3665Z" fill="black"/>
    <path d="M107.515 76.8645C111.207 76.8645 114.2 73.8715 114.2 70.1795C114.2 66.4874 111.207 63.4945 107.515 63.4945C103.823 63.4945 100.83 66.4874 100.83 70.1795C100.83 73.8715 103.823 76.8645 107.515 76.8645Z" fill="#E6AE75"/>
    <path opacity="0.1" d="M119.509 126.301C117.986 126.476 116.487 126.811 115.036 127.303C112.537 128.134 92.957 127.317 92.6844 127.303C92.6844 126.831 92.6844 126.551 92.6844 126.551L93.643 124.171L105.001 122.749H110.434C110.434 122.749 118.611 124.67 119.456 125.5C119.49 125.999 119.509 126.301 119.509 126.301Z" fill="black"/>
    <path opacity="0.1" d="M113.198 84.1787C113.03 84.5558 112.322 87.8131 112.153 88.147C111.985 88.4809 111.068 93.8257 110.984 94.1256C110.9 94.4254 104.935 92.8717 104.935 92.8717L101.343 89.862L97.6522 86.189C97.6522 86.189 97.5432 82.8749 100.262 81.8118L107.013 89.5735L110.052 81.4756C110.653 81.6465 111.278 81.7141 111.901 81.6755C111.901 81.6755 113.366 83.8039 113.198 84.1787Z" fill="black"/>
    <path d="M107.013 89.8234L100.103 81.8731C99.6987 81.6149 99.2364 81.4613 98.7578 81.426C98.2792 81.3907 97.7994 81.4749 97.3614 81.671C95.8145 82.341 93.8929 82.8839 93.3909 83.2178C92.8889 83.5518 91.0081 85.6188 91.0081 85.6188L96.6096 100.272L94.1427 109.924C94.1427 109.924 94.5198 114.855 93.559 116.652C92.9739 117.801 92.6998 119.083 92.7639 120.37C92.7639 120.37 93.0569 122.753 92.723 124.005C92.5279 124.842 92.5132 125.711 92.6799 126.553C92.6799 126.553 112.53 127.389 115.036 126.553C116.487 126.06 117.986 125.725 119.509 125.552C119.509 125.552 119.054 117.193 118.6 115.187C118.146 113.181 118.977 105.535 118.977 105.535L118.434 97.3443L121.691 88.9397C121.691 88.9397 119.926 83.5518 118.087 83.0089C118.087 83.0089 114.745 82.2138 114.034 81.839C113.323 81.4642 111.233 81.1281 111.233 81.1281L110.136 81.496L107.013 89.8234Z" fill="#6C63FF"/>
    <path opacity="0.1" d="M116.654 97.0677L102.113 96.079C101.746 96.054 101.427 96.332 101.402 96.7L99.8409 119.657C99.8158 120.025 100.094 120.344 100.462 120.369L115.002 121.358C115.37 121.383 115.689 121.105 115.714 120.737L117.275 97.7793C117.3 97.4113 117.022 97.0928 116.654 97.0677Z" fill="black"/>
    <path d="M117.155 96.5691L102.614 95.5804C102.246 95.5554 101.928 95.8334 101.903 96.2014L100.342 119.159C100.317 119.527 100.595 119.845 100.963 119.87L115.503 120.859C115.871 120.884 116.189 120.606 116.214 120.238L117.775 97.2807C117.801 96.9127 117.522 96.5941 117.155 96.5691Z" fill="#3F3D56"/>
    <path d="M116.675 98.3687L102.846 97.4283L101.425 118.328L115.254 119.268L116.675 98.3687Z" fill="white"/>
    <path opacity="0.1" d="M115.435 103.703L104.139 102.912L103.918 106.061L115.214 106.851L115.435 103.703Z" fill="black"/>
    <path opacity="0.1" d="M115.026 116.214L113.233 116.092L113.122 117.733L114.914 117.855L115.026 116.214Z" fill="black"/>
    <path opacity="0.1" d="M113.258 112.254L104.082 111.63L103.97 113.271L113.146 113.895L113.258 112.254Z" fill="black"/>
    <path d="M114.963 97.5872L105.409 96.9375L105.237 99.4599L114.792 100.11L114.963 97.5872Z" fill="#3F3D56"/>
    <path opacity="0.1" d="M114.963 97.5872L105.409 96.9375L105.237 99.4599L114.792 100.11L114.963 97.5872Z" fill="black"/>
    <path opacity="0.1" d="M107.849 125.84C107.849 125.84 107.765 138.211 104.505 145.314C104.505 145.314 108.435 135.953 108.435 135.578C108.435 135.203 110.607 131.274 110.025 130.104C109.444 128.934 107.849 125.84 107.849 125.84Z" fill="black"/>
    <path opacity="0.1" d="M108.026 68.5077C107.901 67.4127 108.169 66.3091 108.783 65.3934C108.71 66.3112 108.969 67.2246 109.514 67.9668C110.058 68.7091 110.852 69.2308 111.749 69.4367C111.673 69.3702 111.618 69.2821 111.592 69.184C111.567 69.0859 111.572 68.9823 111.606 68.887C112.072 69.414 112.428 70.0386 112.955 70.502C113.482 70.9654 114.273 71.2425 114.893 70.9132C115.736 70.4589 115.745 69.2618 115.527 68.3305C115.059 66.3471 114.099 64.5136 112.735 62.9993C112.395 62.5415 111.953 62.1688 111.445 61.9102C110.936 61.6517 110.375 61.5144 109.805 61.5092C108.515 61.4092 107.174 61.5228 106.018 62.102C105.368 62.4571 104.758 62.8829 104.201 63.3718L101.021 65.9658C100.715 66.1863 100.453 66.4621 100.249 66.779C100.112 67.044 100.03 67.3337 100.008 67.6308C99.9265 68.4804 100.084 69.3358 100.462 70.101C100.84 70.8662 101.423 71.5108 102.148 71.9626C102.132 71.2911 102.317 70.6303 102.678 70.064C103.039 69.4978 103.561 69.0517 104.176 68.7825C104.272 68.8631 104.35 68.9634 104.405 69.0766C104.459 69.1898 104.489 69.3134 104.492 69.439L105.162 68.2442C105.261 68.0267 105.419 67.8406 105.616 67.7058C106.03 67.4787 106.545 67.7467 106.897 68.067C107.249 68.3873 107.592 68.787 108.065 68.837L108.083 67.0584" fill="black"/>
    <path d="M108.026 68.2578C107.901 67.1621 108.169 66.0576 108.783 65.1413C108.578 66.9585 109.948 68.8348 111.751 69.1846C111.675 69.1187 111.62 69.031 111.594 68.9332C111.569 68.8354 111.574 68.7321 111.608 68.6371C112.074 69.1641 112.431 69.7865 112.958 70.2522C113.485 70.7178 114.275 70.9927 114.895 70.661C115.738 70.2067 115.747 69.0097 115.529 68.0806C115.061 66.0973 114.101 64.2638 112.737 62.7494C112.314 62.2337 111.781 61.8192 111.177 61.5364C110.739 61.3747 110.28 61.2812 109.814 61.2593C108.524 61.1594 107.183 61.2707 106.027 61.8499C105.377 62.2065 104.768 62.6331 104.21 63.1219L101.03 65.716C100.723 65.9359 100.461 66.2118 100.258 66.5292C100.121 66.794 100.039 67.0838 100.017 67.381C99.9358 68.2302 100.093 69.0852 100.471 69.85C100.849 70.6148 101.433 71.2591 102.157 71.7105C102.142 71.0391 102.327 70.3785 102.688 69.8124C103.049 69.2463 103.57 68.8001 104.185 68.5304C104.281 68.6113 104.359 68.7116 104.413 68.8247C104.468 68.9379 104.498 69.0613 104.501 69.1868L105.169 67.9966C105.268 67.7788 105.425 67.5925 105.623 67.4582C106.036 67.2311 106.552 67.4991 106.904 67.8194C107.256 68.1397 107.599 68.5372 108.072 68.5894L108.09 66.8086" fill="#3F3D56"/>
    <path d="M111.193 110.424C110.609 110.128 100.955 111.634 100.955 111.634C100.955 111.634 99.3649 111.18 95.5216 110.549C91.6782 109.917 91.4329 106.16 91.4329 106.16L91.0126 98.6391L92.3097 97.5033L97.8657 101.138C97.8657 101.138 97.9521 102.975 97.8657 103.307C97.8112 103.534 97.6659 103.804 97.6795 103.988C97.6837 104.038 97.7042 104.085 97.7379 104.122C97.7716 104.159 97.8165 104.184 97.8657 104.193C98.2428 104.288 103.381 105.12 103.381 105.12C103.381 105.12 115.29 104.304 118.259 108.316C118.494 108.61 118.672 108.946 118.784 109.306C119.52 112.048 111.722 110.685 111.193 110.424Z" fill="#E6AE75"/>
    <path opacity="0.1" d="M118.791 109.322C118.337 109.524 118.055 109.669 118.055 109.669C118.055 109.669 113.794 109.545 111.399 108.677C109.005 107.809 106.095 107.964 106.095 107.964C106.095 107.964 96.119 106.246 97.6659 104.004C97.6701 104.054 97.6906 104.101 97.7243 104.138C97.758 104.175 97.8029 104.2 97.8521 104.209C98.2292 104.304 103.367 105.136 103.367 105.136C103.367 105.136 115.277 104.32 118.246 108.332C118.488 108.624 118.673 108.96 118.791 109.322Z" fill="black"/>
    <path d="M122.934 96.0882C122.934 96.0882 123.52 100.225 123.561 100.561C123.602 100.897 123.813 104.947 123.561 105.408C123.309 105.869 122.934 106.619 122.934 106.619C122.934 106.619 123.352 107.496 121.68 107.832C120.008 108.168 118.046 109.167 118.046 109.167C118.046 109.167 113.782 109.043 111.402 108.166C109.021 107.289 106.095 107.455 106.095 107.455C106.095 107.455 93.4318 105.281 98.8652 102.628C104.299 99.9747 108.142 103.568 108.142 103.568L114.2 103.193C114.2 103.193 116.458 101.812 117.085 101.94C117.528 101.996 117.977 101.923 118.38 101.731L118.423 97.342L122.934 96.0882Z" fill="#E6AE75"/>
    <path opacity="0.1" d="M92.2142 85.9346L91.0013 85.871L87.326 100.181C87.326 100.181 91.2943 99.1774 93.0047 100.181C94.7152 101.185 97.8521 101.392 97.8521 101.392L96.6823 89.9847L92.2142 85.9346Z" fill="black"/>
    <path d="M92.2142 85.6824L91.0013 85.6188L87.326 99.9293C87.326 99.9293 91.2943 98.9253 93.0047 99.9293C94.7152 100.933 97.8521 101.14 97.8521 101.14L96.6823 89.7325L92.2142 85.6824Z" fill="#6C63FF"/>
    <path opacity="0.1" d="M120.011 88.8171L121.68 89.1942C121.68 89.1942 125.944 95.3272 126.278 95.6702C126.612 96.0132 124.688 97.2603 123.895 97.2603C123.102 97.2603 119.216 97.7146 118.087 98.764C116.958 99.8134 117.428 94.5322 117.428 94.4118C117.428 94.2914 118.829 90.9591 118.829 90.9591L120.011 88.8171Z" fill="black"/>
    <path d="M120.011 88.5672L121.68 88.942C121.68 88.942 125.944 95.0864 126.278 95.4203C126.612 95.7542 124.688 97.0104 123.895 97.0104C123.102 97.0104 119.216 97.4647 118.087 98.5141C116.958 99.5635 117.428 94.2823 117.428 94.1619C117.428 94.0415 118.838 90.6979 118.838 90.6979L120.011 88.5672Z" fill="#6C63FF"/>
    <g opacity="0.1">
    <path opacity="0.1" d="M108.771 65.1617C108.761 64.9876 108.765 64.8129 108.783 64.6393C108.437 65.1583 108.199 65.7415 108.083 66.3543V66.8813C108.083 66.8813 108.083 66.8699 108.083 66.8631V66.988C108.083 67.356 108.083 67.7263 108.072 68.0942H108.04V68.2646C108.04 68.2055 108.04 68.1488 108.028 68.0897C107.574 68.017 107.249 67.6354 106.911 67.331C106.572 67.0266 106.043 66.7359 105.63 66.9699C105.432 67.1041 105.275 67.2904 105.175 67.5082L104.501 68.6985C104.498 68.5732 104.468 68.4501 104.414 68.3372C104.359 68.2244 104.281 68.1245 104.185 68.0443C103.57 68.3135 103.048 68.7595 102.687 69.3258C102.326 69.8921 102.141 70.5529 102.157 71.2244C101.536 70.8355 101.017 70.3045 100.642 69.6753C100.267 69.0461 100.047 68.3368 100.001 67.6059C99.9615 68.422 100.14 69.2339 100.519 69.9578C100.898 70.6817 101.463 71.2915 102.157 71.7241C102.142 71.0528 102.327 70.3922 102.688 69.826C103.049 69.2599 103.57 68.8137 104.185 68.544C104.281 68.6249 104.359 68.7252 104.413 68.8384C104.468 68.9515 104.498 69.0749 104.501 69.2005L105.169 68.0102C105.268 67.7924 105.425 67.6061 105.623 67.4719C106.036 67.2447 106.552 67.5127 106.904 67.833C107.256 68.1533 107.599 68.5508 108.072 68.6031C108.072 68.0216 108.078 67.4416 108.09 66.8631C108.201 66.2562 108.433 65.6777 108.771 65.1617Z" fill="black"/>
    <path opacity="0.1" d="M108.003 67.4491C108.015 67.2946 108.033 67.1401 108.056 66.9948L108.081 66.3678C108.012 66.7239 107.986 67.0869 108.003 67.4491Z" fill="black"/>
    <path opacity="0.1" d="M114.895 70.1589C114.275 70.4905 113.485 70.2134 112.958 69.75C112.431 69.2867 112.074 68.662 111.608 68.135C111.574 68.2304 111.569 68.3339 111.595 68.432C111.62 68.5302 111.675 68.6183 111.751 68.6847C111.706 68.6847 111.663 68.662 111.62 68.6506C112.074 69.1731 112.435 69.7864 112.958 70.2407C113.48 70.695 114.275 70.9812 114.895 70.6496C115.515 70.3179 115.692 69.5411 115.638 68.7847C115.597 69.3798 115.384 69.8954 114.895 70.1589Z" fill="black"/>
    <path opacity="0.1" d="M111.606 68.6461C110.846 68.4391 110.168 68.0048 109.662 67.4015C109.157 66.7983 108.847 66.0547 108.776 65.2707C108.646 67.0538 109.991 68.8415 111.751 69.1845C111.676 69.1193 111.623 69.0333 111.597 68.9375C111.571 68.8416 111.574 68.7401 111.606 68.6461Z" fill="black"/>
    </g>
    <path d="M220.692 105.772C220.692 105.772 219.797 105.647 219.797 104.345C219.797 103.043 219.157 100.606 219.157 100.606C219.157 100.606 218.603 96.3653 217.837 95.6929C217.072 95.0205 216.088 91.0727 216.088 91.0727C216.088 91.0727 215.92 88.9307 215.577 88.4696C215.234 88.0084 214.771 86.8795 214.087 85.269C213.403 83.6585 210.559 82.5546 210.559 82.5546C210.559 82.5546 205.405 79.5653 203.945 78.5908C203.811 78.51 203.686 78.4157 203.572 78.3091C203.318 77.9775 202.209 77.9707 202.209 77.9707C202.093 77.237 201.982 76.3965 201.946 75.6356C201.946 75.5538 201.946 75.472 201.946 75.3903C203.574 74.4276 204.801 72.9097 205.401 71.1153C205.428 71.029 205.451 70.9404 205.476 70.8518C205.575 70.8211 205.667 70.7695 205.746 70.7006C205.824 70.6317 205.887 70.547 205.93 70.452C206.059 70.159 206.064 69.8183 206.228 69.5434C206.418 69.2209 206.782 69.0482 207.068 68.8075C207.79 68.1919 207.977 67.1584 207.943 66.2202C207.92 65.457 207.797 64.6892 207.845 63.9328C207.845 63.8692 207.845 63.8056 207.858 63.742C207.872 63.6307 207.888 63.5149 207.908 63.4058C208.02 62.8425 208.263 62.311 208.399 61.7522C208.535 61.1934 208.549 60.5642 208.231 60.0826C207.765 59.3762 206.795 59.2354 205.944 59.174C204.978 59.0923 204.126 59.1968 203.497 58.3949C203.209 57.9761 202.883 57.5839 202.525 57.2228C202.398 57.1047 201.162 56.3483 201.162 56.3006C199.953 55.7385 198.581 55.6328 197.301 56.003C196.658 56.1893 196.056 56.4937 195.404 56.6459C194.005 56.9775 192.392 56.6186 191.202 57.4205C190.538 57.8747 190.141 58.5994 189.768 59.3012C189.465 59.8797 189.158 60.459 188.846 61.0389C188.342 61.9907 187.833 62.9584 187.622 64.0123C187.578 64.2425 187.549 64.4756 187.538 64.7097C187.538 64.7937 187.538 64.8778 187.538 64.9618C187.538 64.9982 187.538 65.0345 187.538 65.0709C187.538 65.1481 187.538 65.2253 187.551 65.298C187.565 65.3707 187.551 65.3911 187.567 65.4388C187.583 65.4865 187.588 65.5933 187.601 65.666C187.615 65.7387 187.642 65.8681 187.669 65.9658C187.669 66.009 187.697 66.0499 187.71 66.093C187.724 66.1362 187.76 66.2452 187.79 66.3202C187.819 66.3951 187.822 66.3997 187.84 66.4383C187.874 66.5178 187.915 66.595 187.956 66.6654C187.974 66.695 187.987 66.7245 188.006 66.754C188.068 66.8604 188.138 66.9621 188.215 67.0584C188.698 67.6649 189.416 68.0511 189.945 68.6189C189.945 68.6416 189.945 68.6644 189.945 68.6871C189.945 68.7484 189.945 68.8097 189.945 68.8733C189.978 70.1399 190.319 71.3794 190.94 72.484C191.561 73.5885 192.442 74.5246 193.507 75.2108C193.507 75.2971 193.519 75.3857 193.523 75.4743C193.567 76.1478 193.559 76.8237 193.498 77.4959C193.405 77.3873 193.29 77.3007 193.159 77.2425C193.029 77.1843 192.887 77.1561 192.744 77.1598C192.646 77.1549 192.549 77.1633 192.453 77.1847L192.433 77.1688V77.1893C191.933 77.312 191.317 77.8321 190.729 79.3109C190.729 79.3109 188.939 81.328 187.576 81.2439C186.213 81.1599 182.763 83.3451 182.763 83.3451C182.763 83.3451 179.397 85.528 178.674 87.754C178.27 89.0166 177.786 90.2519 177.223 91.452L173.05 100.02L172.285 106.835C172.285 106.835 172.709 109.858 172.625 110.321C172.541 110.785 174.372 114.942 174.372 114.942C174.372 114.942 180.421 125.568 182.892 126.113L183.07 125.99C183.176 126.044 183.288 126.085 183.404 126.113L183.912 125.756C183.944 126.155 183.93 126.557 183.871 126.953C183.533 128.005 184.001 134.851 184.596 136.194C185.191 137.536 184.98 155.14 184.98 155.14L184.896 156.692C184.896 156.692 184.896 156.742 184.916 156.828L184.896 157.196L184.957 157.228C185.021 157.721 185 158.222 184.896 158.709C184.682 159.39 184.596 161.314 184.596 161.314C184.596 161.314 182.892 172.19 183.701 174.375C184.51 176.56 185.193 178.955 185.193 178.955C185.193 178.955 186.045 181.68 185.234 182.135C184.423 182.589 182.127 183.395 182.595 184.529C183.026 185.578 184.664 188.39 184.907 188.802L184.887 189.029L184.553 192.647C184.607 193.125 184.737 193.591 184.937 194.028C185.303 194.819 186.011 195.634 187.365 195.546C187.592 195.53 187.853 195.505 188.11 195.471C190.584 195.137 193.628 194.033 193.628 194.033C193.47 193.933 193.325 193.813 193.198 193.676C193.077 193.558 192.98 193.417 192.915 193.261C192.85 193.105 192.817 192.937 192.819 192.768C192.855 192.107 191.622 188.97 191.313 188.195L191.242 188.022C191.242 188.022 194.055 185.081 193.587 182.478C193.587 182.478 190.475 180.661 191.499 179.661C192.524 178.662 194.354 175.8 194.354 175.8C194.354 175.8 194.438 165.089 194.354 163.493C194.267 162.382 194.319 161.265 194.511 160.167C194.545 160.004 194.586 159.842 194.629 159.681C196.047 159.895 197.479 160.004 198.913 160.006C199.437 160.006 199.967 159.995 200.503 159.974C200.503 160.125 200.51 160.289 200.524 160.465C200.642 163.118 200.862 167.772 201.042 169.501C201.296 171.977 202.702 178.657 202.702 178.657C202.702 178.657 200.02 180.377 203.17 184.622C203.17 184.622 203.17 186.158 202.961 186.382C202.738 187.111 202.558 187.852 202.423 188.602C202.291 189.399 202.237 190.21 202.45 190.628C202.961 191.632 206.028 191.55 206.028 191.55C206.052 191.544 206.077 191.541 206.103 191.539C206.681 191.478 207.267 191.532 207.824 191.7C208.381 191.868 208.9 192.145 209.349 192.515C210.514 193.451 214.934 193.042 217.331 192.743C218.269 192.622 218.896 192.515 218.896 192.515C218.926 192.409 218.937 192.298 218.927 192.188C218.902 191.6 218.441 190.31 215.316 189.158C215.316 189.158 212.376 187.182 212.417 185.46H212.351H212.013C212.227 185.453 212.376 185.453 212.376 185.453C212.376 185.453 211.225 181.253 211.695 180.91C212.165 180.567 210.757 175.913 210.757 175.913C210.757 175.913 209.951 168.099 209.905 167.554C209.908 167.084 209.98 166.617 210.119 166.168L209.905 161.882C209.905 161.882 209.864 160.458 209.905 159.994C209.901 159.592 209.869 159.191 209.81 158.793C209.789 158.634 209.769 158.468 209.746 158.304C210.848 158.025 211.563 157.768 211.563 157.768L211.436 142.856C212.372 141.039 212.545 137.05 212.54 134.224C212.54 132.407 212.458 131.062 212.458 131.062L213.737 128.975C213.737 128.975 214.032 126.476 213.564 125.929C213.358 125.681 213.451 125.425 213.621 125.213C213.711 125.14 213.806 125.073 213.905 125.013C213.894 124.998 213.884 124.981 213.876 124.963C213.965 124.889 214.06 124.821 214.16 124.761C214.16 124.761 213.705 124.057 214.112 123.76C214.494 124.018 214.834 124.225 215.093 124.373C215.075 124.539 215.057 124.634 215.057 124.634L215.166 124.407C215.416 124.548 215.568 124.634 215.568 124.634C215.568 124.634 217.571 120.643 217.528 120.057C217.485 119.471 218.891 116.99 218.891 116.99C218.891 116.99 219.061 115.687 219.829 115.141C220.597 114.596 220.424 110.646 220.424 110.646C220.424 110.646 220.638 108.588 221.149 107.75C221.66 106.912 220.692 105.772 220.692 105.772ZM182.359 104.02L182.397 104.972C182.17 104.606 182.007 104.345 182.007 104.345L182.359 104.02Z" fill="url(#paint1_linear)"/>
    <path d="M215.686 122.908L215.195 124.998C215.195 124.998 211.266 122.987 210.559 120.443C209.853 117.899 211.743 116.929 211.743 116.929L215.407 118.478L215.686 122.908Z" fill="white"/>
    <path opacity="0.1" d="M215.686 122.908L215.195 124.998C215.195 124.998 211.266 122.987 210.559 120.443C209.853 117.899 211.743 116.929 211.743 116.929L215.407 118.478L215.686 122.908Z" fill="black"/>
    <path d="M193.632 194.031C193.632 194.031 189.998 195.366 187.499 195.534C186.172 195.623 185.475 194.81 185.116 194.026C184.921 193.594 184.794 193.134 184.739 192.663L185.069 189.063L185.241 187.148L190.55 185.767L191.301 188.068L191.372 188.241C191.672 189.011 192.885 192.132 192.848 192.784C192.845 192.952 192.877 193.12 192.94 193.276C193.004 193.432 193.099 193.574 193.219 193.692C193.342 193.822 193.48 193.936 193.632 194.031Z" fill="white"/>
    <path d="M218.446 192.2C218.455 192.31 218.445 192.421 218.414 192.527C218.414 192.527 210.641 193.822 209.051 192.527C208.604 192.149 208.083 191.868 207.521 191.702C206.96 191.537 206.37 191.49 205.789 191.566C205.789 191.566 202.782 191.648 202.28 190.657C202.071 190.242 202.125 189.435 202.255 188.643C202.387 187.897 202.563 187.16 202.782 186.435L202.902 186.339L203.618 185.765L211.995 185.517H212.058C212.018 187.23 214.9 189.195 214.9 189.195C217.969 190.33 218.421 191.614 218.446 192.2Z" fill="white"/>
    <path opacity="0.1" d="M218.448 192.2C218.456 192.31 218.445 192.421 218.414 192.527C218.414 192.527 210.641 193.822 209.053 192.527C208.606 192.148 208.085 191.867 207.523 191.702C206.961 191.536 206.37 191.49 205.789 191.566C205.789 191.566 202.779 191.648 202.277 190.657C202.071 190.242 202.123 189.435 202.252 188.64C203.411 188.756 205.239 189.045 205.957 189.735C207.043 190.78 208.883 191.825 210.01 191.909C210.9 191.964 216.195 192.132 218.448 192.2Z" fill="black"/>
    <path opacity="0.1" d="M193.632 194.031C193.632 194.031 189.998 195.366 187.499 195.534C186.172 195.623 185.475 194.81 185.116 194.026C186.043 194.337 187.326 194.662 188.001 194.364C188.801 194.008 191.635 193.781 193.225 193.683C193.345 193.816 193.482 193.933 193.632 194.031Z" fill="black"/>
    <path d="M199.025 86.3866C196.026 85.2213 192.169 81.3711 193.132 79.5721C193.345 79.1178 193.472 78.628 193.507 78.1275C193.569 77.4477 193.578 76.7642 193.534 76.0831C193.467 74.9668 193.333 73.8556 193.132 72.7554C193.132 72.7554 202.493 72.9666 201.948 74.3454C201.789 74.752 201.762 75.4539 201.807 76.2376C201.853 77.0212 201.964 77.9139 202.082 78.6658C202.243 79.6948 202.409 80.483 202.409 80.483C202.409 80.483 201.834 81.2848 201.501 81.328C201.167 81.3712 203.327 88.0562 199.025 86.3866Z" fill="#BE7C5E"/>
    <path opacity="0.1" d="M191.363 188.229L191.292 188.306C188.494 184.922 185.109 189.142 185.109 189.142L185.059 189.051L185.232 187.137L190.541 185.756L191.292 188.057L191.363 188.229Z" fill="black"/>
    <path opacity="0.1" d="M212.063 185.756C212.063 185.756 210.019 185.715 208.928 186.678C207.838 187.641 202.568 186.884 202.795 186.678C202.862 186.573 202.902 186.454 202.913 186.33L203.629 185.756L212.006 185.508C212.038 185.667 212.063 185.756 212.063 185.756Z" fill="black"/>
    <path d="M194.845 159.177C194.693 159.553 194.577 159.943 194.5 160.342C194.31 161.434 194.258 162.545 194.343 163.649C194.427 165.239 194.343 175.895 194.343 175.895C194.343 175.895 192.546 178.737 191.542 179.738C190.538 180.74 193.587 182.539 193.587 182.539C194.041 185.131 191.288 188.057 191.288 188.057C188.489 184.672 185.105 188.89 185.105 188.89C185.105 188.89 183.265 185.71 182.806 184.574C182.347 183.439 184.603 182.655 185.396 182.192C186.188 181.728 185.355 179.011 185.355 179.011C185.355 179.011 184.687 176.629 183.892 174.455C183.097 172.281 184.769 161.462 184.769 161.462C184.769 161.462 184.855 159.538 185.062 158.868C185.165 158.384 185.186 157.886 185.123 157.396C185.109 157.23 185.093 157.094 185.082 156.998C185.071 156.903 185.062 156.862 185.062 156.862L185.093 156.808L186.229 154.691C186.229 154.691 195.39 157.843 194.845 159.177Z" fill="#6C63FF"/>
    <path d="M212.063 185.506C212.063 185.506 210.019 185.463 208.928 186.414C207.838 187.366 202.568 186.623 202.795 186.414C203.022 186.205 203.002 184.661 203.002 184.661C199.911 180.438 202.548 178.725 202.548 178.725C202.548 178.725 201.169 172.081 200.919 169.617C200.744 167.897 200.528 163.256 200.413 160.628C200.363 159.492 200.333 158.709 200.333 158.709L202.836 158.211L203.161 158.148L209.253 156.923C209.253 156.923 209.421 158.059 209.535 158.988C209.592 159.385 209.623 159.785 209.628 160.185C209.589 160.64 209.628 162.064 209.628 162.064L209.837 166.325C209.702 166.772 209.632 167.237 209.628 167.704C209.671 168.249 210.464 176.02 210.464 176.02C210.464 176.02 211.843 180.658 211.372 180.992C210.902 181.326 212.063 185.506 212.063 185.506Z" fill="#6C63FF"/>
    <path opacity="0.1" d="M201.948 74.3522C201.789 74.7588 201.762 75.4607 201.807 76.2444C200.553 76.9994 199.112 77.3855 197.649 77.3581C196.185 77.3308 194.759 76.8912 193.534 76.0899C193.467 74.9737 193.333 73.8624 193.132 72.7622C193.132 72.7622 202.493 72.9734 201.948 74.3522Z" fill="black"/>
    <path d="M205.562 69.3367C205.587 71.3977 204.792 73.384 203.352 74.8588C201.912 76.3336 199.945 77.176 197.884 77.2007C195.823 77.2254 193.837 76.4304 192.362 74.9905C190.887 73.5507 190.045 71.584 190.02 69.523C190.02 69.4594 190.02 69.4003 190.02 69.3367C190.02 67.2752 190.839 65.2981 192.297 63.8404C193.755 62.3826 195.732 61.5637 197.793 61.5637C199.855 61.5637 201.832 62.3826 203.29 63.8404C204.748 65.2981 205.567 67.2752 205.567 69.3367H205.562Z" fill="#BE7C5E"/>
    <path opacity="0.1" d="M199.025 86.3866C196.026 85.2213 192.169 81.3711 193.132 79.5721C193.345 79.1177 193.472 78.628 193.507 78.1274L197.612 81.5029L200.151 83.5858L202.082 78.6726C202.243 79.7016 202.409 80.4898 202.409 80.4898C202.409 80.4898 201.834 81.2916 201.501 81.3348C201.167 81.3779 203.327 88.0561 199.025 86.3866Z" fill="black"/>
    <path d="M209.639 101.304L206.212 158.886L201.741 159.179L190.164 125.79L192.062 86.1503L192.465 77.7753L197.612 82.0026L200.151 84.0855L202.139 79.0269L205.835 82.2479L209.639 101.304Z" fill="#6C63FF"/>
    <path opacity="0.1" d="M194.845 159.177C194.693 159.553 194.578 159.943 194.5 160.342C191.244 159.841 188.082 158.854 185.119 157.414L185.057 157.382L185.078 157.017V156.826L186.213 154.709C186.213 154.709 195.39 157.843 194.845 159.177Z" fill="black"/>
    <path opacity="0.1" d="M202.911 160.351C202.08 160.493 201.241 160.59 200.399 160.64C200.349 159.504 200.319 158.72 200.319 158.72L202.836 158.211L202.911 160.351Z" fill="black"/>
    <path opacity="0.1" d="M209.544 158.988C207.929 159.408 205.433 159.881 203.202 159.586L203.17 158.148L209.262 156.923C209.262 156.923 209.424 158.05 209.544 158.988Z" fill="black"/>
    <path opacity="0.1" d="M203.161 159.849C193.848 161.439 185.318 156.88 185.318 156.88L185.4 155.336C185.4 155.336 185.611 137.825 185.025 136.482C184.439 135.14 183.983 128.341 184.314 127.303C184.646 126.265 183.104 110.592 183.104 110.592L182.854 104.232L173.702 100.513L177.791 91.9881C178.343 90.7932 178.818 89.564 179.213 88.3083C179.924 86.0936 183.224 83.9198 183.224 83.9198C183.224 83.9198 186.609 81.7482 187.947 81.83C189.284 81.9118 191.038 79.9083 191.038 79.9083C192.333 76.6078 193.505 78.0911 193.505 78.0911C193.505 78.2501 193.505 78.0911 193.441 78.5795C192.987 82.2025 200.787 93.6509 200.899 93.8553L201.65 111.95L202.402 134.849L203.161 159.849Z" fill="black"/>
    <path d="M202.911 159.849C193.598 161.439 185.066 156.88 185.066 156.88L185.15 155.336C185.15 155.336 185.359 137.825 184.773 136.482C184.187 135.14 183.731 128.334 184.065 127.287C184.398 126.24 182.847 110.583 182.847 110.583L182.595 104.222L173.445 100.504L177.534 91.979C178.085 90.7843 178.56 89.556 178.956 88.3015C179.667 86.0936 182.979 83.9175 182.979 83.9175C182.979 83.9175 186.363 81.7459 187.699 81.8277C189.035 81.9095 190.797 79.9083 190.797 79.9083C192.094 76.6078 193.523 78.0911 193.523 78.0911C193.523 78.2501 193.387 78.3183 193.459 78.5795C194.459 82.0935 200.556 93.6509 200.667 93.8553L201.419 111.95L202.155 134.86L202.911 159.849Z" fill="white"/>
    <path opacity="0.1" d="M200.401 94.3664C199.399 93.9484 194.093 87.8904 194.093 87.8904V86.5116C193.9 86.0573 192.751 86.3344 191.822 86.6524L192.222 78.2774L192.676 78.6544C193.668 82.1662 200.292 94.1642 200.401 94.3664Z" fill="black"/>
    <path d="M200.653 93.8666C199.649 93.4464 194.343 87.3906 194.343 87.3906V86.0095C194.15 85.5552 193.003 85.8323 192.072 86.1503L192.465 77.7844L192.919 78.1592C193.921 81.6664 200.542 93.6622 200.653 93.8666Z" fill="white"/>
    <path opacity="0.1" d="M185.318 124.078C185.443 124.078 191.794 123.41 191.794 123.41C191.794 123.41 195.64 130.974 195.388 132.811C195.136 134.649 194.679 136.28 193.132 135.992C191.585 135.703 184.807 136.219 184.807 136.219L185.318 124.078Z" fill="black"/>
    <path d="M185.066 123.576C185.193 123.576 191.545 122.908 191.545 122.908C191.545 122.908 195.388 130.483 195.138 132.3C194.888 134.118 194.427 135.769 192.882 135.48C191.338 135.192 184.555 135.708 184.555 135.708L185.066 123.576Z" fill="white"/>
    <path d="M189.852 120.034C189.852 120.034 195.681 123.169 195.806 124.123C195.931 125.077 192.839 123.705 192.171 123.537C191.732 123.432 191.284 123.363 190.834 123.328L186.379 123.448L189.852 120.034Z" fill="#BE7C5E"/>
    <path opacity="0.1" d="M198.772 94.7571C199.111 94.7571 199.386 94.4825 199.386 94.1438C199.386 93.805 199.111 93.5305 198.772 93.5305C198.434 93.5305 198.159 93.805 198.159 94.1438C198.159 94.4825 198.434 94.7571 198.772 94.7571Z" fill="black"/>
    <path d="M198.772 94.5072C199.111 94.5072 199.386 94.2326 199.386 93.8939C199.386 93.5552 199.111 93.2806 198.772 93.2806C198.434 93.2806 198.159 93.5552 198.159 93.8939C198.159 94.2326 198.434 94.5072 198.772 94.5072Z" fill="#3F3D56"/>
    <path opacity="0.1" d="M199.901 121.306C200.24 121.306 200.515 121.032 200.515 120.693C200.515 120.354 200.24 120.08 199.901 120.08C199.563 120.08 199.288 120.354 199.288 120.693C199.288 121.032 199.563 121.306 199.901 121.306Z" fill="black"/>
    <path d="M199.901 121.054C200.24 121.054 200.515 120.78 200.515 120.441C200.515 120.102 200.24 119.828 199.901 119.828C199.563 119.828 199.288 120.102 199.288 120.441C199.288 120.78 199.563 121.054 199.901 121.054Z" fill="#3F3D56"/>
    <path opacity="0.1" d="M199.386 108.032C199.724 108.032 199.999 107.757 199.999 107.418C199.999 107.08 199.724 106.805 199.386 106.805C199.047 106.805 198.772 107.08 198.772 107.418C198.772 107.757 199.047 108.032 199.386 108.032Z" fill="black"/>
    <path d="M199.386 107.782C199.724 107.782 199.999 107.507 199.999 107.169C199.999 106.83 199.724 106.555 199.386 106.555C199.047 106.555 198.772 106.83 198.772 107.169C198.772 107.507 199.047 107.782 199.386 107.782Z" fill="#3F3D56"/>
    <path d="M213.524 123.201C213.524 123.201 213.941 123.828 213.524 124.109C213.106 124.391 213.564 125.113 213.564 125.113C213.564 125.113 212.522 125.722 212.981 126.274C213.439 126.826 213.149 129.304 213.149 129.304L211.895 131.392C211.895 131.392 211.97 132.73 211.974 134.538C211.974 137.359 211.809 141.325 210.891 143.133L211.014 157.968C211.014 157.968 206.623 159.574 202.947 159.084L202.402 135.278C202.402 135.278 203.197 121.779 203.49 119.189C203.662 117.845 203.732 116.49 203.699 115.135C203.699 115.135 203.574 111.082 203.154 109.204C203.154 109.204 202.7 101.054 202.654 98.7981C202.634 97.7191 202.691 94.5708 202.754 91.577C202.825 88.3037 202.904 85.2168 202.904 85.2168L202.075 78.6544C202.075 78.6544 202.904 78.5726 203.154 78.9043C203.266 79.0088 203.388 79.1024 203.518 79.1837C204.951 80.1513 210.007 83.127 210.007 83.127C210.007 83.127 212.806 84.24 213.476 85.8346C214.146 87.4292 214.612 88.5604 214.936 89.0147C215.261 89.469 215.438 91.6042 215.438 91.6042C215.438 91.6042 216.402 95.5339 217.153 96.1995C217.905 96.865 218.446 101.09 218.446 101.09L211.802 106.314C211.802 106.314 211.218 115.005 211.093 115.341C210.968 115.678 213.524 123.201 213.524 123.201Z" fill="white"/>
    <path d="M213.776 123.201C213.776 123.201 214.191 123.828 213.776 124.109C213.36 124.391 213.814 125.113 213.814 125.113C213.814 125.113 212.772 125.722 213.231 126.274C213.689 126.826 213.399 129.304 213.399 129.304L212.149 131.392C212.149 131.392 212.224 132.73 212.231 134.538C212.231 137.359 212.065 141.325 211.148 143.133L211.273 157.968C211.273 157.968 206.882 159.574 203.206 159.084L202.664 135.278C202.664 135.278 203.456 121.779 203.752 119.189C203.923 117.845 203.992 116.489 203.958 115.135C203.958 115.135 203.833 111.082 203.415 109.204C203.415 109.204 202.961 101.054 202.913 98.798C202.893 97.7191 202.95 94.5708 203.013 91.577C203.084 88.3037 203.163 85.2168 203.163 85.2168L202.068 78.5658C202.068 78.5658 203.163 78.5658 203.415 78.9043C203.526 79.01 203.648 79.1037 203.779 79.1837C205.21 80.1513 210.266 83.127 210.266 83.127C210.266 83.127 213.058 84.24 213.739 85.8346C214.421 87.4292 214.875 88.5604 215.2 89.0147C215.525 89.469 215.702 91.6042 215.702 91.6042C215.702 91.6042 216.665 95.5339 217.417 96.1994C218.169 96.865 218.712 101.09 218.712 101.09L212.068 106.314C212.068 106.314 211.484 115.005 211.357 115.341C211.229 115.678 213.776 123.201 213.776 123.201Z" fill="white"/>
    <path opacity="0.1" d="M205.819 87.1453L206.421 88.8943L203.261 92.0744C203.331 88.8012 203.411 85.7143 203.411 85.7143L202.316 79.0656C202.316 79.0656 203.411 79.0656 203.663 79.404C203.774 79.5098 203.896 79.6035 204.026 79.6834L206.711 87.427L205.819 87.1453Z" fill="black"/>
    <path d="M205.562 86.6433L206.164 88.3901L203.007 91.5702C203.075 88.297 203.156 85.21 203.156 85.21L202.059 78.559C202.059 78.559 203.156 78.559 203.406 78.8975C203.518 79.0026 203.639 79.0963 203.77 79.1769L206.471 86.9272L205.562 86.6433Z" fill="white"/>
    <path opacity="0.1" d="M205.562 69.3367C205.563 70.1552 205.434 70.9687 205.18 71.7468C205.138 71.754 205.094 71.7524 205.052 71.7423C205.01 71.7321 204.97 71.7136 204.935 71.6877C204.874 69.6434 203.87 67.7217 202.632 66.0885C202.284 65.5959 201.862 65.1593 201.382 64.7938C200.897 64.4292 200.293 64.2583 199.688 64.3145C199.006 64.4076 198.404 64.871 197.716 64.93C196.808 65.005 195.994 64.3758 195.093 64.3463C194.726 64.3493 194.364 64.4307 194.032 64.5851C193.699 64.7395 193.403 64.9632 193.164 65.2412C192.69 65.8005 192.338 66.4528 192.131 67.1561C191.773 68.2234 191.579 69.3383 191.554 70.4634C191.542 71.0994 191.481 71.8967 190.89 72.1284C190.935 71.661 190.882 71.1894 190.735 70.7436C190.587 70.2978 190.349 69.8875 190.034 69.5389L190.02 69.523C190.02 69.4594 190.02 69.4003 190.02 69.3367C190.02 67.2752 190.839 65.2981 192.297 63.8404C193.755 62.3826 195.732 61.5637 197.793 61.5637C199.855 61.5637 201.832 62.3826 203.29 63.8404C204.748 65.2981 205.567 67.2752 205.567 69.3367H205.562Z" fill="black"/>
    <path d="M201.019 56.9957C199.839 56.4405 198.496 56.3355 197.244 56.7004C196.615 56.8867 196.022 57.1888 195.383 57.341C194.02 57.6704 192.43 57.3137 191.261 58.111C190.611 58.5653 190.22 59.2831 189.857 59.9827L188.948 61.7113C188.453 62.6586 187.953 63.6217 187.747 64.6643C187.54 65.7069 187.665 66.8745 188.326 67.7149C188.805 68.3237 189.518 68.7076 190.041 69.2823C190.355 69.6326 190.593 70.0442 190.74 70.491C190.887 70.9379 190.939 71.4103 190.895 71.8786C191.485 71.6514 191.545 70.8496 191.558 70.2136C191.584 69.0885 191.778 67.9736 192.135 66.9063C192.342 66.2029 192.694 65.5507 193.169 64.9914C193.408 64.713 193.703 64.489 194.036 64.3342C194.368 64.1795 194.73 64.0976 195.097 64.0942C196.006 64.126 196.821 64.7552 197.721 64.6779C198.402 64.6211 199.006 64.1578 199.692 64.0646C200.297 64.0074 200.902 64.1783 201.387 64.5439C201.867 64.9083 202.288 65.3451 202.634 65.8387C203.874 67.4741 204.88 69.3867 204.94 71.4379C205.196 71.6242 205.566 71.3788 205.694 71.0881C205.821 70.7973 205.825 70.4566 205.987 70.1795C206.173 69.8592 206.53 69.6866 206.809 69.4458C207.518 68.8348 207.695 67.8058 207.668 66.8722C207.64 65.9386 207.459 64.9914 207.636 64.0737C207.743 63.5126 207.983 62.9834 208.115 62.4269C208.247 61.8704 208.263 61.2457 207.952 60.7664C207.497 60.0645 206.541 59.9237 205.707 59.8578C204.76 59.776 203.913 59.8805 203.309 59.0832C203.024 58.6677 202.705 58.2771 202.355 57.9157C202.23 57.7953 201.019 57.0457 201.019 56.9957Z" fill="#512E4E"/>
    <path opacity="0.1" d="M176.323 104.897L173.952 100.511L173.2 107.28C173.2 107.28 173.618 110.287 173.534 110.748C173.45 111.21 175.247 115.344 175.247 115.344C175.247 115.344 181.182 125.917 183.606 126.46L191.783 120.609L189.612 117.851C189.612 117.851 188.86 117.558 188.671 117.851C188.671 117.851 184.637 110.914 184.221 110.415C183.806 109.915 183.885 108.908 183.885 108.908C183.885 108.908 183.258 108.241 183.467 107.614C183.676 106.987 182.268 104.815 182.268 104.815L183.563 103.605L176.323 104.897Z" fill="black"/>
    <path d="M174.077 100.009L173.45 100.511L172.698 107.28C172.698 107.28 173.116 110.287 173.032 110.748C172.948 111.21 174.747 115.344 174.747 115.344C174.747 115.344 180.68 125.917 183.104 126.46L191.295 120.609L189.121 117.851C189.121 117.851 188.369 117.558 188.18 117.851C188.18 117.851 184.149 110.914 183.731 110.415C183.313 109.915 183.397 108.909 183.397 108.909C183.397 108.909 182.77 108.241 182.979 107.614C183.188 106.987 181.766 104.815 181.766 104.815L183.061 103.605L174.077 100.009Z" fill="white"/>
    <path opacity="0.1" d="M212.981 126.535C213.435 127.087 213.149 129.568 213.149 129.568L211.895 131.642C211.895 131.642 211.97 132.982 211.974 134.79L209.866 135.449C209.676 135.508 209.473 135.521 209.277 135.487C209.08 135.452 208.894 135.371 208.735 135.25C208.576 135.129 208.448 134.972 208.362 134.791C208.276 134.611 208.234 134.413 208.24 134.213L208.606 122.492L213.524 124.371C213.106 124.661 213.564 125.375 213.564 125.375C213.564 125.375 212.522 125.983 212.981 126.535Z" fill="black"/>
    <path d="M213.231 126.285C213.685 126.835 213.399 129.316 213.399 129.316L212.149 131.392C212.149 131.392 212.224 132.73 212.231 134.538L210.085 135.208C209.898 135.266 209.7 135.279 209.508 135.246C209.316 135.212 209.134 135.133 208.978 135.015C208.823 134.897 208.698 134.743 208.613 134.567C208.529 134.391 208.488 134.197 208.494 134.002L208.86 122.24L213.776 124.123C213.355 124.414 213.814 125.127 213.814 125.127C213.814 125.127 212.772 125.733 213.231 126.285Z" fill="white"/>
    <path d="M214.861 120.693C214.861 120.693 214.528 122.826 213.692 122.951C212.856 123.076 212.481 126.401 211.647 126.285C210.814 126.17 211.366 123.192 211.395 122.615C211.425 122.038 210.487 119.648 211.186 119.105C211.886 118.562 214.112 119.105 214.112 119.105L214.861 120.693Z" fill="#BE7C5E"/>
    <path opacity="0.1" d="M216.629 104.27L218.203 101.09C218.203 101.09 218.832 103.514 218.832 104.808C218.832 106.103 219.709 106.23 219.709 106.23C219.709 106.23 220.67 107.366 220.163 108.195C219.657 109.024 219.454 111.078 219.454 111.078C219.454 111.078 219.62 115.005 218.868 115.548C218.117 116.091 217.948 117.388 217.948 117.388C217.948 117.388 216.57 119.853 216.613 120.439C216.656 121.025 214.691 124.993 214.691 124.993C214.691 124.993 215.652 120.062 210.053 117.931C210.053 117.931 210.01 116.259 210.428 115.8C210.845 115.341 211.497 115.119 211.089 112.811C210.68 110.503 210.97 107.721 210.97 107.164C210.97 106.607 212.224 103.139 212.224 103.139L216.629 104.27Z" fill="black"/>
    <path d="M217.328 100.636L218.705 101.09C218.705 101.09 219.334 103.514 219.334 104.808C219.334 106.103 220.211 106.23 220.211 106.23C220.211 106.23 221.172 107.366 220.665 108.195C220.159 109.024 219.954 111.078 219.954 111.078C219.954 111.078 220.122 115.005 219.37 115.548C218.619 116.091 218.462 117.388 218.462 117.388C218.462 117.388 217.083 119.853 217.126 120.439C217.169 121.025 215.202 124.993 215.202 124.993C215.202 124.993 216.163 120.062 210.564 117.931C210.564 117.931 210.523 116.259 210.941 115.8C211.359 115.341 212.011 115.119 211.602 112.811C211.193 110.503 211.484 107.721 211.484 107.164C211.484 106.607 212.738 103.139 212.738 103.139L217.328 100.636Z" fill="white"/>
    <path opacity="0.1" d="M186.918 183.062C186.918 183.062 189.112 181.683 190.552 182.684C191.992 183.686 186.918 183.062 186.918 183.062Z" fill="black"/>
    <path opacity="0.1" d="M203.972 178.798C203.972 178.798 205.914 178.548 207.545 180.304C209.176 182.06 203.972 178.798 203.972 178.798Z" fill="black"/>
    <g opacity="0.1">
    <path opacity="0.1" d="M206.809 68.946C206.53 69.189 206.171 69.3594 205.984 69.6797C205.825 69.9545 205.821 70.2952 205.694 70.5883C205.567 70.8813 205.196 71.1243 204.937 70.9381C204.878 68.8937 203.872 66.9743 202.634 65.3388C202.288 64.8459 201.867 64.4099 201.387 64.0463C200.901 63.68 200.296 63.5083 199.69 63.5648C199.009 63.6579 198.409 64.1213 197.721 64.1804C196.812 64.2553 195.997 63.6261 195.095 63.5966C194.729 63.5994 194.367 63.6807 194.035 63.8351C193.702 63.9895 193.407 64.2133 193.169 64.4916C192.695 65.0508 192.342 65.7031 192.135 66.4064C191.778 67.4737 191.584 68.5886 191.558 69.7137C191.545 70.3475 191.486 71.138 190.899 71.3742C190.913 71.5428 190.913 71.7122 190.899 71.8807C191.492 71.6536 191.551 70.8517 191.565 70.2157C191.591 69.0906 191.785 67.9757 192.142 66.9084C192.349 66.2051 192.701 65.5528 193.176 64.9936C193.414 64.7154 193.709 64.4914 194.042 64.3366C194.374 64.1819 194.735 64.1 195.102 64.0963C196.01 64.1281 196.828 64.7573 197.728 64.6801C198.409 64.6233 199.013 64.1599 199.697 64.0668C200.303 64.0096 200.908 64.1806 201.394 64.5461C201.874 64.9105 202.295 65.3473 202.641 65.8408C203.879 67.4763 204.885 69.3889 204.944 71.4401C205.203 71.6263 205.573 71.381 205.701 71.0903C205.828 70.7995 205.832 70.4588 205.991 70.1817C206.178 69.8614 206.536 69.6887 206.816 69.448C207.525 68.8369 207.702 67.8079 207.674 66.8744C207.674 66.8448 207.674 66.8176 207.674 66.788C207.629 67.6012 207.413 68.4258 206.809 68.946Z" fill="black"/>
    <path opacity="0.1" d="M190.039 68.787C189.518 68.2123 188.805 67.8261 188.326 67.2174C187.921 66.68 187.69 66.0316 187.665 65.3593C187.594 66.1999 187.828 67.038 188.326 67.7194C188.805 68.3281 189.518 68.712 190.039 69.2867C190.541 69.8485 190.843 70.5611 190.897 71.3129C190.931 70.8557 190.873 70.3964 190.725 69.9624C190.578 69.5284 190.344 69.1286 190.039 68.787Z" fill="black"/>
    <path opacity="0.1" d="M208.115 61.927C207.981 62.4836 207.743 63.0128 207.634 63.5739C207.568 63.9533 207.545 64.3387 207.563 64.7233C207.571 64.506 207.594 64.2896 207.634 64.0759C207.743 63.5148 207.981 62.9856 208.115 62.429C208.192 62.1219 208.218 61.8041 208.19 61.4886C208.175 61.6364 208.15 61.7828 208.115 61.927Z" fill="black"/>
    </g>
    <path opacity="0.1" d="M31.0383 190.551C43.2622 190.551 53.1717 188.959 53.1717 186.996C53.1717 185.032 43.2622 183.441 31.0383 183.441C18.8143 183.441 8.90479 185.032 8.90479 186.996C8.90479 188.959 18.8143 190.551 31.0383 190.551Z" fill="#6C63FF"/>
    <path d="M31.7516 118.894H30.3273V150.961H31.7516V118.894Z" fill="#535461"/>
    <path d="M40.7035 150.865L40.6127 152.31L40.4877 154.354L40.4355 155.204L40.3083 157.248L40.2538 158.098L40.1288 160.142L38.691 183.327C38.6297 184.325 38.1901 185.261 37.462 185.946C36.7339 186.631 35.7721 187.012 34.7726 187.012H27.3062C26.3041 187.012 25.3397 186.629 24.6111 185.941C23.8824 185.253 23.4448 184.312 23.3879 183.311L21.95 160.126L21.8251 158.082L21.7729 157.232L21.6434 155.188L21.5911 154.338L21.4662 152.294L21.3754 150.849C21.3596 150.573 21.4004 150.295 21.4952 150.035C21.5901 149.774 21.7369 149.535 21.9269 149.333C22.1169 149.131 22.346 148.97 22.6003 148.859C22.8546 148.748 23.1287 148.691 23.4061 148.689H38.6751C38.9537 148.691 39.229 148.749 39.4841 148.861C39.7393 148.973 39.9689 149.136 40.1588 149.34C40.3488 149.543 40.4951 149.784 40.5888 150.046C40.6824 150.309 40.7215 150.587 40.7035 150.865Z" fill="#3F3D56"/>
    <path d="M40.6127 152.308L40.4855 154.348H21.5911L21.4639 152.308H40.6127Z" fill="#9D9CB5"/>
    <path d="M40.4332 155.197L40.3083 157.237H21.7706L21.6434 155.197H40.4332Z" fill="#9D9CB5"/>
    <path d="M40.2537 158.089L40.1288 160.126H21.95L21.8228 158.089H40.2537Z" fill="#9D9CB5"/>
    <path d="M19.2992 130.915C27.5947 136.916 31.0496 146.302 31.0496 146.302C31.0496 146.302 21.055 145.959 12.7573 139.958C4.45949 133.956 1 124.577 1 124.577C1 124.577 10.9946 124.913 19.2992 130.915Z" fill="#3CB304"/>
    <path d="M1 124.577C1 124.577 11.3739 130.336 14.7017 135.103C18.0294 139.871 31.0406 146.306 31.0406 146.306" stroke="#535461" stroke-width="0.4" stroke-miterlimit="10"/>
    <path d="M24.644 118.826C29.1598 122.09 31.0406 127.199 31.0406 127.199C31.0406 127.199 25.589 127.012 21.0846 123.748C16.5802 120.484 14.688 115.373 14.688 115.373C14.688 115.373 20.1306 115.559 24.644 118.826Z" fill="#3CB304"/>
    <path d="M14.688 115.373C14.688 115.373 20.335 118.508 22.1476 121.102C23.9603 123.696 31.0406 127.199 31.0406 127.199" stroke="#535461" stroke-width="0.4" stroke-miterlimit="10"/>
    <path d="M37.6007 126.94C32.4148 132.639 31.3177 140.087 31.3177 140.087C31.3177 140.087 38.6296 138.293 43.8109 132.591C48.9922 126.89 50.0939 119.444 50.0939 119.444C50.0939 119.444 42.7865 121.24 37.6007 126.94Z" fill="#3CB304"/>
    <path d="M50.0984 119.446C50.0984 119.446 43.343 125.288 41.6257 129.313C39.9085 133.338 31.3177 140.087 31.3177 140.087" stroke="#535461" stroke-width="0.4" stroke-miterlimit="10"/>
    <path d="M164.141 29.9968H164.067C161.111 29.9968 158.498 31.5722 156.994 33.8969C155.491 31.5722 152.877 29.9968 149.922 29.9968H149.848C147.63 30.0181 145.51 30.9203 143.949 32.5073C142.388 34.0943 141.511 36.238 141.51 38.4723C141.51 41.247 142.716 45.1839 145.068 48.4234C149.55 54.5962 156.994 59.9968 156.994 59.9968C156.994 59.9968 164.439 54.5972 168.919 48.4234C171.272 45.1839 172.478 41.247 172.478 38.4723C172.477 36.2381 171.6 34.0947 170.039 32.5077C168.478 30.9207 166.359 30.0184 164.141 29.9968ZM163.078 48.8984C162.742 48.8971 162.413 48.7933 162.136 48.6006C161.859 48.408 161.647 48.1354 161.526 47.8188H159.759C159.643 47.8181 159.53 47.7808 159.436 47.7121C159.341 47.6434 159.271 47.5468 159.234 47.4357L158.691 45.7885L156.974 51.8336C156.94 51.95 156.87 52.0523 156.774 52.1251C156.678 52.198 156.561 52.2375 156.441 52.2377H156.406C156.281 52.2316 156.161 52.1823 156.067 52.098C155.974 52.0137 155.911 51.8996 155.891 51.7747L154.121 41.0514L152.828 47.3968C152.798 47.5173 152.729 47.6244 152.632 47.7009C152.535 47.7774 152.415 47.8189 152.292 47.8188H149.803C149.729 47.822 149.654 47.81 149.584 47.7834C149.515 47.7568 149.451 47.7163 149.397 47.6642C149.343 47.6122 149.3 47.5497 149.271 47.4805C149.241 47.4113 149.226 47.3368 149.226 47.2616C149.226 47.1864 149.241 47.1119 149.271 47.0427C149.3 46.9736 149.343 46.9111 149.397 46.859C149.451 46.8069 149.515 46.7664 149.584 46.7398C149.654 46.7133 149.729 46.7012 149.803 46.7044H151.856L153.689 38.173C153.719 38.0469 153.791 37.9352 153.894 37.857C153.997 37.7789 154.123 37.7391 154.252 37.7445C154.381 37.75 154.503 37.8002 154.599 37.8868C154.695 37.9733 154.758 38.0907 154.778 38.2189L156.585 49.1578L158.124 43.7492C158.156 43.6353 158.224 43.5349 158.318 43.4629C158.411 43.391 158.525 43.3514 158.642 43.3501H158.653C158.77 43.3502 158.883 43.3872 158.977 43.456C159.072 43.5248 159.142 43.6218 159.178 43.7332L160.16 46.7074H161.504C161.6 46.4147 161.774 46.1544 162.007 45.9551C162.241 45.7557 162.524 45.6252 162.826 45.5779C163.128 45.5306 163.438 45.5683 163.72 45.6869C164.002 45.8054 164.247 46.0003 164.426 46.2499C164.605 46.4995 164.712 46.7942 164.736 47.1014C164.76 47.4086 164.698 47.7163 164.559 47.9907C164.42 48.2651 164.209 48.4955 163.948 48.6563C163.687 48.8172 163.387 48.9023 163.081 48.9023L163.078 48.8984Z" fill="#F94242"/>
    <defs>
    <linearGradient id="paint0_linear" x1="106.634" y1="189.797" x2="106.634" y2="58.5835" gradientUnits="userSpaceOnUse">
    <stop stop-color="#808080" stop-opacity="0.25"/>
    <stop offset="0.54" stop-color="#808080" stop-opacity="0.12"/>
    <stop offset="1" stop-color="#808080" stop-opacity="0.1"/>
    </linearGradient>
    <linearGradient id="paint1_linear" x1="43222.8" y1="122968" x2="43222.8" y2="36963.9" gradientUnits="userSpaceOnUse">
    <stop stop-color="#808080" stop-opacity="0.25"/>
    <stop offset="0.54" stop-color="#808080" stop-opacity="0.12"/>
    <stop offset="1" stop-color="#808080" stop-opacity="0.1"/>
    </linearGradient>
    </defs>
    </svg>
