<svg width="140" height="140" viewBox="0 0 140 140" fill="none" xmlns="http://www.w3.org/2000/svg">
<circle cx="70" cy="70" r="70" fill="#B8DBF0"/>
<path d="M47 54C47 66.7 57.3 77 70 77C82.7 77 93 66.7 93 54C93 41.3 82.7 31 70 31C57.3 31 47 41.3 47 54ZM87 54C87 63.4 79.4 71 70 71C60.6 71 53 63.4 53 54C53 44.6 60.6 37 70 37C79.4 37 87 44.6 87 54Z" fill="white"/>
<path d="M77.7 77.8C72.7 79.4 67.2 79.4 62.2 77.8C52 74.4 41.1 77.4 34.6 85.3C29.7 91.3 27 98.9 27 106.6C27 108.3 28.3 109.6 30 109.6C31.7 109.6 33 108.3 33 106.6C33 100.2 35.2 94 39.2 89.1C44.1 83.1 52.4 80.8 60.4 83.4C66.6 85.4 73.4 85.4 79.6 83.4C87.5 80.8 95.8 83 100.8 89.1C104.8 94 107 100.2 107 106.6C107 108.3 108.3 109.6 110 109.6C111.7 109.6 113 108.3 113 106.6C113 98.9 110.3 91.3 105.4 85.3C98.9 77.4 88 74.4 77.7 77.8Z" fill="white"/>
</svg>
