<svg width="96" height="96" viewBox="0 0 96 96" fill="none" xmlns="http://www.w3.org/2000/svg">
<path d="M73.014 62.949L57 58.5H48H39L22.986 62.949C16.4925 64.752 12 70.6635 12 77.4015V93H48H84V77.4015C84 70.6635 79.5075 64.752 73.014 62.949Z" fill="#98CA69"/>
<path d="M24 84H27V93H24V84Z" fill="#75AA40"/>
<path d="M69 84H72V93H69V84Z" fill="#75AA40"/>
<path d="M48 70.5C54.339 70.5 59.5335 65.5545 59.958 59.322L57 58.5H48H39L36.042 59.322C36.4665 65.5545 41.661 70.5 48 70.5Z" fill="#75AA40"/>
<path d="M57 48V58.5C57 63.471 52.971 67.5 48 67.5C43.029 67.5 39 63.471 39 58.5V48H57Z" fill="#E6AE75"/>
<path d="M67.2495 25.7505V36.2505C67.2495 46.881 58.632 55.5 48 55.5C37.368 55.5 28.7505 46.881 28.7505 36.2505V25.7505C28.7505 21.885 31.884 18.75 35.751 18.75H60.2505C64.116 18.75 67.2495 21.8835 67.2495 25.7505Z" fill="#E6AE75"/>
<path d="M60.2505 8.25H60.003C59.2215 5.2365 56.508 3 53.25 3H46.2495C40.524 3 35.442 5.7495 32.2485 9.999C30.051 12.924 28.749 16.56 28.749 20.5005V36.2505L32.2485 25.7505H53.2485C56.5065 25.7505 59.22 23.514 60.0015 20.5005H60.942C62.583 20.5005 64.0035 21.6405 64.359 23.241L67.2495 36.2505V15.2505C67.2495 11.3835 64.116 8.25 60.2505 8.25Z" fill="#6E83B7"/>
<path d="M67.2495 25.7505H68.3685C70.5315 25.7505 72.177 27.693 71.8215 29.826L71.238 33.3255C70.956 35.013 69.4965 36.2505 67.785 36.2505H67.2495V25.7505Z" fill="#E6AE75"/>
<path d="M28.7505 25.7505H27.6315C25.4685 25.7505 23.823 27.693 24.1785 29.826L24.762 33.3255C25.044 35.013 26.5035 36.2505 28.215 36.2505H28.7505V25.7505Z" fill="#E6AE75"/>
<path d="M66.4635 26.25H67.245V24.75H65.538L59.7345 36.3555C57.3315 36.7995 52.785 37.5 48 37.5C43.215 37.5 38.6685 36.7995 36.267 36.3555L30.4635 24.75H28.7565V26.25H29.538L34.5 36.177V45.7785L30.4875 36.75H28.791V38.25H29.511L34.5 49.4715V50.577C34.5 51.7905 35.2335 52.8915 36.354 53.3595C40.797 55.2105 44.9625 55.5 48 55.5C51.0375 55.5 55.203 55.2105 59.646 53.3595C60.7665 52.893 61.5 51.7905 61.5 50.577V49.4715L66.4875 38.25H67.2075V36.75H65.511L61.5 45.7785V36.177L66.4635 26.25Z" fill="#EDEFF1"/>
</svg>
