<svg width="100" height="156" viewBox="0 0 100 156" fill="none" xmlns="http://www.w3.org/2000/svg">
<path d="M99.8812 105.327C99.8822 101.152 98.3253 97.1268 95.5152 94.0393C92.7051 90.9518 88.844 89.0239 84.6874 88.6331C80.5309 88.2422 76.3781 89.4164 73.0416 91.9259C69.7052 94.4355 67.4252 98.0997 66.6479 102.202L15.1281 100.804L15.6937 109.655C15.6937 109.655 8.34729 126.606 46.9577 131.123V148.255H91.5935V119.77C94.1142 118.294 96.2051 116.184 97.6589 113.651C99.1127 111.117 99.8788 108.248 99.8812 105.327Z" fill="url(#paint0_linear)"/>
<path d="M17.4627 110.027C17.4627 110.027 10.428 126.26 47.4036 130.59V147.005H90.1506V103.535L16.9136 101.549L17.4627 110.027Z" fill="#BE7C5E"/>
<path d="M38.827 42.2867C37.7123 44.0456 35.9469 45.2918 33.9164 45.7533C31.8859 46.2147 29.7553 45.8537 27.99 44.7493L5.03844 29.6251C3.27959 28.5105 2.03334 26.7451 1.57192 24.7145C1.11051 22.684 1.47145 20.5534 2.57588 18.7881C3.69042 17.0316 5.45428 15.7869 7.4828 15.3256C9.51133 14.8643 11.64 15.2237 13.4046 16.3256L36.3561 31.4498C38.1164 32.5631 39.3643 34.3279 39.8273 36.3585C40.2903 38.3891 39.9306 40.5205 38.827 42.2867Z" fill="url(#paint1_linear)"/>
<path d="M37.5554 41.4611C36.5193 43.096 34.8784 44.2544 32.991 44.6833C31.1036 45.1122 29.1231 44.7768 27.4822 43.7503L6.1407 29.6808C4.50581 28.6448 3.34739 27.0038 2.91847 25.1164C2.48954 23.229 2.82499 21.2485 3.85153 19.6076C4.88759 17.9728 6.52856 16.8143 8.41597 16.3854C10.3034 15.9565 12.2838 16.2919 13.9247 17.3185L35.2621 31.3796C36.9 32.4151 38.0609 34.0573 38.4907 35.9468C38.9205 37.8362 38.5842 39.819 37.5554 41.4611Z" fill="#BE7C5E"/>
<path d="M82.0363 121.933C90.9022 121.933 98.0895 114.746 98.0895 105.88C98.0895 97.014 90.9022 89.8268 82.0363 89.8268C73.1705 89.8268 65.9832 97.014 65.9832 105.88C65.9832 114.746 73.1705 121.933 82.0363 121.933Z" fill="#BE7C5E"/>
<path d="M79.1465 0H17.6506C16.254 0 15.1219 1.1321 15.1219 2.52862V117.598C15.1219 118.995 16.254 120.127 17.6506 120.127H79.1465C80.543 120.127 81.6751 118.995 81.6751 117.598V2.52862C81.6751 1.1321 80.543 0 79.1465 0Z" fill="#FF0000"/>
<path d="M77.9576 1.62453H18.8354C17.2804 1.62453 16.0199 2.88509 16.0199 4.44007V115.691C16.0199 117.246 17.2804 118.507 18.8354 118.507H77.9576C79.5125 118.507 80.7731 117.246 80.7731 115.691V4.44007C80.7731 2.88509 79.5125 1.62453 77.9576 1.62453Z" fill="white"/>
<path d="M64.6642 4.55566C64.4769 5.79519 63.8522 6.92676 62.903 7.74568C61.9539 8.56461 60.743 9.0168 59.4893 9.02047H37.126C35.8728 9.01631 34.6624 8.56389 33.7137 7.74502C32.7649 6.92614 32.1405 5.79484 31.9532 4.55566H20.1048C19.7818 4.55539 19.4619 4.61878 19.1634 4.7422C18.8649 4.86563 18.5936 5.04667 18.3651 5.27499C18.1366 5.5033 17.9554 5.77441 17.8317 6.07281C17.708 6.37122 17.6443 6.69107 17.6443 7.01409V113.113C17.6441 113.436 17.7075 113.756 17.8309 114.054C17.9543 114.353 18.1354 114.624 18.3637 114.853C18.592 115.081 18.8631 115.262 19.1615 115.386C19.4599 115.51 19.7798 115.573 20.1028 115.573H76.6901C77.0132 115.574 77.3331 115.51 77.6316 115.387C77.9301 115.263 78.2013 115.082 78.4299 114.854C78.6584 114.626 78.8396 114.355 78.9633 114.056C79.087 113.758 79.1506 113.438 79.1506 113.115V7.01616C79.1509 6.69314 79.0875 6.37323 78.9641 6.07472C78.8407 5.77621 78.6596 5.50495 78.4313 5.27645C78.203 5.04794 77.9319 4.86667 77.6335 4.74299C77.3351 4.61932 77.0152 4.55566 76.6922 4.55566H64.6642Z" fill="white"/>
<path d="M55.2908 5.9531H41.6858C41.4578 5.9531 41.273 6.13793 41.273 6.36594V6.44231C41.273 6.67031 41.4578 6.85515 41.6858 6.85515H55.2908C55.5188 6.85515 55.7036 6.67031 55.7036 6.44231V6.36594C55.7036 6.13793 55.5188 5.9531 55.2908 5.9531Z" fill="#DBDBDB"/>
<path d="M58.769 6.85513C59.0676 6.85513 59.3098 6.613 59.3098 6.31431C59.3098 6.01563 59.0676 5.7735 58.769 5.7735C58.4703 5.7735 58.2281 6.01563 58.2281 6.31431C58.2281 6.613 58.4703 6.85513 58.769 6.85513Z" fill="#DBDBDB"/>
<path d="M92.413 108.712C87.7541 109.789 84.5567 106.751 83.4792 102.094L72.7744 62.3443C72.2627 60.0987 72.6604 57.7417 73.8806 55.7883C75.1008 53.8348 77.0443 52.4435 79.2869 51.9182C81.5325 51.4065 83.8894 51.8042 85.8429 53.0244C87.7964 54.2446 89.1877 56.1881 89.713 58.4307L98.4486 99.2064C99.5261 103.865 97.0697 107.634 92.413 108.712Z" fill="url(#paint2_linear)"/>
<path d="M88.5119 59.4037C87.6037 55.4727 83.6807 53.0224 79.7498 53.9306C75.8188 54.8389 73.3685 58.7618 74.2767 62.6928L84.1202 105.296C85.0285 109.227 88.9514 111.677 92.8824 110.769C96.8133 109.861 99.2637 105.938 98.3555 102.007L88.5119 59.4037Z" fill="#BE7C5E"/>
<path d="M98.0213 141.633H36.9217V155.876H98.0213V141.633Z" fill="url(#paint3_linear)"/>
<path d="M96.37 143.285H38.573V154.431H96.37V143.285Z" fill="#727A9C"/>
<path d="M29.9179 84.9285C28.8169 86.6665 27.0727 87.898 25.0665 88.354C23.0603 88.81 20.9552 88.4534 19.2111 87.3622L3.81848 77.4026C2.08055 76.3015 0.84905 74.5573 0.393044 72.5511C-0.0629624 70.5449 0.293596 68.4398 1.38482 66.6957C2.48588 64.9577 4.23006 63.7262 6.23625 63.2702C8.24244 62.8142 10.3476 63.1708 12.0917 64.262L27.4843 74.2217C29.2222 75.3227 30.4537 77.0669 30.9097 79.0731C31.3657 81.0793 31.0092 83.1844 29.9179 84.9285Z" fill="url(#paint4_linear)"/>
<path d="M26.0538 106.01C24.943 107.764 23.183 109.007 21.1586 109.467C19.1342 109.927 17.0099 109.567 15.2499 108.466L5.7155 101.514C3.96163 100.403 2.71877 98.6434 2.25851 96.6189C1.79824 94.5945 2.15798 92.4702 3.25913 90.7103C4.37 88.9564 6.12993 87.7135 8.15434 87.2533C10.1787 86.793 12.303 87.1527 14.063 88.2539L23.5975 95.2081C25.3508 96.319 26.5932 98.0785 27.0535 100.102C27.5137 102.126 27.1543 104.25 26.0538 106.01Z" fill="url(#paint5_linear)"/>
<path d="M25.2839 105.492C24.2478 107.127 22.6069 108.285 20.7194 108.714C18.832 109.143 16.8516 108.808 15.2107 107.781L6.31823 101.308C4.68334 100.272 3.52491 98.6307 3.09599 96.7433C2.66706 94.8559 3.00251 92.8754 4.02905 91.2345C5.06511 89.5997 6.70608 88.4412 8.59349 88.0123C10.4809 87.5834 12.4614 87.9188 14.1022 88.9454L22.9926 95.431C24.6245 96.4666 25.7809 98.1051 26.2101 99.9896C26.6392 101.874 26.3063 103.852 25.2839 105.492Z" fill="#BE7C5E"/>
<path d="M29.0717 84.3815C28.0356 86.0164 26.3946 87.1748 24.5072 87.6037C22.6198 88.0327 20.6394 87.6972 18.9985 86.6707L4.51622 77.2993C2.88133 76.2633 1.72291 74.6223 1.29398 72.7349C0.865063 70.8475 1.20051 68.867 2.22705 67.2261C3.26311 65.5912 4.90407 64.4328 6.79148 64.0039C8.67889 63.575 10.6593 63.9104 12.3002 64.937L26.7825 74.3083C28.4174 75.3444 29.5758 76.9854 30.0047 78.8728C30.4337 80.7602 30.0982 82.7406 29.0717 84.3815Z" fill="#BE7C5E"/>
<path d="M33.8977 63.9462C32.7912 65.6918 31.0389 66.9286 29.0235 67.3865C27.0081 67.8444 24.8934 67.4862 23.1413 66.3902L3.63478 53.6893C1.8892 52.5828 0.652385 50.8305 0.194468 48.8151C-0.263449 46.7997 0.0947332 44.685 1.19079 42.9329C2.2973 41.1873 4.0496 39.9505 6.06498 39.4925C8.08035 39.0346 10.1951 39.3928 11.9472 40.4889L31.4537 53.1898C33.1993 54.2963 34.4361 56.0486 34.894 58.0639C35.3519 60.0793 34.9937 62.194 33.8977 63.9462Z" fill="url(#paint6_linear)"/>
<path d="M32.8615 63.2856C31.8254 64.9205 30.1844 66.0789 28.297 66.5079C26.4096 66.9368 24.4292 66.6013 22.7883 65.5748L4.51824 53.679C2.88335 52.6429 1.72492 51.0019 1.296 49.1145C0.867077 47.2271 1.20252 45.2466 2.22906 43.6058C3.26513 41.9709 4.90609 40.8125 6.7935 40.3835C8.68091 39.9546 10.6614 40.2901 12.3022 41.3166L30.5702 53.2124C32.2054 54.2482 33.3643 55.889 33.7936 57.7764C34.2229 59.6639 33.8878 61.6445 32.8615 63.2856Z" fill="#BE7C5E"/>
<path d="M48.4832 59.8364C59.7624 59.8364 68.9061 50.6927 68.9061 39.4134C68.9061 28.1341 59.7624 18.9904 48.4832 18.9904C37.2039 18.9904 28.0602 28.1341 28.0602 39.4134C28.0602 50.6927 37.2039 59.8364 48.4832 59.8364Z" fill="#F5F5F5"/>
<path d="M39.6485 47.3976C39.6485 47.3976 34.7832 47.7959 36.0692 56.6616C36.7362 57.3011 37.5234 57.802 38.3852 58.1354L41.1223 48.8714L39.6485 47.3976Z" fill="#4D8AF0"/>
<path d="M55.4394 47.3976C55.4394 47.3976 60.3047 47.7959 59.0187 56.6616C58.3517 57.3011 57.5645 57.802 56.7027 58.1354L53.9656 48.8714L55.4394 47.3976Z" fill="#4D8AF0"/>
<path d="M47.674 41.2917C52.6741 41.2917 56.7275 37.2383 56.7275 32.2382C56.7275 27.2381 52.6741 23.1848 47.674 23.1848C42.6739 23.1848 38.6205 27.2381 38.6205 32.2382C38.6205 37.2383 42.6739 41.2917 47.674 41.2917Z" fill="#333333"/>
<path d="M55.3465 47.3976H39.5556L38.0818 53.7139C38.0818 53.7139 37.2169 56.6389 38.2882 57.9249C39.3595 59.2109 49.4244 62.1358 56.8162 58.1313C57.4592 56.4466 57.5318 54.5975 57.0226 52.8676C56.1805 49.92 56.8162 52.6612 56.8162 52.6612L55.3465 47.3976Z" fill="#4D8AF0"/>
<path d="M55.5571 47.3976H39.7661L38.2923 53.7139C38.2923 53.7139 37.4274 56.6389 38.4987 57.9249C39.57 59.2109 49.6349 62.1358 57.0268 58.1313C57.6698 56.4466 57.7423 54.5975 57.2332 52.8676C56.391 49.92 57.0268 52.6612 57.0268 52.6612L55.5571 47.3976Z" fill="#4D8AF0"/>
<path d="M55.4394 47.3976H39.6485L38.1746 53.7139C38.1746 53.7139 37.3098 56.6389 38.3811 57.9249C39.4524 59.2109 49.5173 62.1358 56.9091 58.1313C57.5521 56.4466 57.6247 54.5975 57.1155 52.8676C56.2734 49.92 56.9091 52.6612 56.9091 52.6612L55.4394 47.3976Z" fill="#4D8AF0"/>
<path opacity="0.1" d="M44.4828 42.1587H50.7991V47.2056C50.7991 48.0432 50.4664 48.8465 49.8741 49.4388C49.2819 50.0311 48.4786 50.3638 47.641 50.3638C46.8034 50.3638 46.0001 50.0311 45.4078 49.4388C44.8155 48.8465 44.4828 48.0432 44.4828 47.2056V42.1587Z" fill="black"/>
<path d="M44.4828 41.9234H50.7991V46.9765C50.7991 47.8141 50.4664 48.6174 49.8741 49.2096C49.2819 49.8019 48.4786 50.1347 47.641 50.1347C46.8034 50.1347 46.0001 49.8019 45.4078 49.2096C44.8155 48.6174 44.4828 47.8141 44.4828 46.9765V41.9234Z" fill="#E5A283"/>
<path opacity="0.1" d="M44.5034 42.8357C46.5391 43.5968 48.7802 43.6026 50.8198 42.8522V42.0761H44.5034V42.8357Z" fill="black"/>
<path d="M47.674 43.2568C52.6741 43.2568 56.7275 39.2034 56.7275 34.2033C56.7275 29.2032 52.6741 25.1499 47.674 25.1499C42.6739 25.1499 38.6205 29.2032 38.6205 34.2033C38.6205 39.2034 42.6739 43.2568 47.674 43.2568Z" fill="#E6A283"/>
<path opacity="0.1" d="M39.0168 30.9997H56.2816C56.2816 30.9997 54.8078 24.029 48.2809 24.4728C41.7539 24.9166 39.0168 30.9997 39.0168 30.9997Z" fill="black"/>
<path d="M39.0168 30.7645H56.2816C56.2816 30.7645 54.8078 23.7937 48.2809 24.2375C41.7539 24.6813 39.0168 30.7645 39.0168 30.7645Z" fill="#333333"/>
<path d="M38.8063 35.3964C39.2714 35.3964 39.6485 34.6895 39.6485 33.8174C39.6485 32.9452 39.2714 32.2383 38.8063 32.2383C38.3412 32.2383 37.9641 32.9452 37.9641 33.8174C37.9641 34.6895 38.3412 35.3964 38.8063 35.3964Z" fill="#E5A283"/>
<path d="M56.4922 35.3964C56.9573 35.3964 57.3344 34.6895 57.3344 33.8174C57.3344 32.9452 56.9573 32.2383 56.4922 32.2383C56.0271 32.2383 55.65 32.9452 55.65 33.8174C55.65 34.6895 56.0271 35.3964 56.4922 35.3964Z" fill="#E5A283"/>
<path d="M40.3586 26.1531C40.544 25.4644 40.9537 24.8572 41.5228 24.4274C41.9645 24.1219 42.4909 23.9733 42.9986 23.7958C43.748 23.5284 44.4669 23.1824 45.1433 22.7637C45.9112 22.291 46.6316 21.7213 47.4779 21.4075C48.9228 20.8688 50.5515 21.1598 52.0542 21.5458C52.4284 21.6248 52.7888 21.759 53.1234 21.9442C53.4881 22.1964 53.8088 22.5067 54.073 22.8628L56.455 25.7402C56.6826 25.9926 56.8813 26.2695 57.0474 26.5659C57.1908 26.8618 57.2823 27.1802 57.3178 27.5072C57.4033 28.0357 57.3142 28.5778 57.064 29.0512C56.6511 29.7385 55.8254 30.0833 55.0328 30.1163C54.2402 30.1493 53.4558 29.9099 52.69 29.6931C50.2129 28.9707 47.7235 28.2977 45.166 27.9964C43.896 27.8397 42.6145 27.7983 41.337 27.8725C40.9365 27.8994 40.406 28.0789 40.1625 27.6661C39.9499 27.3276 40.2492 26.5019 40.3586 26.1531Z" fill="#333333"/>
<path d="M64.8025 91.2366C68.4506 91.2366 71.4079 88.2793 71.4079 84.6313C71.4079 80.9832 68.4506 78.0259 64.8025 78.0259C61.1545 78.0259 58.1972 80.9832 58.1972 84.6313C58.1972 88.2793 61.1545 91.2366 64.8025 91.2366Z" fill="#FF6F61"/>
<path d="M61.4111 86.262C61.7724 85.9207 62.1838 85.6366 62.631 85.4198C62.7002 85.389 62.7589 85.3385 62.7996 85.2747C62.8403 85.2108 62.8614 85.1363 62.8601 85.0606L62.8952 83.7767C64.1576 83.4015 65.5065 83.4376 66.747 83.8799L66.7119 85.1638C66.7109 85.2384 66.7294 85.3119 66.7656 85.3771C66.8018 85.4423 66.8545 85.4968 66.9183 85.5354C67.3667 85.7688 67.7728 86.0758 68.1196 86.4436C68.1569 86.4831 68.2016 86.5148 68.2511 86.537C68.3006 86.5593 68.3541 86.5715 68.4083 86.573C68.4626 86.5745 68.5166 86.5654 68.5673 86.546C68.618 86.5266 68.6644 86.4974 68.7038 86.4601L69.7524 85.4652C69.8315 85.39 69.8777 85.2866 69.8808 85.1775C69.8839 85.0685 69.8437 84.9626 69.7689 84.8831C69.1351 84.2139 68.3756 83.6761 67.5339 83.3004C66.6921 82.9247 65.7847 82.7185 64.8633 82.6936C63.9418 82.6687 63.0246 82.8255 62.1638 83.1552C61.303 83.4848 60.5155 83.9808 59.8464 84.6147C59.8071 84.6521 59.7755 84.6969 59.7535 84.7465C59.7314 84.7961 59.7194 84.8496 59.7181 84.9038C59.7167 84.9581 59.7261 85.0121 59.7456 85.0627C59.7652 85.1133 59.7945 85.1596 59.832 85.1989L60.8248 86.2475C60.8622 86.2869 60.907 86.3184 60.9566 86.3405C61.0062 86.3625 61.0597 86.3745 61.1139 86.3759C61.1682 86.3772 61.2222 86.3678 61.2728 86.3483C61.3234 86.3287 61.3697 86.2994 61.409 86.262H61.4111Z" fill="white"/>
<path d="M36.9361 91.2366C40.5842 91.2366 43.5415 88.2793 43.5415 84.6313C43.5415 80.9832 40.5842 78.0259 36.9361 78.0259C33.2881 78.0259 30.3308 80.9832 30.3308 84.6313C30.3308 88.2793 33.2881 91.2366 36.9361 91.2366Z" fill="#3CB304"/>
<path d="M34.76 81.5636C34.9105 82.0373 35.1326 82.4852 35.4185 82.8917C35.4642 82.9522 35.491 83.0248 35.4956 83.1004C35.5003 83.176 35.4826 83.2513 35.4448 83.3169L34.8529 84.4568C35.7749 85.3971 36.9722 86.0196 38.2715 86.2343L38.8634 85.0944C38.8987 85.0288 38.9505 84.9734 39.0138 84.934C39.0771 84.8945 39.1496 84.8723 39.2241 84.8696C39.7295 84.8829 40.2335 84.8113 40.7152 84.6578C40.7669 84.6414 40.8214 84.6352 40.8755 84.6398C40.9295 84.6444 40.9822 84.6597 41.0304 84.6846C41.0786 84.7096 41.1214 84.7438 41.1563 84.7854C41.1913 84.8269 41.2177 84.8749 41.2341 84.9267L41.6687 86.3053C41.7014 86.4094 41.6917 86.5222 41.6415 86.6191C41.5913 86.716 41.5048 86.7891 41.4009 86.8224C40.522 87.1003 39.597 87.2023 38.6787 87.1227C37.7604 87.0431 36.8668 86.7834 36.0489 86.3583C35.2309 85.9333 34.5048 85.3514 33.9118 84.6457C33.3188 83.94 32.8706 83.1244 32.5929 82.2455C32.5766 82.1937 32.5707 82.1392 32.5755 82.0852C32.5803 82.0311 32.5957 81.9785 32.6208 81.9304C32.646 81.8823 32.6803 81.8396 32.722 81.8048C32.7636 81.77 32.8117 81.7438 32.8635 81.7276L34.2403 81.292C34.2921 81.2757 34.3466 81.2698 34.4006 81.2746C34.4547 81.2794 34.5073 81.2948 34.5554 81.3199C34.6035 81.345 34.6462 81.3794 34.681 81.4211C34.7158 81.4627 34.742 81.5108 34.7582 81.5626L34.76 81.5636Z" fill="white"/>
<defs>
<linearGradient id="paint0_linear" x1="57.5077" y1="148.266" x2="57.5077" y2="88.5615" gradientUnits="userSpaceOnUse">
<stop stop-color="#808080" stop-opacity="0.25"/>
<stop offset="0.54" stop-color="#808080" stop-opacity="0.12"/>
<stop offset="1" stop-color="#808080" stop-opacity="0.1"/>
</linearGradient>
<linearGradient id="paint1_linear" x1="17676.9" y1="9101.74" x2="17676.9" y2="4499.11" gradientUnits="userSpaceOnUse">
<stop stop-color="#808080" stop-opacity="0.25"/>
<stop offset="0.54" stop-color="#808080" stop-opacity="0.12"/>
<stop offset="1" stop-color="#808080" stop-opacity="0.1"/>
</linearGradient>
<linearGradient id="paint2_linear" x1="20252.2" y1="34384.1" x2="20252.2" y2="18516.7" gradientUnits="userSpaceOnUse">
<stop stop-color="#808080" stop-opacity="0.25"/>
<stop offset="0.54" stop-color="#808080" stop-opacity="0.12"/>
<stop offset="1" stop-color="#808080" stop-opacity="0.1"/>
</linearGradient>
<linearGradient id="paint3_linear" x1="41776.1" y1="11910.7" x2="41776.1" y2="10927.9" gradientUnits="userSpaceOnUse">
<stop stop-color="#808080" stop-opacity="0.25"/>
<stop offset="0.54" stop-color="#808080" stop-opacity="0.12"/>
<stop offset="1" stop-color="#808080" stop-opacity="0.1"/>
</linearGradient>
<linearGradient id="paint4_linear" x1="13377.6" y1="12829" x2="13377.6" y2="9685.81" gradientUnits="userSpaceOnUse">
<stop stop-color="#808080" stop-opacity="0.25"/>
<stop offset="0.54" stop-color="#808080" stop-opacity="0.12"/>
<stop offset="1" stop-color="#808080" stop-opacity="0.1"/>
</linearGradient>
<linearGradient id="paint5_linear" x1="10783.5" y1="13728.6" x2="10783.5" y2="11252.7" gradientUnits="userSpaceOnUse">
<stop stop-color="#808080" stop-opacity="0.25"/>
<stop offset="0.54" stop-color="#808080" stop-opacity="0.12"/>
<stop offset="1" stop-color="#808080" stop-opacity="0.1"/>
</linearGradient>
<linearGradient id="paint6_linear" x1="15510.9" y1="11342.5" x2="15510.9" y2="7466.95" gradientUnits="userSpaceOnUse">
<stop stop-color="#808080" stop-opacity="0.25"/>
<stop offset="0.54" stop-color="#808080" stop-opacity="0.12"/>
<stop offset="1" stop-color="#808080" stop-opacity="0.1"/>
</linearGradient>
</defs>
</svg>
