<svg width="18" height="18" viewBox="0 0 18 18" fill="none" xmlns="http://www.w3.org/2000/svg">
<path d="M13.95 4.82927C13.95 2.17317 11.7225 0 9.00005 0C6.27755 0 4.05005 2.17317 4.05005 4.82927C4.05005 7.48538 6.27755 9.65855 9.00005 9.65855C11.7225 9.65855 13.95 7.48538 13.95 4.82927Z" fill="#1DA1F2"/>
<path d="M10.9575 10.6683C10.3275 10.8659 9.675 10.9756 9 10.9756C8.325 10.9756 7.6725 10.8659 7.0425 10.6683C5.0625 10.0317 2.8575 10.5585 1.5525 12.1171C0.585 13.2805 0 14.7732 0 16.3756C0 17.2756 0.7425 18 1.665 18H16.335C17.2575 18 18 17.2756 18 16.3756C18 14.7732 17.415 13.2805 16.4475 12.1171C15.12 10.5585 12.9375 10.0317 10.9575 10.6683Z" fill="#1DA1F2"/>
</svg>
