<svg width="30" height="30" viewBox="0 0 30 30" fill="none" xmlns="http://www.w3.org/2000/svg">
<rect width="30" height="30" rx="3" fill="#DADADA"/>
<path d="M19.6535 13.1625V11.7725C19.652 9.136 17.516 7 14.88 7C12.245 7 10.109 9.136 10.1075 11.7725V13.162C9.4765 13.283 9 13.8345 9 14.5V20.6365C9 21.3895 9.6105 22 10.3635 22H19.3975C20.1505 22 20.761 21.3895 20.761 20.6365V14.5C20.761 13.8345 20.284 13.2825 19.6535 13.1625ZM15.392 17.936V19.955H14.369V17.936C13.8695 17.7335 13.517 17.2455 13.517 16.6735C13.517 15.9205 14.1275 15.3095 14.8805 15.3095C15.6335 15.3095 16.244 15.92 16.244 16.6735C16.244 17.2455 15.8915 17.7335 15.392 17.936ZM17.606 13.1365H12.1535V11.7725C12.156 10.2655 13.374 9.0465 14.88 9.045C16.386 9.0465 17.6045 10.2655 17.606 11.7725V13.1365Z" fill="#373737"/>
</svg>
