<svg width="30" height="30" viewBox="0 0 30 30" fill="none" xmlns="http://www.w3.org/2000/svg">
<rect width="30" height="30" rx="3" fill="#1DA1F2"/>
<path d="M19.625 11.0244C19.625 8.81098 17.7687 7 15.5 7C13.2312 7 11.375 8.81098 11.375 11.0244C11.375 13.2378 13.2312 15.0488 15.5 15.0488C17.7687 15.0488 19.625 13.2378 19.625 11.0244Z" fill="white"/>
<path d="M17.1313 15.8902C16.6062 16.0549 16.0625 16.1463 15.5 16.1463C14.9375 16.1463 14.3937 16.0549 13.8687 15.8902C12.2188 15.3597 10.3812 15.7988 9.29375 17.0975C8.4875 18.0671 8 19.311 8 20.6463C8 21.3963 8.61875 22 9.3875 22H21.6125C22.3812 22 23 21.3963 23 20.6463C23 19.311 22.5125 18.0671 21.7062 17.0975C20.6 15.7988 18.7812 15.3597 17.1313 15.8902Z" fill="white"/>
</svg>
