<svg width="30" height="30" viewBox="0 0 30 30" fill="none" xmlns="http://www.w3.org/2000/svg">
<rect width="30" height="30" rx="3" fill="#DADADA"/>
<path d="M6.65454 8C5.74609 8 5 8.70751 5 9.56897V19.431C5 20.2924 5.74609 21 6.65454 21H24.1455C25.0539 21 25.8 20.2924 25.8 19.431V9.56897C25.8 8.70751 25.0539 8 24.1455 8H6.65454ZM6.65454 8.89654H24.1455C24.5465 8.89654 24.8545 9.18869 24.8545 9.56897V10.2414H5.94544V9.56897C5.94544 9.18869 6.2535 8.89654 6.65454 8.89654ZM5.94544 13.3793H24.8545V19.431C24.8545 19.8113 24.5464 20.1034 24.1455 20.1034H6.65454C6.25352 20.1034 5.94544 19.8113 5.94544 19.431V13.3793ZM20.6684 14.6342C19.8578 14.6342 19.1929 15.2667 19.1929 16.0312C19.1929 16.7956 19.8578 17.4228 20.6684 17.4228C21.0156 17.4228 21.3369 17.3053 21.5905 17.113C21.8434 17.3059 22.1642 17.4228 22.5126 17.4228C23.3231 17.4228 23.9881 16.7956 23.9881 16.0312C23.9881 15.2667 23.3231 14.6396 22.5126 14.6396C22.1665 14.6396 21.8483 14.7551 21.5963 14.944C21.3421 14.75 21.0172 14.6342 20.6684 14.6342ZM18.5368 19.1515H6.77284V18.5837H18.5368V19.1515Z" fill="#373737"/>
</svg>
