<svg width="149" height="130" viewBox="0 0 149 130" fill="none" xmlns="http://www.w3.org/2000/svg">
<path d="M119.6 63.18C119.6 63.7 119.6 64.22 119.6 65C119.6 95.16 95.16 119.6 65 119.6C34.84 119.6 10.4 95.16 10.4 65C10.4 34.84 34.84 10.4 65 10.4C78.52 10.4 91 15.34 100.36 23.66L107.64 16.38C96.46 5.98 81.38 0 65 0C29.12 0 0 29.12 0 65C0 100.88 29.12 130 65 130C100.88 130 130 100.88 130 65C130 61.1 129.74 57.46 128.96 53.82L119.6 63.18Z" fill="#3CB304"/>
<path d="M36.66 49.1401L25.74 60.0601L65 99.3201L148.46 15.8601L143 10.4001L137.54 4.94006L65 77.4801L36.66 49.1401Z" fill="#3CB304"/>
</svg>
