<svg width="151" height="22" viewBox="0 0 151 22" fill="none" xmlns="http://www.w3.org/2000/svg">
<path d="M10.7725 5.29204V8.00996H7.08245V19.2189H3.69001V8.00996H0V5.29204H10.7725Z" fill="#373737"/>
<path d="M22.9102 13.5053C22.9102 13.8227 22.8904 14.1534 22.8507 14.4972H15.1731C15.226 15.185 15.4442 15.714 15.8278 16.0843C16.2246 16.4414 16.7073 16.62 17.276 16.62C18.1225 16.62 18.711 16.2629 19.0417 15.5487H22.6523C22.4672 16.2761 22.1299 16.9308 21.6405 17.5127C21.1644 18.0947 20.5626 18.551 19.8352 18.8816C19.1078 19.2123 18.2944 19.3776 17.395 19.3776C16.3105 19.3776 15.345 19.1461 14.4986 18.6832C13.6521 18.2203 12.9908 17.559 12.5147 16.6993C12.0386 15.8397 11.8005 14.8345 11.8005 13.6838C11.8005 12.5332 12.032 11.528 12.4949 10.6684C12.971 9.80867 13.6323 9.14738 14.4787 8.68448C15.3252 8.22157 16.2973 7.99012 17.395 7.99012C18.4663 7.99012 19.4186 8.21496 20.2518 8.66464C21.0851 9.11432 21.7331 9.75577 22.196 10.589C22.6722 11.4222 22.9102 12.3943 22.9102 13.5053ZM19.4384 12.6126C19.4384 12.0306 19.2401 11.5677 18.8433 11.2238C18.4465 10.88 17.9505 10.708 17.3554 10.708C16.7867 10.708 16.3039 10.8734 15.9071 11.204C15.5236 11.5346 15.2855 12.0042 15.1929 12.6126H19.4384Z" fill="#373737"/>
<path d="M28.0923 4.53817V19.2189H24.6999V4.53817H28.0923Z" fill="#373737"/>
<path d="M40.986 13.5053C40.986 13.8227 40.9662 14.1534 40.9265 14.4972H33.2489C33.3018 15.185 33.52 15.714 33.9035 16.0843C34.3003 16.4414 34.7831 16.62 35.3518 16.62C36.1982 16.62 36.7868 16.2629 37.1174 15.5487H40.7281C40.5429 16.2761 40.2057 16.9308 39.7163 17.5127C39.2402 18.0947 38.6384 18.551 37.911 18.8816C37.1836 19.2123 36.3702 19.3776 35.4708 19.3776C34.3863 19.3776 33.4208 19.1461 32.5744 18.6832C31.7279 18.2203 31.0666 17.559 30.5905 16.6993C30.1143 15.8397 29.8763 14.8345 29.8763 13.6838C29.8763 12.5332 30.1077 11.528 30.5706 10.6684C31.0468 9.80867 31.7081 9.14738 32.5545 8.68448C33.401 8.22157 34.3731 7.99012 35.4708 7.99012C36.5421 7.99012 37.4944 8.21496 38.3276 8.66464C39.1608 9.11432 39.8089 9.75577 40.2718 10.589C40.7479 11.4222 40.986 12.3943 40.986 13.5053ZM37.5142 12.6126C37.5142 12.0306 37.3158 11.5677 36.919 11.2238C36.5223 10.88 36.0263 10.708 35.4311 10.708C34.8624 10.708 34.3797 10.8734 33.9829 11.204C33.5994 11.5346 33.3613 12.0042 33.2687 12.6126H37.5142Z" fill="#373737"/>
<path d="M56.9009 8.0298C58.2764 8.0298 59.3675 8.44641 60.1743 9.27964C60.9943 10.1129 61.4043 11.2701 61.4043 12.7514V19.2189H58.0317V13.2077C58.0317 12.4935 57.8399 11.9446 57.4564 11.5611C57.086 11.1643 56.5702 10.9659 55.9089 10.9659C55.2477 10.9659 54.7252 11.1643 54.3417 11.5611C53.9714 11.9446 53.7862 12.4935 53.7862 13.2077V19.2189H50.4136V13.2077C50.4136 12.4935 50.2218 11.9446 49.8383 11.5611C49.468 11.1643 48.9521 10.9659 48.2909 10.9659C47.6296 10.9659 47.1071 11.1643 46.7236 11.5611C46.3533 11.9446 46.1681 12.4935 46.1681 13.2077V19.2189H42.7757V8.14883H46.1681V9.53754C46.512 9.07464 46.9617 8.71093 47.5171 8.44641C48.0726 8.16867 48.7009 8.0298 49.4018 8.0298C50.2351 8.0298 50.9757 8.20834 51.6238 8.56544C52.2851 8.92254 52.8009 9.43174 53.1712 10.093C53.5547 9.48464 54.0772 8.98867 54.7385 8.60512C55.3997 8.22157 56.1206 8.0298 56.9009 8.0298Z" fill="#373737"/>
<path d="M74.2121 13.5053C74.2121 13.8227 74.1922 14.1534 74.1526 14.4972H66.475C66.5279 15.185 66.7461 15.714 67.1296 16.0843C67.5264 16.4414 68.0092 16.62 68.5779 16.62C69.4243 16.62 70.0129 16.2629 70.3435 15.5487H73.9542C73.769 16.2761 73.4318 16.9308 72.9424 17.5127C72.4663 18.0947 71.8645 18.551 71.1371 18.8816C70.4096 19.2123 69.5963 19.3776 68.6969 19.3776C67.6124 19.3776 66.6469 19.1461 65.8004 18.6832C64.954 18.2203 64.2927 17.559 63.8166 16.6993C63.3404 15.8397 63.1024 14.8345 63.1024 13.6838C63.1024 12.5332 63.3338 11.528 63.7967 10.6684C64.2729 9.80867 64.9341 9.14738 65.7806 8.68448C66.6271 8.22157 67.5992 7.99012 68.6969 7.99012C69.7682 7.99012 70.7205 8.21496 71.5537 8.66464C72.3869 9.11432 73.035 9.75577 73.4979 10.589C73.974 11.4222 74.2121 12.3943 74.2121 13.5053ZM70.7403 12.6126C70.7403 12.0306 70.5419 11.5677 70.1451 11.2238C69.7484 10.88 69.2524 10.708 68.6572 10.708C68.0885 10.708 67.6058 10.8734 67.209 11.204C66.8254 11.5346 66.5874 12.0042 66.4948 12.6126H70.7403Z" fill="#373737"/>
<path d="M75.3272 13.664C75.3272 12.5266 75.5389 11.528 75.9621 10.6684C76.3985 9.80867 76.9871 9.14738 77.7277 8.68448C78.4684 8.22157 79.295 7.99012 80.2076 7.99012C80.935 7.99012 81.5963 8.14221 82.1915 8.44641C82.7998 8.7506 83.276 9.16061 83.6199 9.67641V4.53817H87.0123V19.2189H83.6199V17.6318C83.3024 18.1608 82.8461 18.584 82.251 18.9014C81.669 19.2189 80.9879 19.3776 80.2076 19.3776C79.295 19.3776 78.4684 19.1461 77.7277 18.6832C76.9871 18.2071 76.3985 17.5392 75.9621 16.6795C75.5389 15.8066 75.3272 14.8014 75.3272 13.664ZM83.6199 13.6838C83.6199 12.8374 83.3818 12.1695 82.9057 11.6801C82.4428 11.1908 81.874 10.9461 81.1995 10.9461C80.525 10.9461 79.9497 11.1908 79.4735 11.6801C79.0106 12.1563 78.7792 12.8176 78.7792 13.664C78.7792 14.5105 79.0106 15.185 79.4735 15.6876C79.9497 16.1769 80.525 16.4216 81.1995 16.4216C81.874 16.4216 82.4428 16.1769 82.9057 15.6876C83.3818 15.1982 83.6199 14.5303 83.6199 13.6838Z" fill="#373737"/>
<path d="M91.1727 6.99818C90.5775 6.99818 90.0882 6.82624 89.7046 6.48237C89.3343 6.12527 89.1491 5.68882 89.1491 5.17301C89.1491 4.64398 89.3343 4.20752 89.7046 3.86365C90.0882 3.50655 90.5775 3.328 91.1727 3.328C91.7546 3.328 92.2308 3.50655 92.6011 3.86365C92.9846 4.20752 93.1764 4.64398 93.1764 5.17301C93.1764 5.68882 92.9846 6.12527 92.6011 6.48237C92.2308 6.82624 91.7546 6.99818 91.1727 6.99818ZM92.859 8.14883V19.2189H89.4666V8.14883H92.859Z" fill="#373737"/>
<path d="M94.6429 13.6838C94.6429 12.5332 94.8744 11.528 95.3373 10.6684C95.8134 9.80867 96.4681 9.14738 97.3013 8.68448C98.1478 8.22157 99.1133 7.99012 100.198 7.99012C101.587 7.99012 102.744 8.35383 103.67 9.08125C104.609 9.80867 105.224 10.8337 105.515 12.1563H101.904C101.6 11.3098 101.011 10.8866 100.138 10.8866C99.5167 10.8866 99.0207 11.1313 98.6504 11.6206C98.28 12.0967 98.0949 12.7845 98.0949 13.6838C98.0949 14.5832 98.28 15.2776 98.6504 15.7669C99.0207 16.2431 99.5167 16.4811 100.138 16.4811C101.011 16.4811 101.6 16.0579 101.904 15.2114H105.515C105.224 16.5076 104.609 17.526 103.67 18.2666C102.731 19.0073 101.573 19.3776 100.198 19.3776C99.1133 19.3776 98.1478 19.1461 97.3013 18.6832C96.4681 18.2203 95.8134 17.559 95.3373 16.6993C94.8744 15.8397 94.6429 14.8345 94.6429 13.6838Z" fill="#373737"/>
<path d="M106.655 13.664C106.655 12.5266 106.866 11.528 107.29 10.6684C107.726 9.80867 108.315 9.14738 109.055 8.68448C109.796 8.22157 110.622 7.99012 111.535 7.99012C112.315 7.99012 112.996 8.14883 113.578 8.46625C114.174 8.78367 114.63 9.20028 114.947 9.71609V8.14883H118.34V19.2189H114.947V17.6516C114.617 18.1674 114.154 18.584 113.559 18.9014C112.977 19.2189 112.296 19.3776 111.515 19.3776C110.616 19.3776 109.796 19.1461 109.055 18.6832C108.315 18.2071 107.726 17.5392 107.29 16.6795C106.866 15.8066 106.655 14.8014 106.655 13.664ZM114.947 13.6838C114.947 12.8374 114.709 12.1695 114.233 11.6801C113.77 11.1908 113.201 10.9461 112.527 10.9461C111.852 10.9461 111.277 11.1908 110.801 11.6801C110.338 12.1563 110.107 12.8176 110.107 13.664C110.107 14.5105 110.338 15.185 110.801 15.6876C111.277 16.1769 111.852 16.4216 112.527 16.4216C113.201 16.4216 113.77 16.1769 114.233 15.6876C114.709 15.1982 114.947 14.5303 114.947 13.6838Z" fill="#373737"/>
<path d="M124.186 4.53817V19.2189H120.794V4.53817H124.186Z" fill="#373737"/>
<path d="M129.165 8.84133C130.265 9.04343 131.388 9.1557 132.511 9.1557C134.532 9.17816 136.553 8.77397 138.439 8.01049V11.7605L139.764 12.3892L140.213 12.6138V8.01049C142.099 8.77397 144.12 9.1557 146.141 9.13325C147.264 9.13325 148.387 9.02097 149.487 8.81888C149.824 8.75151 150.093 8.48205 150.16 8.14522C150.228 7.78594 150.048 7.44912 149.756 7.26948C148.274 6.43864 147.017 5.27098 146.051 3.87876C145.872 3.6093 145.602 3.42966 145.288 3.38475C144.973 3.33984 144.637 3.40721 144.39 3.6093C143.132 4.5075 141.74 5.22607 140.258 5.69762V4.35032C141.403 3.85631 141.942 2.53146 141.448 1.38625C140.931 0.218588 139.607 -0.297879 138.461 0.173677C137.316 0.645234 136.777 1.99254 137.271 3.13775C137.496 3.67667 137.922 4.10331 138.461 4.32786V5.67517C136.979 5.20361 135.587 4.5075 134.307 3.58685C134.06 3.38475 133.723 3.31739 133.409 3.3623C133.095 3.40721 132.825 3.58685 132.646 3.85631C131.68 5.27098 130.4 6.41618 128.896 7.26948C128.581 7.44912 128.424 7.8084 128.491 8.14522C128.559 8.50451 128.828 8.77397 129.165 8.84133Z" fill="#1DA1F2"/>
<path d="M140.235 21.1018V17.509L138.439 16.6781V21.1018C138.439 21.5958 138.843 22 139.337 22C139.831 22 140.235 21.5958 140.235 21.1018Z" fill="#1DA1F2"/>
<path d="M140.909 12.9057L142.975 13.8713C144.053 13.2425 144.412 11.8728 143.783 10.7949C143.559 10.4132 143.222 10.0988 142.818 9.89672C142.413 9.62726 141.852 9.73953 141.583 10.1437C141.313 10.5479 141.425 11.1093 141.83 11.3788C141.897 11.4237 141.964 11.4686 142.054 11.491C142.279 11.6033 142.391 11.8952 142.279 12.1198C142.234 12.2096 142.144 12.2994 142.054 12.3443L140.909 12.9057Z" fill="#1DA1F2"/>
<path d="M135.857 19.3503C136.328 19.5075 136.845 19.2605 137.002 18.7889C137.137 18.3847 136.979 17.9581 136.62 17.7335C136.396 17.6213 136.283 17.3293 136.396 17.1048C136.44 17.015 136.53 16.9252 136.62 16.8802L137.765 16.3413L135.699 15.3758C134.622 16.0045 134.262 17.3743 134.891 18.4521C135.093 18.8338 135.452 19.1482 135.857 19.3503Z" fill="#1DA1F2"/>
<path d="M136.62 11.5135C137.092 11.3563 137.361 10.8623 137.204 10.3907C137.047 9.91917 136.553 9.64971 136.081 9.8069C136.014 9.82935 135.924 9.87426 135.857 9.91917C134.734 10.4581 134.262 11.7829 134.779 12.9057C135.003 13.3773 135.385 13.759 135.857 13.9835L138.439 15.1961L142.032 16.9027C142.256 17.015 142.369 17.3069 142.256 17.5314C142.211 17.6213 142.122 17.7111 142.032 17.756C141.56 17.9132 141.291 18.4072 141.448 18.8787C141.605 19.3503 142.099 19.6198 142.571 19.4626C142.638 19.4401 142.728 19.3952 142.795 19.3503C143.918 18.8114 144.39 17.4865 143.873 16.3638C143.649 15.8922 143.267 15.5105 142.795 15.2859L136.62 12.3892C136.396 12.277 136.283 11.985 136.396 11.7605C136.44 11.6482 136.508 11.5584 136.62 11.5135Z" fill="#1DA1F2"/>
</svg>
