<svg width="28" height="25" viewBox="0 0 28 25" fill="none" xmlns="http://www.w3.org/2000/svg">
<path d="M24.8674 1.59151H21.0212V1.14943C21.0212 0.5084 20.5128 0 19.8718 0C19.2308 0 18.7224 0.5084 18.7224 1.14943V1.59151H14.8983V1.14943C14.8983 0.5084 14.3899 0 13.7489 0C13.13 0 12.5995 0.5084 12.5995 1.14943V1.59151H8.77542V1.14943C8.77542 0.5084 8.26702 0 7.626 0C6.98497 0 6.47657 0.5084 6.47657 1.14943V1.59151H2.63042C1.17153 1.59151 0 2.76304 0 4.22193V22.3696C0 23.8285 1.17153 25 2.63042 25H13.7489H24.8674C26.3263 25 27.4978 23.8285 27.4978 22.3696V4.22193C27.4978 2.76304 26.3263 1.59151 24.8674 1.59151ZM25.1989 22.3475C25.1989 22.5243 25.0442 22.679 24.8674 22.679H13.7489H2.63042C2.45358 22.679 2.29885 22.5243 2.29885 22.3475V4.22193C2.29885 4.04509 2.45358 3.89036 2.63042 3.89036H6.47657V4.33245C6.47657 4.97347 6.98497 5.48187 7.626 5.48187C8.26702 5.48187 8.77542 4.97347 8.77542 4.33245V3.89036H12.6216V4.33245C12.6216 4.97347 13.13 5.48187 13.771 5.48187C14.3899 5.48187 14.9204 4.97347 14.9204 4.33245V3.89036H18.7666V4.33245C18.7666 4.97347 19.275 5.48187 19.916 5.48187C20.557 5.48187 21.0654 4.97347 21.0654 4.33245V3.89036H24.9116C25.0884 3.89036 25.2431 4.04509 25.2431 4.22193V22.3475H25.1989Z" fill="#AAAAAA"/>
<path d="M18.4978 8.48677L12.6632 14.2228L9.79954 11.4076C9.22681 10.8445 8.26033 10.8445 7.6876 11.4076C7.11487 11.9706 7.11487 12.9208 7.6876 13.4838L11.5893 17.3196C11.8757 17.6011 12.2694 17.7419 12.6274 17.7419C13.0211 17.7419 13.3791 17.6011 13.6654 17.3196L20.5382 10.563C21.1109 9.99997 21.1109 9.04982 20.5382 8.48677C20.0013 7.92372 19.0706 7.92372 18.4978 8.48677Z" fill="#AAAAAA"/>
</svg>
