<svg width="21" height="22" viewBox="0 0 21 22" fill="none" xmlns="http://www.w3.org/2000/svg">
<path d="M10.1081 0C9.92408 0.00719459 9.70562 0.0731083 9.55995 0.185811L0.343738 7.32094C0.129922 7.48754 -0.000740089 7.75596 3.154e-06 8.02702V21.1081C6.26134e-05 21.5751 0.4249 21.9999 0.891894 22H7.13513C7.60213 21.9999 8.02697 21.5751 8.02702 21.1081V17.5405C8.02702 16.3722 8.93976 15.4595 10.1081 15.4595C11.2765 15.4595 12.1892 16.3722 12.1892 17.5405V21.1081C12.1892 21.5751 12.6141 21.9999 13.0811 22H19.3243C19.7913 21.9999 20.2161 21.5751 20.2162 21.1081V8.02702C20.2162 7.75596 20.0863 7.48754 19.8725 7.32094L10.6563 0.185811C10.491 0.0578808 10.4054 0.0162592 10.1081 0ZM10.1081 2.01605L18.4324 8.45439V20.2162H13.973V17.5405C13.973 15.4148 12.2338 13.6757 10.1081 13.6757C7.9824 13.6757 6.24324 15.4148 6.24324 17.5405V20.2162H1.78379V8.45439L10.1081 2.01605Z" fill="#AAAAAA"/>
</svg>
