<svg width="32" height="27" viewBox="0 0 32 27" fill="none" xmlns="http://www.w3.org/2000/svg">
<path d="M27.2697 25.3421V22.9605H27.3487C29.296 22.9605 30.8882 21.3683 30.8882 19.4211V14.1579H30.8882L30.8881 14.1533C30.8528 12.2105 29.2639 10.6184 27.3158 10.6184H26.9079V4.94737C26.9079 2.63824 25.0196 0.75 22.7105 0.75H4.94737C2.63824 0.75 0.75 2.63824 0.75 4.94737V12.8421C0.75 15.1512 2.63824 17.0395 4.94737 17.0395H5.68421V20.7368C5.68421 21.0975 5.9036 21.409 6.20973 21.5495C6.27596 21.5909 6.34129 21.6176 6.4115 21.6317C6.47746 21.6449 6.54066 21.6448 6.58478 21.6447L6.59211 21.6447C6.82497 21.6447 7.05244 21.5511 7.22941 21.3741L11.5641 17.0395H12.9211V19.4211C12.9211 21.3683 14.5132 22.9605 16.4605 22.9605H21.4465L25.8222 26.0722L25.8222 26.0723L25.8284 26.0764C25.9541 26.1602 26.1663 26.25 26.3618 26.25C26.5019 26.25 26.6344 26.2057 26.7247 26.1755C26.7288 26.1741 26.7329 26.1727 26.737 26.1714L26.7468 26.1681L26.7564 26.164C27.0937 26.0194 27.2697 25.6877 27.2697 25.3421ZM12.9211 14.1579V15.2237H11.1974C10.9645 15.2237 10.737 15.3173 10.5601 15.4943L7.5 18.5543V16.1316C7.5 15.6317 7.09202 15.2237 6.59211 15.2237H4.94737C3.63807 15.2237 2.56579 14.1514 2.56579 12.8421V4.94737C2.56579 3.63807 3.63807 2.56579 4.94737 2.56579H22.7105C24.0198 2.56579 25.0921 3.63807 25.0921 4.94737V10.6184H16.4605C14.5132 10.6184 12.9211 12.2106 12.9211 14.1579ZM29.0395 19.4211C29.0395 20.3685 28.2632 21.1447 27.3158 21.1447H26.3289C25.829 21.1447 25.4211 21.5527 25.4211 22.0526V23.5739L22.2659 21.3244C22.0866 21.1909 21.9017 21.1447 21.7237 21.1447H16.4605C15.5131 21.1447 14.7368 20.3685 14.7368 19.4211V14.1579C14.7368 13.2104 15.5131 12.4342 16.4605 12.4342H27.3158C28.2632 12.4342 29.0395 13.2104 29.0395 14.1579V19.4211Z" fill="#1DA1F2" stroke="#1DA1F2" stroke-width="0.5"/>
</svg>
