<svg width="27" height="27" viewBox="0 0 27 27" fill="none" xmlns="http://www.w3.org/2000/svg">
<mask id="path-1-outside-1" maskUnits="userSpaceOnUse" x="0" y="0" width="27" height="27" fill="black">
<rect fill="white" width="27" height="27"/>
<path d="M24.8889 10.4444H23.0278C22.8611 9.91667 22.6389 9.41667 22.3889 8.91667L23.7222 7.58333C24.1667 7.13889 24.1667 6.44444 23.7222 6L20.9722 3.25C20.5278 2.80556 19.8333 2.80556 19.3889 3.25L18.0833 4.61111C17.5833 4.36111 17.0833 4.13889 16.5556 3.97222V2.11111C16.5556 1.5 16.0556 1 15.4444 1H11.5556C10.9444 1 10.4444 1.5 10.4444 2.11111V3.97222C9.91667 4.13889 9.41667 4.36111 8.91667 4.61111L7.58333 3.27778C7.13889 2.83333 6.44444 2.83333 6 3.27778L3.25 6.02778C2.80556 6.47222 2.80556 7.16667 3.25 7.61111L4.58333 8.94444C4.33333 9.44444 4.11111 9.94444 3.94444 10.4722H2.11111C1.5 10.4722 1 10.9722 1 11.5833V15.4722C1 16.0833 1.5 16.5833 2.11111 16.5833H3.97222C4.13889 17.1111 4.36111 17.6111 4.61111 18.1111L3.27778 19.4444C2.83333 19.8889 2.83333 20.5833 3.27778 21.0278L6.02778 23.7778C6.44444 24.1944 7.16667 24.1944 7.61111 23.7778L8.94444 22.4444C9.44444 22.6944 9.94444 22.9167 10.4722 23.0833V24.8889C10.4722 25.5 10.9722 26 11.5833 26H15.4722C16.0833 26 16.5833 25.5 16.5833 24.8889V23.0278C17.1111 22.8611 17.6111 22.6389 18.1111 22.3889L19.4444 23.7222C19.8889 24.1667 20.5833 24.1667 21.0278 23.7222L23.7778 20.9722C24.2222 20.5278 24.2222 19.8333 23.7778 19.3889L22.3889 18.0833C22.6389 17.5833 22.8611 17.0833 23.0278 16.5556H24.8889C25.5 16.5556 26 16.0556 26 15.4444V11.5556C26 10.9444 25.5 10.4444 24.8889 10.4444ZM24.8889 15.4444H22.6111C22.3611 15.4444 22.1389 15.6111 22.0833 15.8611C21.8889 16.5833 21.6111 17.25 21.2222 17.9167C21.1111 18.1389 21.1389 18.4167 21.3056 18.5833L22.9167 20.1944L20.1667 22.9167L18.5556 21.3056C18.3889 21.1389 18.1111 21.0833 17.8889 21.2222C17.25 21.5833 16.5556 21.8611 15.8333 22.0833C15.5833 22.1389 15.4167 22.3611 15.4167 22.6111V24.8889H11.5556V22.6111C11.5556 22.3611 11.3889 22.1389 11.1389 22.0833C10.4167 21.8889 9.75 21.6111 9.08333 21.2222C9 21.1667 8.88889 21.1389 8.80556 21.1389C8.66667 21.1389 8.52778 21.1944 8.41667 21.3056L6.83333 22.9167L4.08333 20.1667L5.69444 18.5556C5.86111 18.3889 5.91667 18.1111 5.77778 17.8889C5.41667 17.25 5.13889 16.5556 4.94444 15.8333C4.88889 15.5833 4.66667 15.4167 4.41667 15.4167H2.11111V11.5556H4.38889C4.63889 11.5556 4.86111 11.3889 4.91667 11.1389C5.11111 10.4167 5.38889 9.75 5.75 9.08333C5.86111 8.86111 5.83333 8.58333 5.66667 8.41667L4.08333 6.83333L6.83333 4.08333L8.44444 5.69444C8.61111 5.86111 8.88889 5.91667 9.11111 5.77778C9.75 5.41667 10.4444 5.13889 11.1667 4.94444C11.4167 4.88889 11.5833 4.66667 11.5833 4.41667V2.11111H15.4722V4.38889C15.4722 4.63889 15.6389 4.86111 15.8889 4.91667C16.6111 5.11111 17.2778 5.38889 17.9444 5.75C18.1667 5.86111 18.4444 5.83333 18.6111 5.66667L20.2222 4.05556L22.9722 6.80556L21.3611 8.41667C21.1944 8.58333 21.1389 8.86111 21.2778 9.08333C21.6389 9.72222 21.9167 10.4167 22.1389 11.1389C22.1944 11.3889 22.4167 11.5556 22.6667 11.5556H24.8889V15.4444ZM13.5 8.5C10.75 8.5 8.5 10.75 8.5 13.5C8.5 16.25 10.75 18.5 13.5 18.5C16.25 18.5 18.5 16.25 18.5 13.5C18.5 10.75 16.25 8.5 13.5 8.5ZM13.5 17.3889C11.3611 17.3889 9.61111 15.6389 9.61111 13.5C9.61111 11.3611 11.3611 9.61111 13.5 9.61111C15.6389 9.61111 17.3889 11.3611 17.3889 13.5C17.3889 15.6389 15.6389 17.3889 13.5 17.3889Z"/>
</mask>
<path d="M24.8889 10.4444H23.0278C22.8611 9.91667 22.6389 9.41667 22.3889 8.91667L23.7222 7.58333C24.1667 7.13889 24.1667 6.44444 23.7222 6L20.9722 3.25C20.5278 2.80556 19.8333 2.80556 19.3889 3.25L18.0833 4.61111C17.5833 4.36111 17.0833 4.13889 16.5556 3.97222V2.11111C16.5556 1.5 16.0556 1 15.4444 1H11.5556C10.9444 1 10.4444 1.5 10.4444 2.11111V3.97222C9.91667 4.13889 9.41667 4.36111 8.91667 4.61111L7.58333 3.27778C7.13889 2.83333 6.44444 2.83333 6 3.27778L3.25 6.02778C2.80556 6.47222 2.80556 7.16667 3.25 7.61111L4.58333 8.94444C4.33333 9.44444 4.11111 9.94444 3.94444 10.4722H2.11111C1.5 10.4722 1 10.9722 1 11.5833V15.4722C1 16.0833 1.5 16.5833 2.11111 16.5833H3.97222C4.13889 17.1111 4.36111 17.6111 4.61111 18.1111L3.27778 19.4444C2.83333 19.8889 2.83333 20.5833 3.27778 21.0278L6.02778 23.7778C6.44444 24.1944 7.16667 24.1944 7.61111 23.7778L8.94444 22.4444C9.44444 22.6944 9.94444 22.9167 10.4722 23.0833V24.8889C10.4722 25.5 10.9722 26 11.5833 26H15.4722C16.0833 26 16.5833 25.5 16.5833 24.8889V23.0278C17.1111 22.8611 17.6111 22.6389 18.1111 22.3889L19.4444 23.7222C19.8889 24.1667 20.5833 24.1667 21.0278 23.7222L23.7778 20.9722C24.2222 20.5278 24.2222 19.8333 23.7778 19.3889L22.3889 18.0833C22.6389 17.5833 22.8611 17.0833 23.0278 16.5556H24.8889C25.5 16.5556 26 16.0556 26 15.4444V11.5556C26 10.9444 25.5 10.4444 24.8889 10.4444ZM24.8889 15.4444H22.6111C22.3611 15.4444 22.1389 15.6111 22.0833 15.8611C21.8889 16.5833 21.6111 17.25 21.2222 17.9167C21.1111 18.1389 21.1389 18.4167 21.3056 18.5833L22.9167 20.1944L20.1667 22.9167L18.5556 21.3056C18.3889 21.1389 18.1111 21.0833 17.8889 21.2222C17.25 21.5833 16.5556 21.8611 15.8333 22.0833C15.5833 22.1389 15.4167 22.3611 15.4167 22.6111V24.8889H11.5556V22.6111C11.5556 22.3611 11.3889 22.1389 11.1389 22.0833C10.4167 21.8889 9.75 21.6111 9.08333 21.2222C9 21.1667 8.88889 21.1389 8.80556 21.1389C8.66667 21.1389 8.52778 21.1944 8.41667 21.3056L6.83333 22.9167L4.08333 20.1667L5.69444 18.5556C5.86111 18.3889 5.91667 18.1111 5.77778 17.8889C5.41667 17.25 5.13889 16.5556 4.94444 15.8333C4.88889 15.5833 4.66667 15.4167 4.41667 15.4167H2.11111V11.5556H4.38889C4.63889 11.5556 4.86111 11.3889 4.91667 11.1389C5.11111 10.4167 5.38889 9.75 5.75 9.08333C5.86111 8.86111 5.83333 8.58333 5.66667 8.41667L4.08333 6.83333L6.83333 4.08333L8.44444 5.69444C8.61111 5.86111 8.88889 5.91667 9.11111 5.77778C9.75 5.41667 10.4444 5.13889 11.1667 4.94444C11.4167 4.88889 11.5833 4.66667 11.5833 4.41667V2.11111H15.4722V4.38889C15.4722 4.63889 15.6389 4.86111 15.8889 4.91667C16.6111 5.11111 17.2778 5.38889 17.9444 5.75C18.1667 5.86111 18.4444 5.83333 18.6111 5.66667L20.2222 4.05556L22.9722 6.80556L21.3611 8.41667C21.1944 8.58333 21.1389 8.86111 21.2778 9.08333C21.6389 9.72222 21.9167 10.4167 22.1389 11.1389C22.1944 11.3889 22.4167 11.5556 22.6667 11.5556H24.8889V15.4444ZM13.5 8.5C10.75 8.5 8.5 10.75 8.5 13.5C8.5 16.25 10.75 18.5 13.5 18.5C16.25 18.5 18.5 16.25 18.5 13.5C18.5 10.75 16.25 8.5 13.5 8.5ZM13.5 17.3889C11.3611 17.3889 9.61111 15.6389 9.61111 13.5C9.61111 11.3611 11.3611 9.61111 13.5 9.61111C15.6389 9.61111 17.3889 11.3611 17.3889 13.5C17.3889 15.6389 15.6389 17.3889 13.5 17.3889Z" fill="#1DA1F2"/>
<path d="M24.8889 10.4444H23.0278C22.8611 9.91667 22.6389 9.41667 22.3889 8.91667L23.7222 7.58333C24.1667 7.13889 24.1667 6.44444 23.7222 6L20.9722 3.25C20.5278 2.80556 19.8333 2.80556 19.3889 3.25L18.0833 4.61111C17.5833 4.36111 17.0833 4.13889 16.5556 3.97222V2.11111C16.5556 1.5 16.0556 1 15.4444 1H11.5556C10.9444 1 10.4444 1.5 10.4444 2.11111V3.97222C9.91667 4.13889 9.41667 4.36111 8.91667 4.61111L7.58333 3.27778C7.13889 2.83333 6.44444 2.83333 6 3.27778L3.25 6.02778C2.80556 6.47222 2.80556 7.16667 3.25 7.61111L4.58333 8.94444C4.33333 9.44444 4.11111 9.94444 3.94444 10.4722H2.11111C1.5 10.4722 1 10.9722 1 11.5833V15.4722C1 16.0833 1.5 16.5833 2.11111 16.5833H3.97222C4.13889 17.1111 4.36111 17.6111 4.61111 18.1111L3.27778 19.4444C2.83333 19.8889 2.83333 20.5833 3.27778 21.0278L6.02778 23.7778C6.44444 24.1944 7.16667 24.1944 7.61111 23.7778L8.94444 22.4444C9.44444 22.6944 9.94444 22.9167 10.4722 23.0833V24.8889C10.4722 25.5 10.9722 26 11.5833 26H15.4722C16.0833 26 16.5833 25.5 16.5833 24.8889V23.0278C17.1111 22.8611 17.6111 22.6389 18.1111 22.3889L19.4444 23.7222C19.8889 24.1667 20.5833 24.1667 21.0278 23.7222L23.7778 20.9722C24.2222 20.5278 24.2222 19.8333 23.7778 19.3889L22.3889 18.0833C22.6389 17.5833 22.8611 17.0833 23.0278 16.5556H24.8889C25.5 16.5556 26 16.0556 26 15.4444V11.5556C26 10.9444 25.5 10.4444 24.8889 10.4444ZM24.8889 15.4444H22.6111C22.3611 15.4444 22.1389 15.6111 22.0833 15.8611C21.8889 16.5833 21.6111 17.25 21.2222 17.9167C21.1111 18.1389 21.1389 18.4167 21.3056 18.5833L22.9167 20.1944L20.1667 22.9167L18.5556 21.3056C18.3889 21.1389 18.1111 21.0833 17.8889 21.2222C17.25 21.5833 16.5556 21.8611 15.8333 22.0833C15.5833 22.1389 15.4167 22.3611 15.4167 22.6111V24.8889H11.5556V22.6111C11.5556 22.3611 11.3889 22.1389 11.1389 22.0833C10.4167 21.8889 9.75 21.6111 9.08333 21.2222C9 21.1667 8.88889 21.1389 8.80556 21.1389C8.66667 21.1389 8.52778 21.1944 8.41667 21.3056L6.83333 22.9167L4.08333 20.1667L5.69444 18.5556C5.86111 18.3889 5.91667 18.1111 5.77778 17.8889C5.41667 17.25 5.13889 16.5556 4.94444 15.8333C4.88889 15.5833 4.66667 15.4167 4.41667 15.4167H2.11111V11.5556H4.38889C4.63889 11.5556 4.86111 11.3889 4.91667 11.1389C5.11111 10.4167 5.38889 9.75 5.75 9.08333C5.86111 8.86111 5.83333 8.58333 5.66667 8.41667L4.08333 6.83333L6.83333 4.08333L8.44444 5.69444C8.61111 5.86111 8.88889 5.91667 9.11111 5.77778C9.75 5.41667 10.4444 5.13889 11.1667 4.94444C11.4167 4.88889 11.5833 4.66667 11.5833 4.41667V2.11111H15.4722V4.38889C15.4722 4.63889 15.6389 4.86111 15.8889 4.91667C16.6111 5.11111 17.2778 5.38889 17.9444 5.75C18.1667 5.86111 18.4444 5.83333 18.6111 5.66667L20.2222 4.05556L22.9722 6.80556L21.3611 8.41667C21.1944 8.58333 21.1389 8.86111 21.2778 9.08333C21.6389 9.72222 21.9167 10.4167 22.1389 11.1389C22.1944 11.3889 22.4167 11.5556 22.6667 11.5556H24.8889V15.4444ZM13.5 8.5C10.75 8.5 8.5 10.75 8.5 13.5C8.5 16.25 10.75 18.5 13.5 18.5C16.25 18.5 18.5 16.25 18.5 13.5C18.5 10.75 16.25 8.5 13.5 8.5ZM13.5 17.3889C11.3611 17.3889 9.61111 15.6389 9.61111 13.5C9.61111 11.3611 11.3611 9.61111 13.5 9.61111C15.6389 9.61111 17.3889 11.3611 17.3889 13.5C17.3889 15.6389 15.6389 17.3889 13.5 17.3889Z" stroke="#1DA1F2" mask="url(#path-1-outside-1)"/>
</svg>
